%TF.GenerationSoftware,KiCad,Pcbnew,9.0.7*%
%TF.CreationDate,2026-03-06T18:27:08-05:00*%
%TF.ProjectId,Untitled,556e7469-746c-4656-942e-6b696361645f,rev?*%
%TF.SameCoordinates,Original*%
%TF.FileFunction,Legend,Bot*%
%TF.FilePolarity,Positive*%
%FSLAX46Y46*%
G04 Gerber Fmt 4.6, Leading zero omitted, Abs format (unit mm)*
G04 Created by KiCad (PCBNEW 9.0.7) date 2026-03-06 18:27:08*
%MOMM*%
%LPD*%
G01*
G04 APERTURE LIST*
%ADD10C,0.200000*%
%ADD11C,0.150000*%
%ADD12C,0.125000*%
%ADD13C,0.120000*%
G04 APERTURE END LIST*
D10*
X220142231Y-75232933D02*
X218618422Y-75232933D01*
D11*
X210187030Y-70869819D02*
X210187030Y-69869819D01*
X210187030Y-69869819D02*
X209887030Y-70584104D01*
X209887030Y-70584104D02*
X209587030Y-69869819D01*
X209587030Y-69869819D02*
X209587030Y-70869819D01*
X208987030Y-69869819D02*
X208815602Y-69869819D01*
X208815602Y-69869819D02*
X208729887Y-69917438D01*
X208729887Y-69917438D02*
X208644173Y-70012676D01*
X208644173Y-70012676D02*
X208601316Y-70203152D01*
X208601316Y-70203152D02*
X208601316Y-70536485D01*
X208601316Y-70536485D02*
X208644173Y-70726961D01*
X208644173Y-70726961D02*
X208729887Y-70822200D01*
X208729887Y-70822200D02*
X208815602Y-70869819D01*
X208815602Y-70869819D02*
X208987030Y-70869819D01*
X208987030Y-70869819D02*
X209072745Y-70822200D01*
X209072745Y-70822200D02*
X209158459Y-70726961D01*
X209158459Y-70726961D02*
X209201316Y-70536485D01*
X209201316Y-70536485D02*
X209201316Y-70203152D01*
X209201316Y-70203152D02*
X209158459Y-70012676D01*
X209158459Y-70012676D02*
X209072745Y-69917438D01*
X209072745Y-69917438D02*
X208987030Y-69869819D01*
X208344173Y-69869819D02*
X207829888Y-69869819D01*
X208087030Y-70869819D02*
X208087030Y-69869819D01*
X207358459Y-69869819D02*
X207187031Y-69869819D01*
X207187031Y-69869819D02*
X207101316Y-69917438D01*
X207101316Y-69917438D02*
X207015602Y-70012676D01*
X207015602Y-70012676D02*
X206972745Y-70203152D01*
X206972745Y-70203152D02*
X206972745Y-70536485D01*
X206972745Y-70536485D02*
X207015602Y-70726961D01*
X207015602Y-70726961D02*
X207101316Y-70822200D01*
X207101316Y-70822200D02*
X207187031Y-70869819D01*
X207187031Y-70869819D02*
X207358459Y-70869819D01*
X207358459Y-70869819D02*
X207444174Y-70822200D01*
X207444174Y-70822200D02*
X207529888Y-70726961D01*
X207529888Y-70726961D02*
X207572745Y-70536485D01*
X207572745Y-70536485D02*
X207572745Y-70203152D01*
X207572745Y-70203152D02*
X207529888Y-70012676D01*
X207529888Y-70012676D02*
X207444174Y-69917438D01*
X207444174Y-69917438D02*
X207358459Y-69869819D01*
X206072745Y-70869819D02*
X206372745Y-70393628D01*
X206587031Y-70869819D02*
X206587031Y-69869819D01*
X206587031Y-69869819D02*
X206244174Y-69869819D01*
X206244174Y-69869819D02*
X206158459Y-69917438D01*
X206158459Y-69917438D02*
X206115602Y-69965057D01*
X206115602Y-69965057D02*
X206072745Y-70060295D01*
X206072745Y-70060295D02*
X206072745Y-70203152D01*
X206072745Y-70203152D02*
X206115602Y-70298390D01*
X206115602Y-70298390D02*
X206158459Y-70346009D01*
X206158459Y-70346009D02*
X206244174Y-70393628D01*
X206244174Y-70393628D02*
X206587031Y-70393628D01*
D12*
X208315476Y-81901231D02*
X208190476Y-80901231D01*
X208190476Y-80901231D02*
X207952380Y-80901231D01*
X207952380Y-80901231D02*
X207815476Y-80948850D01*
X207815476Y-80948850D02*
X207732142Y-81044088D01*
X207732142Y-81044088D02*
X207696428Y-81139326D01*
X207696428Y-81139326D02*
X207672619Y-81329802D01*
X207672619Y-81329802D02*
X207690476Y-81472659D01*
X207690476Y-81472659D02*
X207761904Y-81663135D01*
X207761904Y-81663135D02*
X207821428Y-81758373D01*
X207821428Y-81758373D02*
X207928571Y-81853612D01*
X207928571Y-81853612D02*
X208077380Y-81901231D01*
X208077380Y-81901231D02*
X208315476Y-81901231D01*
X207172619Y-81901231D02*
X207261904Y-81853612D01*
X207261904Y-81853612D02*
X207303571Y-81805992D01*
X207303571Y-81805992D02*
X207339285Y-81710754D01*
X207339285Y-81710754D02*
X207303571Y-81425040D01*
X207303571Y-81425040D02*
X207244047Y-81329802D01*
X207244047Y-81329802D02*
X207190476Y-81282183D01*
X207190476Y-81282183D02*
X207089285Y-81234564D01*
X207089285Y-81234564D02*
X206946428Y-81234564D01*
X206946428Y-81234564D02*
X206857142Y-81282183D01*
X206857142Y-81282183D02*
X206815476Y-81329802D01*
X206815476Y-81329802D02*
X206779761Y-81425040D01*
X206779761Y-81425040D02*
X206815476Y-81710754D01*
X206815476Y-81710754D02*
X206874999Y-81805992D01*
X206874999Y-81805992D02*
X206928571Y-81853612D01*
X206928571Y-81853612D02*
X207029761Y-81901231D01*
X207029761Y-81901231D02*
X207172619Y-81901231D01*
X205898809Y-81234564D02*
X205982142Y-81901231D01*
X206327380Y-81234564D02*
X206392857Y-81758373D01*
X206392857Y-81758373D02*
X206357142Y-81853612D01*
X206357142Y-81853612D02*
X206267857Y-81901231D01*
X206267857Y-81901231D02*
X206124999Y-81901231D01*
X206124999Y-81901231D02*
X206023809Y-81853612D01*
X206023809Y-81853612D02*
X205970237Y-81805992D01*
X205505952Y-81901231D02*
X205380952Y-80901231D01*
X205428571Y-81282183D02*
X205327380Y-81234564D01*
X205327380Y-81234564D02*
X205136904Y-81234564D01*
X205136904Y-81234564D02*
X205047618Y-81282183D01*
X205047618Y-81282183D02*
X205005952Y-81329802D01*
X205005952Y-81329802D02*
X204970237Y-81425040D01*
X204970237Y-81425040D02*
X205005952Y-81710754D01*
X205005952Y-81710754D02*
X205065475Y-81805992D01*
X205065475Y-81805992D02*
X205119047Y-81853612D01*
X205119047Y-81853612D02*
X205220237Y-81901231D01*
X205220237Y-81901231D02*
X205410714Y-81901231D01*
X205410714Y-81901231D02*
X205499999Y-81853612D01*
X204458333Y-81901231D02*
X204547618Y-81853612D01*
X204547618Y-81853612D02*
X204583333Y-81758373D01*
X204583333Y-81758373D02*
X204476190Y-80901231D01*
X203690475Y-81853612D02*
X203791665Y-81901231D01*
X203791665Y-81901231D02*
X203982142Y-81901231D01*
X203982142Y-81901231D02*
X204071427Y-81853612D01*
X204071427Y-81853612D02*
X204107142Y-81758373D01*
X204107142Y-81758373D02*
X204059523Y-81377421D01*
X204059523Y-81377421D02*
X203999999Y-81282183D01*
X203999999Y-81282183D02*
X203898808Y-81234564D01*
X203898808Y-81234564D02*
X203708332Y-81234564D01*
X203708332Y-81234564D02*
X203619046Y-81282183D01*
X203619046Y-81282183D02*
X203583332Y-81377421D01*
X203583332Y-81377421D02*
X203595237Y-81472659D01*
X203595237Y-81472659D02*
X204083332Y-81567897D01*
X206386905Y-83511175D02*
X206476190Y-83463556D01*
X206476190Y-83463556D02*
X206517857Y-83415936D01*
X206517857Y-83415936D02*
X206553571Y-83320698D01*
X206553571Y-83320698D02*
X206517857Y-83034984D01*
X206517857Y-83034984D02*
X206458333Y-82939746D01*
X206458333Y-82939746D02*
X206404762Y-82892127D01*
X206404762Y-82892127D02*
X206303571Y-82844508D01*
X206303571Y-82844508D02*
X206160714Y-82844508D01*
X206160714Y-82844508D02*
X206071428Y-82892127D01*
X206071428Y-82892127D02*
X206029762Y-82939746D01*
X206029762Y-82939746D02*
X205994047Y-83034984D01*
X205994047Y-83034984D02*
X206029762Y-83320698D01*
X206029762Y-83320698D02*
X206089285Y-83415936D01*
X206089285Y-83415936D02*
X206142857Y-83463556D01*
X206142857Y-83463556D02*
X206244047Y-83511175D01*
X206244047Y-83511175D02*
X206386905Y-83511175D01*
X205625000Y-83511175D02*
X205541666Y-82844508D01*
X205565476Y-83034984D02*
X205505952Y-82939746D01*
X205505952Y-82939746D02*
X205452381Y-82892127D01*
X205452381Y-82892127D02*
X205351190Y-82844508D01*
X205351190Y-82844508D02*
X205255952Y-82844508D01*
X208863095Y-85121119D02*
X208738095Y-84121119D01*
X208738095Y-84121119D02*
X208291666Y-85121119D01*
X208291666Y-85121119D02*
X208166666Y-84121119D01*
X207672619Y-85121119D02*
X207761904Y-85073500D01*
X207761904Y-85073500D02*
X207803571Y-85025880D01*
X207803571Y-85025880D02*
X207839285Y-84930642D01*
X207839285Y-84930642D02*
X207803571Y-84644928D01*
X207803571Y-84644928D02*
X207744047Y-84549690D01*
X207744047Y-84549690D02*
X207690476Y-84502071D01*
X207690476Y-84502071D02*
X207589285Y-84454452D01*
X207589285Y-84454452D02*
X207446428Y-84454452D01*
X207446428Y-84454452D02*
X207357142Y-84502071D01*
X207357142Y-84502071D02*
X207315476Y-84549690D01*
X207315476Y-84549690D02*
X207279761Y-84644928D01*
X207279761Y-84644928D02*
X207315476Y-84930642D01*
X207315476Y-84930642D02*
X207374999Y-85025880D01*
X207374999Y-85025880D02*
X207428571Y-85073500D01*
X207428571Y-85073500D02*
X207529761Y-85121119D01*
X207529761Y-85121119D02*
X207672619Y-85121119D01*
X206970237Y-84454452D02*
X206589285Y-84454452D01*
X206785714Y-84121119D02*
X206892857Y-84978261D01*
X206892857Y-84978261D02*
X206857142Y-85073500D01*
X206857142Y-85073500D02*
X206767857Y-85121119D01*
X206767857Y-85121119D02*
X206672618Y-85121119D01*
X206339285Y-85121119D02*
X206214285Y-84121119D01*
X205910713Y-85121119D02*
X205845237Y-84597309D01*
X205845237Y-84597309D02*
X205880951Y-84502071D01*
X205880951Y-84502071D02*
X205970237Y-84454452D01*
X205970237Y-84454452D02*
X206113094Y-84454452D01*
X206113094Y-84454452D02*
X206214285Y-84502071D01*
X206214285Y-84502071D02*
X206267856Y-84549690D01*
X205434523Y-85121119D02*
X205351189Y-84454452D01*
X205309523Y-84121119D02*
X205363094Y-84168738D01*
X205363094Y-84168738D02*
X205321427Y-84216357D01*
X205321427Y-84216357D02*
X205267856Y-84168738D01*
X205267856Y-84168738D02*
X205309523Y-84121119D01*
X205309523Y-84121119D02*
X205321427Y-84216357D01*
X204874999Y-84454452D02*
X204958333Y-85121119D01*
X204886904Y-84549690D02*
X204833333Y-84502071D01*
X204833333Y-84502071D02*
X204732142Y-84454452D01*
X204732142Y-84454452D02*
X204589285Y-84454452D01*
X204589285Y-84454452D02*
X204499999Y-84502071D01*
X204499999Y-84502071D02*
X204464285Y-84597309D01*
X204464285Y-84597309D02*
X204529761Y-85121119D01*
X203541666Y-84454452D02*
X203642856Y-85263976D01*
X203642856Y-85263976D02*
X203702380Y-85359214D01*
X203702380Y-85359214D02*
X203755952Y-85406833D01*
X203755952Y-85406833D02*
X203857142Y-85454452D01*
X203857142Y-85454452D02*
X203999999Y-85454452D01*
X203999999Y-85454452D02*
X204089285Y-85406833D01*
X203619047Y-85073500D02*
X203720237Y-85121119D01*
X203720237Y-85121119D02*
X203910714Y-85121119D01*
X203910714Y-85121119D02*
X203999999Y-85073500D01*
X203999999Y-85073500D02*
X204041666Y-85025880D01*
X204041666Y-85025880D02*
X204077380Y-84930642D01*
X204077380Y-84930642D02*
X204041666Y-84644928D01*
X204041666Y-84644928D02*
X203982142Y-84549690D01*
X203982142Y-84549690D02*
X203928571Y-84502071D01*
X203928571Y-84502071D02*
X203827380Y-84454452D01*
X203827380Y-84454452D02*
X203636904Y-84454452D01*
X203636904Y-84454452D02*
X203547618Y-84502071D01*
X203136904Y-85025880D02*
X203095237Y-85073500D01*
X203095237Y-85073500D02*
X203148809Y-85121119D01*
X203148809Y-85121119D02*
X203190475Y-85073500D01*
X203190475Y-85073500D02*
X203136904Y-85025880D01*
X203136904Y-85025880D02*
X203148809Y-85121119D01*
X203101190Y-84740166D02*
X203077380Y-84168738D01*
X203077380Y-84168738D02*
X203023809Y-84121119D01*
X203023809Y-84121119D02*
X202982142Y-84168738D01*
X202982142Y-84168738D02*
X203101190Y-84740166D01*
X203101190Y-84740166D02*
X203023809Y-84121119D01*
D11*
X216437030Y-80369819D02*
X216913220Y-80369819D01*
X216913220Y-80369819D02*
X216960839Y-80846009D01*
X216960839Y-80846009D02*
X216913220Y-80798390D01*
X216913220Y-80798390D02*
X216817982Y-80750771D01*
X216817982Y-80750771D02*
X216579887Y-80750771D01*
X216579887Y-80750771D02*
X216484649Y-80798390D01*
X216484649Y-80798390D02*
X216437030Y-80846009D01*
X216437030Y-80846009D02*
X216389411Y-80941247D01*
X216389411Y-80941247D02*
X216389411Y-81179342D01*
X216389411Y-81179342D02*
X216437030Y-81274580D01*
X216437030Y-81274580D02*
X216484649Y-81322200D01*
X216484649Y-81322200D02*
X216579887Y-81369819D01*
X216579887Y-81369819D02*
X216817982Y-81369819D01*
X216817982Y-81369819D02*
X216913220Y-81322200D01*
X216913220Y-81322200D02*
X216960839Y-81274580D01*
X216103696Y-80369819D02*
X215770363Y-81369819D01*
X215770363Y-81369819D02*
X215437030Y-80369819D01*
X214341791Y-81369819D02*
X214341791Y-80369819D01*
X214341791Y-80369819D02*
X214008458Y-81084104D01*
X214008458Y-81084104D02*
X213675125Y-80369819D01*
X213675125Y-80369819D02*
X213675125Y-81369819D01*
X212770363Y-81369819D02*
X212770363Y-80846009D01*
X212770363Y-80846009D02*
X212817982Y-80750771D01*
X212817982Y-80750771D02*
X212913220Y-80703152D01*
X212913220Y-80703152D02*
X213103696Y-80703152D01*
X213103696Y-80703152D02*
X213198934Y-80750771D01*
X212770363Y-81322200D02*
X212865601Y-81369819D01*
X212865601Y-81369819D02*
X213103696Y-81369819D01*
X213103696Y-81369819D02*
X213198934Y-81322200D01*
X213198934Y-81322200D02*
X213246553Y-81226961D01*
X213246553Y-81226961D02*
X213246553Y-81131723D01*
X213246553Y-81131723D02*
X213198934Y-81036485D01*
X213198934Y-81036485D02*
X213103696Y-80988866D01*
X213103696Y-80988866D02*
X212865601Y-80988866D01*
X212865601Y-80988866D02*
X212770363Y-80941247D01*
X212389410Y-81369819D02*
X211865601Y-80703152D01*
X212389410Y-80703152D02*
X211865601Y-81369819D01*
X197642857Y-72931009D02*
X197500000Y-72978628D01*
X197500000Y-72978628D02*
X197452381Y-73026247D01*
X197452381Y-73026247D02*
X197404762Y-73121485D01*
X197404762Y-73121485D02*
X197404762Y-73264342D01*
X197404762Y-73264342D02*
X197452381Y-73359580D01*
X197452381Y-73359580D02*
X197500000Y-73407200D01*
X197500000Y-73407200D02*
X197595238Y-73454819D01*
X197595238Y-73454819D02*
X197976190Y-73454819D01*
X197976190Y-73454819D02*
X197976190Y-72454819D01*
X197976190Y-72454819D02*
X197642857Y-72454819D01*
X197642857Y-72454819D02*
X197547619Y-72502438D01*
X197547619Y-72502438D02*
X197500000Y-72550057D01*
X197500000Y-72550057D02*
X197452381Y-72645295D01*
X197452381Y-72645295D02*
X197452381Y-72740533D01*
X197452381Y-72740533D02*
X197500000Y-72835771D01*
X197500000Y-72835771D02*
X197547619Y-72883390D01*
X197547619Y-72883390D02*
X197642857Y-72931009D01*
X197642857Y-72931009D02*
X197976190Y-72931009D01*
X196547619Y-73454819D02*
X196547619Y-72931009D01*
X196547619Y-72931009D02*
X196595238Y-72835771D01*
X196595238Y-72835771D02*
X196690476Y-72788152D01*
X196690476Y-72788152D02*
X196880952Y-72788152D01*
X196880952Y-72788152D02*
X196976190Y-72835771D01*
X196547619Y-73407200D02*
X196642857Y-73454819D01*
X196642857Y-73454819D02*
X196880952Y-73454819D01*
X196880952Y-73454819D02*
X196976190Y-73407200D01*
X196976190Y-73407200D02*
X197023809Y-73311961D01*
X197023809Y-73311961D02*
X197023809Y-73216723D01*
X197023809Y-73216723D02*
X196976190Y-73121485D01*
X196976190Y-73121485D02*
X196880952Y-73073866D01*
X196880952Y-73073866D02*
X196642857Y-73073866D01*
X196642857Y-73073866D02*
X196547619Y-73026247D01*
X196071428Y-73454819D02*
X196071428Y-72788152D01*
X196071428Y-72978628D02*
X196023809Y-72883390D01*
X196023809Y-72883390D02*
X195976190Y-72835771D01*
X195976190Y-72835771D02*
X195880952Y-72788152D01*
X195880952Y-72788152D02*
X195785714Y-72788152D01*
X195309523Y-73454819D02*
X195404761Y-73407200D01*
X195404761Y-73407200D02*
X195452380Y-73359580D01*
X195452380Y-73359580D02*
X195499999Y-73264342D01*
X195499999Y-73264342D02*
X195499999Y-72978628D01*
X195499999Y-72978628D02*
X195452380Y-72883390D01*
X195452380Y-72883390D02*
X195404761Y-72835771D01*
X195404761Y-72835771D02*
X195309523Y-72788152D01*
X195309523Y-72788152D02*
X195166666Y-72788152D01*
X195166666Y-72788152D02*
X195071428Y-72835771D01*
X195071428Y-72835771D02*
X195023809Y-72883390D01*
X195023809Y-72883390D02*
X194976190Y-72978628D01*
X194976190Y-72978628D02*
X194976190Y-73264342D01*
X194976190Y-73264342D02*
X195023809Y-73359580D01*
X195023809Y-73359580D02*
X195071428Y-73407200D01*
X195071428Y-73407200D02*
X195166666Y-73454819D01*
X195166666Y-73454819D02*
X195309523Y-73454819D01*
X217829887Y-72096009D02*
X217687030Y-72143628D01*
X217687030Y-72143628D02*
X217639411Y-72191247D01*
X217639411Y-72191247D02*
X217591792Y-72286485D01*
X217591792Y-72286485D02*
X217591792Y-72429342D01*
X217591792Y-72429342D02*
X217639411Y-72524580D01*
X217639411Y-72524580D02*
X217687030Y-72572200D01*
X217687030Y-72572200D02*
X217782268Y-72619819D01*
X217782268Y-72619819D02*
X218163220Y-72619819D01*
X218163220Y-72619819D02*
X218163220Y-71619819D01*
X218163220Y-71619819D02*
X217829887Y-71619819D01*
X217829887Y-71619819D02*
X217734649Y-71667438D01*
X217734649Y-71667438D02*
X217687030Y-71715057D01*
X217687030Y-71715057D02*
X217639411Y-71810295D01*
X217639411Y-71810295D02*
X217639411Y-71905533D01*
X217639411Y-71905533D02*
X217687030Y-72000771D01*
X217687030Y-72000771D02*
X217734649Y-72048390D01*
X217734649Y-72048390D02*
X217829887Y-72096009D01*
X217829887Y-72096009D02*
X218163220Y-72096009D01*
X216734649Y-72619819D02*
X216734649Y-72096009D01*
X216734649Y-72096009D02*
X216782268Y-72000771D01*
X216782268Y-72000771D02*
X216877506Y-71953152D01*
X216877506Y-71953152D02*
X217067982Y-71953152D01*
X217067982Y-71953152D02*
X217163220Y-72000771D01*
X216734649Y-72572200D02*
X216829887Y-72619819D01*
X216829887Y-72619819D02*
X217067982Y-72619819D01*
X217067982Y-72619819D02*
X217163220Y-72572200D01*
X217163220Y-72572200D02*
X217210839Y-72476961D01*
X217210839Y-72476961D02*
X217210839Y-72381723D01*
X217210839Y-72381723D02*
X217163220Y-72286485D01*
X217163220Y-72286485D02*
X217067982Y-72238866D01*
X217067982Y-72238866D02*
X216829887Y-72238866D01*
X216829887Y-72238866D02*
X216734649Y-72191247D01*
X216401315Y-71953152D02*
X216020363Y-71953152D01*
X216258458Y-71619819D02*
X216258458Y-72476961D01*
X216258458Y-72476961D02*
X216210839Y-72572200D01*
X216210839Y-72572200D02*
X216115601Y-72619819D01*
X216115601Y-72619819D02*
X216020363Y-72619819D01*
X215829886Y-71953152D02*
X215448934Y-71953152D01*
X215687029Y-71619819D02*
X215687029Y-72476961D01*
X215687029Y-72476961D02*
X215639410Y-72572200D01*
X215639410Y-72572200D02*
X215544172Y-72619819D01*
X215544172Y-72619819D02*
X215448934Y-72619819D01*
X215115600Y-72524580D02*
X215067981Y-72572200D01*
X215067981Y-72572200D02*
X215115600Y-72619819D01*
X215115600Y-72619819D02*
X215163219Y-72572200D01*
X215163219Y-72572200D02*
X215115600Y-72524580D01*
X215115600Y-72524580D02*
X215115600Y-72619819D01*
X213877505Y-72619819D02*
X213877505Y-71619819D01*
X213401315Y-71953152D02*
X213401315Y-72619819D01*
X213401315Y-72048390D02*
X213353696Y-72000771D01*
X213353696Y-72000771D02*
X213258458Y-71953152D01*
X213258458Y-71953152D02*
X213115601Y-71953152D01*
X213115601Y-71953152D02*
X213020363Y-72000771D01*
X213020363Y-72000771D02*
X212972744Y-72096009D01*
X212972744Y-72096009D02*
X212972744Y-72619819D01*
X205163220Y-70488866D02*
X204401316Y-70488866D01*
X204782268Y-70869819D02*
X204782268Y-70107914D01*
D10*
X220142231Y-77732933D02*
X218618422Y-77732933D01*
X219380326Y-78494838D02*
X219380326Y-76971028D01*
D11*
X202112295Y-60856667D02*
X201731342Y-60590000D01*
X202112295Y-60399524D02*
X201312295Y-60399524D01*
X201312295Y-60399524D02*
X201312295Y-60704286D01*
X201312295Y-60704286D02*
X201350390Y-60780476D01*
X201350390Y-60780476D02*
X201388485Y-60818571D01*
X201388485Y-60818571D02*
X201464676Y-60856667D01*
X201464676Y-60856667D02*
X201578961Y-60856667D01*
X201578961Y-60856667D02*
X201655152Y-60818571D01*
X201655152Y-60818571D02*
X201693247Y-60780476D01*
X201693247Y-60780476D02*
X201731342Y-60704286D01*
X201731342Y-60704286D02*
X201731342Y-60399524D01*
X201578961Y-61542381D02*
X202112295Y-61542381D01*
X201274200Y-61351905D02*
X201845628Y-61161428D01*
X201845628Y-61161428D02*
X201845628Y-61656667D01*
X207612295Y-60866667D02*
X207231342Y-60600000D01*
X207612295Y-60409524D02*
X206812295Y-60409524D01*
X206812295Y-60409524D02*
X206812295Y-60714286D01*
X206812295Y-60714286D02*
X206850390Y-60790476D01*
X206850390Y-60790476D02*
X206888485Y-60828571D01*
X206888485Y-60828571D02*
X206964676Y-60866667D01*
X206964676Y-60866667D02*
X207078961Y-60866667D01*
X207078961Y-60866667D02*
X207155152Y-60828571D01*
X207155152Y-60828571D02*
X207193247Y-60790476D01*
X207193247Y-60790476D02*
X207231342Y-60714286D01*
X207231342Y-60714286D02*
X207231342Y-60409524D01*
X206812295Y-61133333D02*
X206812295Y-61666667D01*
X206812295Y-61666667D02*
X207612295Y-61323809D01*
X204862295Y-59115714D02*
X204481342Y-58849047D01*
X204862295Y-58658571D02*
X204062295Y-58658571D01*
X204062295Y-58658571D02*
X204062295Y-58963333D01*
X204062295Y-58963333D02*
X204100390Y-59039523D01*
X204100390Y-59039523D02*
X204138485Y-59077618D01*
X204138485Y-59077618D02*
X204214676Y-59115714D01*
X204214676Y-59115714D02*
X204328961Y-59115714D01*
X204328961Y-59115714D02*
X204405152Y-59077618D01*
X204405152Y-59077618D02*
X204443247Y-59039523D01*
X204443247Y-59039523D02*
X204481342Y-58963333D01*
X204481342Y-58963333D02*
X204481342Y-58658571D01*
X204862295Y-59877618D02*
X204862295Y-59420475D01*
X204862295Y-59649047D02*
X204062295Y-59649047D01*
X204062295Y-59649047D02*
X204176580Y-59572856D01*
X204176580Y-59572856D02*
X204252771Y-59496666D01*
X204252771Y-59496666D02*
X204290866Y-59420475D01*
X204862295Y-60639523D02*
X204862295Y-60182380D01*
X204862295Y-60410952D02*
X204062295Y-60410952D01*
X204062295Y-60410952D02*
X204176580Y-60334761D01*
X204176580Y-60334761D02*
X204252771Y-60258571D01*
X204252771Y-60258571D02*
X204290866Y-60182380D01*
X209862295Y-60866667D02*
X209481342Y-60600000D01*
X209862295Y-60409524D02*
X209062295Y-60409524D01*
X209062295Y-60409524D02*
X209062295Y-60714286D01*
X209062295Y-60714286D02*
X209100390Y-60790476D01*
X209100390Y-60790476D02*
X209138485Y-60828571D01*
X209138485Y-60828571D02*
X209214676Y-60866667D01*
X209214676Y-60866667D02*
X209328961Y-60866667D01*
X209328961Y-60866667D02*
X209405152Y-60828571D01*
X209405152Y-60828571D02*
X209443247Y-60790476D01*
X209443247Y-60790476D02*
X209481342Y-60714286D01*
X209481342Y-60714286D02*
X209481342Y-60409524D01*
X209062295Y-61552381D02*
X209062295Y-61400000D01*
X209062295Y-61400000D02*
X209100390Y-61323809D01*
X209100390Y-61323809D02*
X209138485Y-61285714D01*
X209138485Y-61285714D02*
X209252771Y-61209524D01*
X209252771Y-61209524D02*
X209405152Y-61171428D01*
X209405152Y-61171428D02*
X209709914Y-61171428D01*
X209709914Y-61171428D02*
X209786104Y-61209524D01*
X209786104Y-61209524D02*
X209824200Y-61247619D01*
X209824200Y-61247619D02*
X209862295Y-61323809D01*
X209862295Y-61323809D02*
X209862295Y-61476190D01*
X209862295Y-61476190D02*
X209824200Y-61552381D01*
X209824200Y-61552381D02*
X209786104Y-61590476D01*
X209786104Y-61590476D02*
X209709914Y-61628571D01*
X209709914Y-61628571D02*
X209519438Y-61628571D01*
X209519438Y-61628571D02*
X209443247Y-61590476D01*
X209443247Y-61590476D02*
X209405152Y-61552381D01*
X209405152Y-61552381D02*
X209367057Y-61476190D01*
X209367057Y-61476190D02*
X209367057Y-61323809D01*
X209367057Y-61323809D02*
X209405152Y-61247619D01*
X209405152Y-61247619D02*
X209443247Y-61209524D01*
X209443247Y-61209524D02*
X209519438Y-61171428D01*
X210863332Y-56112295D02*
X211129999Y-55731342D01*
X211320475Y-56112295D02*
X211320475Y-55312295D01*
X211320475Y-55312295D02*
X211015713Y-55312295D01*
X211015713Y-55312295D02*
X210939523Y-55350390D01*
X210939523Y-55350390D02*
X210901428Y-55388485D01*
X210901428Y-55388485D02*
X210863332Y-55464676D01*
X210863332Y-55464676D02*
X210863332Y-55578961D01*
X210863332Y-55578961D02*
X210901428Y-55655152D01*
X210901428Y-55655152D02*
X210939523Y-55693247D01*
X210939523Y-55693247D02*
X211015713Y-55731342D01*
X211015713Y-55731342D02*
X211320475Y-55731342D01*
X210101428Y-56112295D02*
X210558571Y-56112295D01*
X210329999Y-56112295D02*
X210329999Y-55312295D01*
X210329999Y-55312295D02*
X210406190Y-55426580D01*
X210406190Y-55426580D02*
X210482380Y-55502771D01*
X210482380Y-55502771D02*
X210558571Y-55540866D01*
X196011904Y-79954819D02*
X196011904Y-80764342D01*
X196011904Y-80764342D02*
X195964285Y-80859580D01*
X195964285Y-80859580D02*
X195916666Y-80907200D01*
X195916666Y-80907200D02*
X195821428Y-80954819D01*
X195821428Y-80954819D02*
X195630952Y-80954819D01*
X195630952Y-80954819D02*
X195535714Y-80907200D01*
X195535714Y-80907200D02*
X195488095Y-80859580D01*
X195488095Y-80859580D02*
X195440476Y-80764342D01*
X195440476Y-80764342D02*
X195440476Y-79954819D01*
X194535714Y-80288152D02*
X194535714Y-80954819D01*
X194773809Y-79907200D02*
X195011904Y-80621485D01*
X195011904Y-80621485D02*
X194392857Y-80621485D01*
X202583333Y-76704819D02*
X202583333Y-77419104D01*
X202583333Y-77419104D02*
X202630952Y-77561961D01*
X202630952Y-77561961D02*
X202726190Y-77657200D01*
X202726190Y-77657200D02*
X202869047Y-77704819D01*
X202869047Y-77704819D02*
X202964285Y-77704819D01*
X202202380Y-76704819D02*
X201583333Y-76704819D01*
X201583333Y-76704819D02*
X201916666Y-77085771D01*
X201916666Y-77085771D02*
X201773809Y-77085771D01*
X201773809Y-77085771D02*
X201678571Y-77133390D01*
X201678571Y-77133390D02*
X201630952Y-77181009D01*
X201630952Y-77181009D02*
X201583333Y-77276247D01*
X201583333Y-77276247D02*
X201583333Y-77514342D01*
X201583333Y-77514342D02*
X201630952Y-77609580D01*
X201630952Y-77609580D02*
X201678571Y-77657200D01*
X201678571Y-77657200D02*
X201773809Y-77704819D01*
X201773809Y-77704819D02*
X202059523Y-77704819D01*
X202059523Y-77704819D02*
X202154761Y-77657200D01*
X202154761Y-77657200D02*
X202202380Y-77609580D01*
X212333333Y-78454819D02*
X212333333Y-79169104D01*
X212333333Y-79169104D02*
X212380952Y-79311961D01*
X212380952Y-79311961D02*
X212476190Y-79407200D01*
X212476190Y-79407200D02*
X212619047Y-79454819D01*
X212619047Y-79454819D02*
X212714285Y-79454819D01*
X211333333Y-79454819D02*
X211904761Y-79454819D01*
X211619047Y-79454819D02*
X211619047Y-78454819D01*
X211619047Y-78454819D02*
X211714285Y-78597676D01*
X211714285Y-78597676D02*
X211809523Y-78692914D01*
X211809523Y-78692914D02*
X211904761Y-78740533D01*
X211362295Y-60846667D02*
X210981342Y-60580000D01*
X211362295Y-60389524D02*
X210562295Y-60389524D01*
X210562295Y-60389524D02*
X210562295Y-60694286D01*
X210562295Y-60694286D02*
X210600390Y-60770476D01*
X210600390Y-60770476D02*
X210638485Y-60808571D01*
X210638485Y-60808571D02*
X210714676Y-60846667D01*
X210714676Y-60846667D02*
X210828961Y-60846667D01*
X210828961Y-60846667D02*
X210905152Y-60808571D01*
X210905152Y-60808571D02*
X210943247Y-60770476D01*
X210943247Y-60770476D02*
X210981342Y-60694286D01*
X210981342Y-60694286D02*
X210981342Y-60389524D01*
X210562295Y-61570476D02*
X210562295Y-61189524D01*
X210562295Y-61189524D02*
X210943247Y-61151428D01*
X210943247Y-61151428D02*
X210905152Y-61189524D01*
X210905152Y-61189524D02*
X210867057Y-61265714D01*
X210867057Y-61265714D02*
X210867057Y-61456190D01*
X210867057Y-61456190D02*
X210905152Y-61532381D01*
X210905152Y-61532381D02*
X210943247Y-61570476D01*
X210943247Y-61570476D02*
X211019438Y-61608571D01*
X211019438Y-61608571D02*
X211209914Y-61608571D01*
X211209914Y-61608571D02*
X211286104Y-61570476D01*
X211286104Y-61570476D02*
X211324200Y-61532381D01*
X211324200Y-61532381D02*
X211362295Y-61456190D01*
X211362295Y-61456190D02*
X211362295Y-61265714D01*
X211362295Y-61265714D02*
X211324200Y-61189524D01*
X211324200Y-61189524D02*
X211286104Y-61151428D01*
X208862295Y-63116667D02*
X208481342Y-62850000D01*
X208862295Y-62659524D02*
X208062295Y-62659524D01*
X208062295Y-62659524D02*
X208062295Y-62964286D01*
X208062295Y-62964286D02*
X208100390Y-63040476D01*
X208100390Y-63040476D02*
X208138485Y-63078571D01*
X208138485Y-63078571D02*
X208214676Y-63116667D01*
X208214676Y-63116667D02*
X208328961Y-63116667D01*
X208328961Y-63116667D02*
X208405152Y-63078571D01*
X208405152Y-63078571D02*
X208443247Y-63040476D01*
X208443247Y-63040476D02*
X208481342Y-62964286D01*
X208481342Y-62964286D02*
X208481342Y-62659524D01*
X208862295Y-63497619D02*
X208862295Y-63650000D01*
X208862295Y-63650000D02*
X208824200Y-63726190D01*
X208824200Y-63726190D02*
X208786104Y-63764286D01*
X208786104Y-63764286D02*
X208671819Y-63840476D01*
X208671819Y-63840476D02*
X208519438Y-63878571D01*
X208519438Y-63878571D02*
X208214676Y-63878571D01*
X208214676Y-63878571D02*
X208138485Y-63840476D01*
X208138485Y-63840476D02*
X208100390Y-63802381D01*
X208100390Y-63802381D02*
X208062295Y-63726190D01*
X208062295Y-63726190D02*
X208062295Y-63573809D01*
X208062295Y-63573809D02*
X208100390Y-63497619D01*
X208100390Y-63497619D02*
X208138485Y-63459524D01*
X208138485Y-63459524D02*
X208214676Y-63421428D01*
X208214676Y-63421428D02*
X208405152Y-63421428D01*
X208405152Y-63421428D02*
X208481342Y-63459524D01*
X208481342Y-63459524D02*
X208519438Y-63497619D01*
X208519438Y-63497619D02*
X208557533Y-63573809D01*
X208557533Y-63573809D02*
X208557533Y-63726190D01*
X208557533Y-63726190D02*
X208519438Y-63802381D01*
X208519438Y-63802381D02*
X208481342Y-63840476D01*
X208481342Y-63840476D02*
X208405152Y-63878571D01*
X203602295Y-60846667D02*
X203221342Y-60580000D01*
X203602295Y-60389524D02*
X202802295Y-60389524D01*
X202802295Y-60389524D02*
X202802295Y-60694286D01*
X202802295Y-60694286D02*
X202840390Y-60770476D01*
X202840390Y-60770476D02*
X202878485Y-60808571D01*
X202878485Y-60808571D02*
X202954676Y-60846667D01*
X202954676Y-60846667D02*
X203068961Y-60846667D01*
X203068961Y-60846667D02*
X203145152Y-60808571D01*
X203145152Y-60808571D02*
X203183247Y-60770476D01*
X203183247Y-60770476D02*
X203221342Y-60694286D01*
X203221342Y-60694286D02*
X203221342Y-60389524D01*
X202802295Y-61113333D02*
X202802295Y-61608571D01*
X202802295Y-61608571D02*
X203107057Y-61341905D01*
X203107057Y-61341905D02*
X203107057Y-61456190D01*
X203107057Y-61456190D02*
X203145152Y-61532381D01*
X203145152Y-61532381D02*
X203183247Y-61570476D01*
X203183247Y-61570476D02*
X203259438Y-61608571D01*
X203259438Y-61608571D02*
X203449914Y-61608571D01*
X203449914Y-61608571D02*
X203526104Y-61570476D01*
X203526104Y-61570476D02*
X203564200Y-61532381D01*
X203564200Y-61532381D02*
X203602295Y-61456190D01*
X203602295Y-61456190D02*
X203602295Y-61227619D01*
X203602295Y-61227619D02*
X203564200Y-61151428D01*
X203564200Y-61151428D02*
X203526104Y-61113333D01*
X200362295Y-60065714D02*
X199981342Y-59799047D01*
X200362295Y-59608571D02*
X199562295Y-59608571D01*
X199562295Y-59608571D02*
X199562295Y-59913333D01*
X199562295Y-59913333D02*
X199600390Y-59989523D01*
X199600390Y-59989523D02*
X199638485Y-60027618D01*
X199638485Y-60027618D02*
X199714676Y-60065714D01*
X199714676Y-60065714D02*
X199828961Y-60065714D01*
X199828961Y-60065714D02*
X199905152Y-60027618D01*
X199905152Y-60027618D02*
X199943247Y-59989523D01*
X199943247Y-59989523D02*
X199981342Y-59913333D01*
X199981342Y-59913333D02*
X199981342Y-59608571D01*
X200362295Y-60827618D02*
X200362295Y-60370475D01*
X200362295Y-60599047D02*
X199562295Y-60599047D01*
X199562295Y-60599047D02*
X199676580Y-60522856D01*
X199676580Y-60522856D02*
X199752771Y-60446666D01*
X199752771Y-60446666D02*
X199790866Y-60370475D01*
X199562295Y-61322857D02*
X199562295Y-61399047D01*
X199562295Y-61399047D02*
X199600390Y-61475238D01*
X199600390Y-61475238D02*
X199638485Y-61513333D01*
X199638485Y-61513333D02*
X199714676Y-61551428D01*
X199714676Y-61551428D02*
X199867057Y-61589523D01*
X199867057Y-61589523D02*
X200057533Y-61589523D01*
X200057533Y-61589523D02*
X200209914Y-61551428D01*
X200209914Y-61551428D02*
X200286104Y-61513333D01*
X200286104Y-61513333D02*
X200324200Y-61475238D01*
X200324200Y-61475238D02*
X200362295Y-61399047D01*
X200362295Y-61399047D02*
X200362295Y-61322857D01*
X200362295Y-61322857D02*
X200324200Y-61246666D01*
X200324200Y-61246666D02*
X200286104Y-61208571D01*
X200286104Y-61208571D02*
X200209914Y-61170476D01*
X200209914Y-61170476D02*
X200057533Y-61132380D01*
X200057533Y-61132380D02*
X199867057Y-61132380D01*
X199867057Y-61132380D02*
X199714676Y-61170476D01*
X199714676Y-61170476D02*
X199638485Y-61208571D01*
X199638485Y-61208571D02*
X199600390Y-61246666D01*
X199600390Y-61246666D02*
X199562295Y-61322857D01*
X200966104Y-75641667D02*
X201004200Y-75603571D01*
X201004200Y-75603571D02*
X201042295Y-75489286D01*
X201042295Y-75489286D02*
X201042295Y-75413095D01*
X201042295Y-75413095D02*
X201004200Y-75298809D01*
X201004200Y-75298809D02*
X200928009Y-75222619D01*
X200928009Y-75222619D02*
X200851819Y-75184524D01*
X200851819Y-75184524D02*
X200699438Y-75146428D01*
X200699438Y-75146428D02*
X200585152Y-75146428D01*
X200585152Y-75146428D02*
X200432771Y-75184524D01*
X200432771Y-75184524D02*
X200356580Y-75222619D01*
X200356580Y-75222619D02*
X200280390Y-75298809D01*
X200280390Y-75298809D02*
X200242295Y-75413095D01*
X200242295Y-75413095D02*
X200242295Y-75489286D01*
X200242295Y-75489286D02*
X200280390Y-75603571D01*
X200280390Y-75603571D02*
X200318485Y-75641667D01*
X200242295Y-75908333D02*
X200242295Y-76403571D01*
X200242295Y-76403571D02*
X200547057Y-76136905D01*
X200547057Y-76136905D02*
X200547057Y-76251190D01*
X200547057Y-76251190D02*
X200585152Y-76327381D01*
X200585152Y-76327381D02*
X200623247Y-76365476D01*
X200623247Y-76365476D02*
X200699438Y-76403571D01*
X200699438Y-76403571D02*
X200889914Y-76403571D01*
X200889914Y-76403571D02*
X200966104Y-76365476D01*
X200966104Y-76365476D02*
X201004200Y-76327381D01*
X201004200Y-76327381D02*
X201042295Y-76251190D01*
X201042295Y-76251190D02*
X201042295Y-76022619D01*
X201042295Y-76022619D02*
X201004200Y-75946428D01*
X201004200Y-75946428D02*
X200966104Y-75908333D01*
X207095238Y-65300057D02*
X207190476Y-65252438D01*
X207190476Y-65252438D02*
X207285714Y-65157200D01*
X207285714Y-65157200D02*
X207428571Y-65014342D01*
X207428571Y-65014342D02*
X207523809Y-64966723D01*
X207523809Y-64966723D02*
X207619047Y-64966723D01*
X207571428Y-65204819D02*
X207666666Y-65157200D01*
X207666666Y-65157200D02*
X207761904Y-65061961D01*
X207761904Y-65061961D02*
X207809523Y-64871485D01*
X207809523Y-64871485D02*
X207809523Y-64538152D01*
X207809523Y-64538152D02*
X207761904Y-64347676D01*
X207761904Y-64347676D02*
X207666666Y-64252438D01*
X207666666Y-64252438D02*
X207571428Y-64204819D01*
X207571428Y-64204819D02*
X207380952Y-64204819D01*
X207380952Y-64204819D02*
X207285714Y-64252438D01*
X207285714Y-64252438D02*
X207190476Y-64347676D01*
X207190476Y-64347676D02*
X207142857Y-64538152D01*
X207142857Y-64538152D02*
X207142857Y-64871485D01*
X207142857Y-64871485D02*
X207190476Y-65061961D01*
X207190476Y-65061961D02*
X207285714Y-65157200D01*
X207285714Y-65157200D02*
X207380952Y-65204819D01*
X207380952Y-65204819D02*
X207571428Y-65204819D01*
X206809523Y-64204819D02*
X206190476Y-64204819D01*
X206190476Y-64204819D02*
X206523809Y-64585771D01*
X206523809Y-64585771D02*
X206380952Y-64585771D01*
X206380952Y-64585771D02*
X206285714Y-64633390D01*
X206285714Y-64633390D02*
X206238095Y-64681009D01*
X206238095Y-64681009D02*
X206190476Y-64776247D01*
X206190476Y-64776247D02*
X206190476Y-65014342D01*
X206190476Y-65014342D02*
X206238095Y-65109580D01*
X206238095Y-65109580D02*
X206285714Y-65157200D01*
X206285714Y-65157200D02*
X206380952Y-65204819D01*
X206380952Y-65204819D02*
X206666666Y-65204819D01*
X206666666Y-65204819D02*
X206761904Y-65157200D01*
X206761904Y-65157200D02*
X206809523Y-65109580D01*
X203095238Y-65300057D02*
X203190476Y-65252438D01*
X203190476Y-65252438D02*
X203285714Y-65157200D01*
X203285714Y-65157200D02*
X203428571Y-65014342D01*
X203428571Y-65014342D02*
X203523809Y-64966723D01*
X203523809Y-64966723D02*
X203619047Y-64966723D01*
X203571428Y-65204819D02*
X203666666Y-65157200D01*
X203666666Y-65157200D02*
X203761904Y-65061961D01*
X203761904Y-65061961D02*
X203809523Y-64871485D01*
X203809523Y-64871485D02*
X203809523Y-64538152D01*
X203809523Y-64538152D02*
X203761904Y-64347676D01*
X203761904Y-64347676D02*
X203666666Y-64252438D01*
X203666666Y-64252438D02*
X203571428Y-64204819D01*
X203571428Y-64204819D02*
X203380952Y-64204819D01*
X203380952Y-64204819D02*
X203285714Y-64252438D01*
X203285714Y-64252438D02*
X203190476Y-64347676D01*
X203190476Y-64347676D02*
X203142857Y-64538152D01*
X203142857Y-64538152D02*
X203142857Y-64871485D01*
X203142857Y-64871485D02*
X203190476Y-65061961D01*
X203190476Y-65061961D02*
X203285714Y-65157200D01*
X203285714Y-65157200D02*
X203380952Y-65204819D01*
X203380952Y-65204819D02*
X203571428Y-65204819D01*
X202190476Y-65204819D02*
X202761904Y-65204819D01*
X202476190Y-65204819D02*
X202476190Y-64204819D01*
X202476190Y-64204819D02*
X202571428Y-64347676D01*
X202571428Y-64347676D02*
X202666666Y-64442914D01*
X202666666Y-64442914D02*
X202761904Y-64490533D01*
X210863332Y-54612295D02*
X211129999Y-54231342D01*
X211320475Y-54612295D02*
X211320475Y-53812295D01*
X211320475Y-53812295D02*
X211015713Y-53812295D01*
X211015713Y-53812295D02*
X210939523Y-53850390D01*
X210939523Y-53850390D02*
X210901428Y-53888485D01*
X210901428Y-53888485D02*
X210863332Y-53964676D01*
X210863332Y-53964676D02*
X210863332Y-54078961D01*
X210863332Y-54078961D02*
X210901428Y-54155152D01*
X210901428Y-54155152D02*
X210939523Y-54193247D01*
X210939523Y-54193247D02*
X211015713Y-54231342D01*
X211015713Y-54231342D02*
X211320475Y-54231342D01*
X210558571Y-53888485D02*
X210520475Y-53850390D01*
X210520475Y-53850390D02*
X210444285Y-53812295D01*
X210444285Y-53812295D02*
X210253809Y-53812295D01*
X210253809Y-53812295D02*
X210177618Y-53850390D01*
X210177618Y-53850390D02*
X210139523Y-53888485D01*
X210139523Y-53888485D02*
X210101428Y-53964676D01*
X210101428Y-53964676D02*
X210101428Y-54040866D01*
X210101428Y-54040866D02*
X210139523Y-54155152D01*
X210139523Y-54155152D02*
X210596666Y-54612295D01*
X210596666Y-54612295D02*
X210101428Y-54612295D01*
X211095238Y-65300057D02*
X211190476Y-65252438D01*
X211190476Y-65252438D02*
X211285714Y-65157200D01*
X211285714Y-65157200D02*
X211428571Y-65014342D01*
X211428571Y-65014342D02*
X211523809Y-64966723D01*
X211523809Y-64966723D02*
X211619047Y-64966723D01*
X211571428Y-65204819D02*
X211666666Y-65157200D01*
X211666666Y-65157200D02*
X211761904Y-65061961D01*
X211761904Y-65061961D02*
X211809523Y-64871485D01*
X211809523Y-64871485D02*
X211809523Y-64538152D01*
X211809523Y-64538152D02*
X211761904Y-64347676D01*
X211761904Y-64347676D02*
X211666666Y-64252438D01*
X211666666Y-64252438D02*
X211571428Y-64204819D01*
X211571428Y-64204819D02*
X211380952Y-64204819D01*
X211380952Y-64204819D02*
X211285714Y-64252438D01*
X211285714Y-64252438D02*
X211190476Y-64347676D01*
X211190476Y-64347676D02*
X211142857Y-64538152D01*
X211142857Y-64538152D02*
X211142857Y-64871485D01*
X211142857Y-64871485D02*
X211190476Y-65061961D01*
X211190476Y-65061961D02*
X211285714Y-65157200D01*
X211285714Y-65157200D02*
X211380952Y-65204819D01*
X211380952Y-65204819D02*
X211571428Y-65204819D01*
X210761904Y-64300057D02*
X210714285Y-64252438D01*
X210714285Y-64252438D02*
X210619047Y-64204819D01*
X210619047Y-64204819D02*
X210380952Y-64204819D01*
X210380952Y-64204819D02*
X210285714Y-64252438D01*
X210285714Y-64252438D02*
X210238095Y-64300057D01*
X210238095Y-64300057D02*
X210190476Y-64395295D01*
X210190476Y-64395295D02*
X210190476Y-64490533D01*
X210190476Y-64490533D02*
X210238095Y-64633390D01*
X210238095Y-64633390D02*
X210809523Y-65204819D01*
X210809523Y-65204819D02*
X210190476Y-65204819D01*
X206112295Y-60866667D02*
X205731342Y-60600000D01*
X206112295Y-60409524D02*
X205312295Y-60409524D01*
X205312295Y-60409524D02*
X205312295Y-60714286D01*
X205312295Y-60714286D02*
X205350390Y-60790476D01*
X205350390Y-60790476D02*
X205388485Y-60828571D01*
X205388485Y-60828571D02*
X205464676Y-60866667D01*
X205464676Y-60866667D02*
X205578961Y-60866667D01*
X205578961Y-60866667D02*
X205655152Y-60828571D01*
X205655152Y-60828571D02*
X205693247Y-60790476D01*
X205693247Y-60790476D02*
X205731342Y-60714286D01*
X205731342Y-60714286D02*
X205731342Y-60409524D01*
X205655152Y-61323809D02*
X205617057Y-61247619D01*
X205617057Y-61247619D02*
X205578961Y-61209524D01*
X205578961Y-61209524D02*
X205502771Y-61171428D01*
X205502771Y-61171428D02*
X205464676Y-61171428D01*
X205464676Y-61171428D02*
X205388485Y-61209524D01*
X205388485Y-61209524D02*
X205350390Y-61247619D01*
X205350390Y-61247619D02*
X205312295Y-61323809D01*
X205312295Y-61323809D02*
X205312295Y-61476190D01*
X205312295Y-61476190D02*
X205350390Y-61552381D01*
X205350390Y-61552381D02*
X205388485Y-61590476D01*
X205388485Y-61590476D02*
X205464676Y-61628571D01*
X205464676Y-61628571D02*
X205502771Y-61628571D01*
X205502771Y-61628571D02*
X205578961Y-61590476D01*
X205578961Y-61590476D02*
X205617057Y-61552381D01*
X205617057Y-61552381D02*
X205655152Y-61476190D01*
X205655152Y-61476190D02*
X205655152Y-61323809D01*
X205655152Y-61323809D02*
X205693247Y-61247619D01*
X205693247Y-61247619D02*
X205731342Y-61209524D01*
X205731342Y-61209524D02*
X205807533Y-61171428D01*
X205807533Y-61171428D02*
X205959914Y-61171428D01*
X205959914Y-61171428D02*
X206036104Y-61209524D01*
X206036104Y-61209524D02*
X206074200Y-61247619D01*
X206074200Y-61247619D02*
X206112295Y-61323809D01*
X206112295Y-61323809D02*
X206112295Y-61476190D01*
X206112295Y-61476190D02*
X206074200Y-61552381D01*
X206074200Y-61552381D02*
X206036104Y-61590476D01*
X206036104Y-61590476D02*
X205959914Y-61628571D01*
X205959914Y-61628571D02*
X205807533Y-61628571D01*
X205807533Y-61628571D02*
X205731342Y-61590476D01*
X205731342Y-61590476D02*
X205693247Y-61552381D01*
X205693247Y-61552381D02*
X205655152Y-61476190D01*
D13*
%TO.C,R4*%
X201370000Y-62586359D02*
X201370000Y-62893641D01*
X202130000Y-62586359D02*
X202130000Y-62893641D01*
%TO.C,R7*%
X206870000Y-62586359D02*
X206870000Y-62893641D01*
X207630000Y-62586359D02*
X207630000Y-62893641D01*
%TO.C,R11*%
X204120000Y-61893641D02*
X204120000Y-61586359D01*
X204880000Y-61893641D02*
X204880000Y-61586359D01*
%TO.C,R6*%
X209120000Y-62586359D02*
X209120000Y-62893641D01*
X209880000Y-62586359D02*
X209880000Y-62893641D01*
%TO.C,R1*%
X208336359Y-55370000D02*
X208643641Y-55370000D01*
X208336359Y-56130000D02*
X208643641Y-56130000D01*
%TO.C,U4*%
X194425000Y-74275000D02*
X194425000Y-74775000D01*
X194425000Y-78975000D02*
X194425000Y-79475000D01*
X194425000Y-79475000D02*
X194925000Y-79475000D01*
X194925000Y-74275000D02*
X194425000Y-74275000D01*
X197225000Y-79475000D02*
X197725000Y-79475000D01*
X197425000Y-74275000D02*
X196675000Y-74275000D01*
X197725000Y-79475000D02*
X197725000Y-78975000D01*
X197985000Y-74275000D02*
X197625000Y-74275000D01*
X197625000Y-73915000D01*
X197985000Y-74275000D01*
G36*
X197985000Y-74275000D02*
G01*
X197625000Y-74275000D01*
X197625000Y-73915000D01*
X197985000Y-74275000D01*
G37*
%TO.C,J3*%
X203380000Y-71280000D02*
X203380000Y-77720000D01*
X203380000Y-71900000D02*
X203970000Y-71900000D01*
X203380000Y-77200000D02*
X209160000Y-77200000D01*
X203380000Y-77720000D02*
X209160000Y-77720000D01*
X203970000Y-71280000D02*
X203380000Y-71280000D01*
X206030000Y-71900000D02*
X206510000Y-71900000D01*
X206510000Y-71280000D02*
X206030000Y-71280000D01*
X208570000Y-71900000D02*
X209160000Y-71900000D01*
X209160000Y-71280000D02*
X208570000Y-71280000D01*
X209160000Y-77720000D02*
X209160000Y-71280000D01*
%TO.C,J1*%
X213090000Y-73440000D02*
X217810000Y-73440000D01*
X213090000Y-79560000D02*
X213090000Y-73440000D01*
X213700000Y-74050000D02*
X217200000Y-74050000D01*
X213700000Y-76500000D02*
X214200000Y-76500000D01*
X213700000Y-76600000D02*
X214200000Y-76600000D01*
X213700000Y-78950000D02*
X213700000Y-74050000D01*
X214200000Y-76400000D02*
X213700000Y-76400000D01*
X214200000Y-76600000D02*
X214200000Y-76400000D01*
X215200000Y-73440000D02*
X215200000Y-74050000D01*
X215200000Y-79560000D02*
X215200000Y-78950000D01*
X216500000Y-73440000D02*
X216500000Y-74050000D01*
X216500000Y-79560000D02*
X216500000Y-78950000D01*
X217200000Y-74050000D02*
X217200000Y-76000000D01*
X217200000Y-76000000D02*
X217810000Y-76000000D01*
X217200000Y-77000000D02*
X217200000Y-78950000D01*
X217200000Y-78950000D02*
X213700000Y-78950000D01*
X217810000Y-73440000D02*
X217810000Y-79560000D01*
X217810000Y-77000000D02*
X217200000Y-77000000D01*
X217810000Y-77800000D02*
X218010000Y-77800000D01*
X217810000Y-79560000D02*
X213090000Y-79560000D01*
X217910000Y-77800000D02*
X217910000Y-78100000D01*
X218010000Y-77800000D02*
X218010000Y-78100000D01*
X218010000Y-78100000D02*
X217810000Y-78100000D01*
X218110000Y-78610000D02*
X218110000Y-79860000D01*
X218110000Y-79860000D02*
X216860000Y-79860000D01*
%TO.C,R5*%
X210620000Y-62586359D02*
X210620000Y-62893641D01*
X211380000Y-62586359D02*
X211380000Y-62893641D01*
%TO.C,R9*%
X209143641Y-64120000D02*
X208836359Y-64120000D01*
X209143641Y-64880000D02*
X208836359Y-64880000D01*
%TO.C,R3*%
X202860000Y-62586359D02*
X202860000Y-62893641D01*
X203620000Y-62586359D02*
X203620000Y-62893641D01*
%TO.C,R10*%
X199620000Y-62893641D02*
X199620000Y-62586359D01*
X200380000Y-62893641D02*
X200380000Y-62586359D01*
%TO.C,C3*%
X198740000Y-75915580D02*
X198740000Y-75634420D01*
X199760000Y-75915580D02*
X199760000Y-75634420D01*
%TO.C,Q3*%
X204710000Y-68650000D02*
X204710000Y-66800000D01*
X204710000Y-68650000D02*
X205600000Y-68650000D01*
X206940000Y-68635000D02*
X207830000Y-68635000D01*
X207830000Y-68635000D02*
X207830000Y-66785000D01*
X204700000Y-66410000D02*
X204370000Y-66650000D01*
X204370000Y-66170000D01*
X204700000Y-66410000D01*
G36*
X204700000Y-66410000D02*
G01*
X204370000Y-66650000D01*
X204370000Y-66170000D01*
X204700000Y-66410000D01*
G37*
%TO.C,Q1*%
X200710000Y-68650000D02*
X200710000Y-66800000D01*
X200710000Y-68650000D02*
X201600000Y-68650000D01*
X202940000Y-68635000D02*
X203830000Y-68635000D01*
X203830000Y-68635000D02*
X203830000Y-66785000D01*
X200700000Y-66410000D02*
X200370000Y-66650000D01*
X200370000Y-66170000D01*
X200700000Y-66410000D01*
G36*
X200700000Y-66410000D02*
G01*
X200370000Y-66650000D01*
X200370000Y-66170000D01*
X200700000Y-66410000D01*
G37*
%TO.C,R2*%
X208336359Y-53870000D02*
X208643641Y-53870000D01*
X208336359Y-54630000D02*
X208643641Y-54630000D01*
%TO.C,Q2*%
X208710000Y-68650000D02*
X208710000Y-66800000D01*
X208710000Y-68650000D02*
X209600000Y-68650000D01*
X210940000Y-68635000D02*
X211830000Y-68635000D01*
X211830000Y-68635000D02*
X211830000Y-66785000D01*
X208700000Y-66410000D02*
X208370000Y-66650000D01*
X208370000Y-66170000D01*
X208700000Y-66410000D01*
G36*
X208700000Y-66410000D02*
G01*
X208370000Y-66650000D01*
X208370000Y-66170000D01*
X208700000Y-66410000D01*
G37*
%TO.C,R8*%
X205370000Y-62586359D02*
X205370000Y-62893641D01*
X206130000Y-62586359D02*
X206130000Y-62893641D01*
%TD*%
M02*
