%TF.GenerationSoftware,KiCad,Pcbnew,9.0.7*%
%TF.CreationDate,2026-03-06T18:27:08-05:00*%
%TF.ProjectId,Untitled,556e7469-746c-4656-942e-6b696361645f,rev?*%
%TF.SameCoordinates,Original*%
%TF.FileFunction,Copper,L2,Bot*%
%TF.FilePolarity,Positive*%
%FSLAX46Y46*%
G04 Gerber Fmt 4.6, Leading zero omitted, Abs format (unit mm)*
G04 Created by KiCad (PCBNEW 9.0.7) date 2026-03-06 18:27:08*
%MOMM*%
%LPD*%
G01*
G04 APERTURE LIST*
G04 Aperture macros list*
%AMRoundRect*
0 Rectangle with rounded corners*
0 $1 Rounding radius*
0 $2 $3 $4 $5 $6 $7 $8 $9 X,Y pos of 4 corners*
0 Add a 4 corners polygon primitive as box body*
4,1,4,$2,$3,$4,$5,$6,$7,$8,$9,$2,$3,0*
0 Add four circle primitives for the rounded corners*
1,1,$1+$1,$2,$3*
1,1,$1+$1,$4,$5*
1,1,$1+$1,$6,$7*
1,1,$1+$1,$8,$9*
0 Add four rect primitives between the rounded corners*
20,1,$1+$1,$2,$3,$4,$5,0*
20,1,$1+$1,$4,$5,$6,$7,0*
20,1,$1+$1,$6,$7,$8,$9,0*
20,1,$1+$1,$8,$9,$2,$3,0*%
G04 Aperture macros list end*
%TA.AperFunction,ComponentPad*%
%ADD10RoundRect,0.249999X-0.850001X-0.850001X0.850001X-0.850001X0.850001X0.850001X-0.850001X0.850001X0*%
%TD*%
%TA.AperFunction,ComponentPad*%
%ADD11C,2.200000*%
%TD*%
%TA.AperFunction,ComponentPad*%
%ADD12C,1.524000*%
%TD*%
%TA.AperFunction,SMDPad,CuDef*%
%ADD13RoundRect,0.135000X-0.185000X0.135000X-0.185000X-0.135000X0.185000X-0.135000X0.185000X0.135000X0*%
%TD*%
%TA.AperFunction,SMDPad,CuDef*%
%ADD14RoundRect,0.135000X0.185000X-0.135000X0.185000X0.135000X-0.185000X0.135000X-0.185000X-0.135000X0*%
%TD*%
%TA.AperFunction,SMDPad,CuDef*%
%ADD15RoundRect,0.135000X-0.135000X-0.185000X0.135000X-0.185000X0.135000X0.185000X-0.135000X0.185000X0*%
%TD*%
%TA.AperFunction,SMDPad,CuDef*%
%ADD16R,0.950000X0.550000*%
%TD*%
%TA.AperFunction,ComponentPad*%
%ADD17RoundRect,0.250000X0.625000X-0.350000X0.625000X0.350000X-0.625000X0.350000X-0.625000X-0.350000X0*%
%TD*%
%TA.AperFunction,ComponentPad*%
%ADD18O,1.750000X1.200000*%
%TD*%
%TA.AperFunction,SMDPad,CuDef*%
%ADD19RoundRect,0.135000X0.135000X0.185000X-0.135000X0.185000X-0.135000X-0.185000X0.135000X-0.185000X0*%
%TD*%
%TA.AperFunction,SMDPad,CuDef*%
%ADD20RoundRect,0.225000X0.250000X-0.225000X0.250000X0.225000X-0.250000X0.225000X-0.250000X-0.225000X0*%
%TD*%
%TA.AperFunction,SMDPad,CuDef*%
%ADD21RoundRect,0.162500X-0.162500X0.447500X-0.162500X-0.447500X0.162500X-0.447500X0.162500X0.447500X0*%
%TD*%
%TA.AperFunction,ViaPad*%
%ADD22C,0.600000*%
%TD*%
%TA.AperFunction,ViaPad*%
%ADD23C,0.750000*%
%TD*%
%TA.AperFunction,Conductor*%
%ADD24C,0.300000*%
%TD*%
%TA.AperFunction,Conductor*%
%ADD25C,0.500000*%
%TD*%
%TA.AperFunction,Conductor*%
%ADD26C,0.200000*%
%TD*%
G04 APERTURE END LIST*
D10*
%TO.P,J2,1,Pin_1*%
%TO.N,+BATT*%
X202420000Y-79367500D03*
D11*
%TO.P,J2,2,Pin_2*%
%TO.N,/APPO*%
X204960000Y-79367500D03*
%TO.P,J2,3,Pin_3*%
%TO.N,+BATT*%
X207500000Y-79367500D03*
%TO.P,J2,4,Pin_4*%
%TO.N,/MAIN*%
X210040000Y-79367500D03*
%TD*%
D12*
%TO.P,U1,1,GPIO1_A0_D0*%
%TO.N,/CONT 3*%
X198500000Y-54500000D03*
%TO.P,U1,2,GPIO2_A1_D1*%
%TO.N,/IGNIT 3*%
X198500000Y-57040000D03*
%TO.P,U1,3,GPIO3_A2_D2*%
%TO.N,/CONT 1*%
X198500000Y-59580000D03*
%TO.P,U1,4,GPIO4_A3_D3*%
%TO.N,/IGNIT 1*%
X198500000Y-62120000D03*
%TO.P,U1,5,GPIO5_A4_D4_SDA*%
%TO.N,/SDA*%
X198500000Y-64660000D03*
%TO.P,U1,6,GPIO6_A5_D5_SCL*%
%TO.N,/SCL*%
X198500000Y-67200000D03*
%TO.P,U1,7,GPIO43_A6_D6_TX*%
%TO.N,unconnected-(U1-GPIO43_A6_D6_TX-Pad7)_1*%
X198500000Y-69740000D03*
%TO.P,U1,8,GPIO44_D7_RX*%
%TO.N,unconnected-(U1-GPIO44_D7_RX-Pad8)_1*%
X213740000Y-69740000D03*
%TO.P,U1,9,GPIO7_A8_D8_SCK*%
%TO.N,unconnected-(U1-GPIO7_A8_D8_SCK-Pad9)_1*%
X213740000Y-67200000D03*
%TO.P,U1,10,GPIO8_A9_D9_MISO*%
%TO.N,/IGNIT 2*%
X213740000Y-64660000D03*
%TO.P,U1,11,GPIO9_A10_D10_MOSI*%
%TO.N,/CONT 2*%
X213740000Y-62120000D03*
%TO.P,U1,12,3V3*%
%TO.N,+3.3V*%
X213740000Y-59580000D03*
%TO.P,U1,13,GND*%
%TO.N,-BATT*%
X213740000Y-57040000D03*
%TO.P,U1,14,5V*%
%TO.N,+BATT*%
X213740000Y-54500000D03*
%TD*%
D13*
%TO.P,R4,1*%
%TO.N,/CONT 1*%
X201750000Y-62230000D03*
%TO.P,R4,2*%
%TO.N,/APPO*%
X201750000Y-63250000D03*
%TD*%
%TO.P,R7,1*%
%TO.N,/CONT 3*%
X207250000Y-62230000D03*
%TO.P,R7,2*%
%TO.N,-BATT*%
X207250000Y-63250000D03*
%TD*%
D14*
%TO.P,R11,1*%
%TO.N,/IGNIT 3*%
X204500000Y-62250000D03*
%TO.P,R11,2*%
%TO.N,-BATT*%
X204500000Y-61230000D03*
%TD*%
D13*
%TO.P,R6,1*%
%TO.N,/CONT 2*%
X209500000Y-62230000D03*
%TO.P,R6,2*%
%TO.N,/MAIN*%
X209500000Y-63250000D03*
%TD*%
D15*
%TO.P,R1,1*%
%TO.N,/SCL*%
X207980000Y-55750000D03*
%TO.P,R1,2*%
%TO.N,+3.3V*%
X209000000Y-55750000D03*
%TD*%
D16*
%TO.P,U4,1,VDD*%
%TO.N,+3.3V*%
X197150000Y-75000000D03*
%TO.P,U4,2,PS*%
X197150000Y-76250000D03*
%TO.P,U4,3,GND*%
%TO.N,-BATT*%
X197150000Y-77500000D03*
%TO.P,U4,4,CSB*%
X197150000Y-78750000D03*
%TO.P,U4,5,CSB*%
X195000000Y-78750000D03*
%TO.P,U4,6,SDO*%
%TO.N,unconnected-(U4-SDO-Pad6)*%
X195000000Y-77500000D03*
%TO.P,U4,7,SDI/SDA*%
%TO.N,/SDA*%
X195000000Y-76250000D03*
%TO.P,U4,8,SCLK*%
%TO.N,/SCL*%
X195000000Y-75000000D03*
%TD*%
D10*
%TO.P,J3,1,Pin_1*%
%TO.N,+BATT*%
X205000000Y-74500000D03*
D11*
%TO.P,J3,2,Pin_2*%
%TO.N,/MOTOR*%
X207540000Y-74500000D03*
%TD*%
D17*
%TO.P,J1,1,Pin_1*%
%TO.N,+BATT*%
X216000000Y-77500000D03*
D18*
%TO.P,J1,2,Pin_2*%
%TO.N,-BATT*%
X216000000Y-75500000D03*
%TD*%
D13*
%TO.P,R5,1*%
%TO.N,/CONT 2*%
X211000000Y-62230000D03*
%TO.P,R5,2*%
%TO.N,-BATT*%
X211000000Y-63250000D03*
%TD*%
D19*
%TO.P,R9,1*%
%TO.N,/IGNIT 2*%
X209500000Y-64500000D03*
%TO.P,R9,2*%
%TO.N,-BATT*%
X208480000Y-64500000D03*
%TD*%
D13*
%TO.P,R3,1*%
%TO.N,/CONT 1*%
X203240000Y-62230000D03*
%TO.P,R3,2*%
%TO.N,-BATT*%
X203240000Y-63250000D03*
%TD*%
D14*
%TO.P,R10,1*%
%TO.N,/IGNIT 1*%
X200000000Y-63250000D03*
%TO.P,R10,2*%
%TO.N,-BATT*%
X200000000Y-62230000D03*
%TD*%
D20*
%TO.P,C3,1*%
%TO.N,-BATT*%
X199250000Y-76550000D03*
%TO.P,C3,2*%
%TO.N,+3.3V*%
X199250000Y-75000000D03*
%TD*%
D21*
%TO.P,Q3,1,D*%
%TO.N,/MOTOR*%
X206250000Y-69000000D03*
%TO.P,Q3,2,G*%
%TO.N,/IGNIT 3*%
X205300000Y-66380000D03*
%TO.P,Q3,3,S*%
%TO.N,-BATT*%
X207200000Y-66380000D03*
%TD*%
%TO.P,Q1,1,D*%
%TO.N,/APPO*%
X202250000Y-69000000D03*
%TO.P,Q1,2,G*%
%TO.N,/IGNIT 1*%
X201300000Y-66380000D03*
%TO.P,Q1,3,S*%
%TO.N,-BATT*%
X203200000Y-66380000D03*
%TD*%
D15*
%TO.P,R2,1*%
%TO.N,/SDA*%
X207980000Y-54250000D03*
%TO.P,R2,2*%
%TO.N,+3.3V*%
X209000000Y-54250000D03*
%TD*%
D21*
%TO.P,Q2,1,D*%
%TO.N,/MAIN*%
X210250000Y-69000000D03*
%TO.P,Q2,2,G*%
%TO.N,/IGNIT 2*%
X209300000Y-66380000D03*
%TO.P,Q2,3,S*%
%TO.N,-BATT*%
X211200000Y-66380000D03*
%TD*%
D13*
%TO.P,R8,1*%
%TO.N,/CONT 3*%
X205750000Y-62230000D03*
%TO.P,R8,2*%
%TO.N,/MOTOR*%
X205750000Y-63250000D03*
%TD*%
D22*
%TO.N,+3.3V*%
X192750000Y-73750000D03*
X196000000Y-75750000D03*
%TO.N,-BATT*%
X203600000Y-60400000D03*
D23*
X203200000Y-67500000D03*
X207900000Y-59300000D03*
D22*
X200800000Y-62800000D03*
X194750000Y-72500000D03*
X193250000Y-78000000D03*
%TO.N,/IGNIT 2*%
X209650000Y-67500000D03*
X211250000Y-74000000D03*
%TO.N,/CONT 2*%
X210250000Y-60000000D03*
X211250000Y-75000000D03*
%TD*%
D24*
%TO.N,+3.3V*%
X206750000Y-52000000D02*
X197250000Y-52000000D01*
X209000000Y-54250000D02*
X206750000Y-52000000D01*
X209000000Y-55750000D02*
X209000000Y-54250000D01*
X213740000Y-59580000D02*
X214853000Y-58467000D01*
X196000000Y-75750000D02*
X196400000Y-75750000D01*
X195717660Y-53532340D02*
X195717660Y-70282340D01*
X197150000Y-75000000D02*
X199250000Y-75000000D01*
X196650000Y-75750000D02*
X197150000Y-76250000D01*
X195717660Y-70282340D02*
X192750000Y-73250000D01*
X214853000Y-58467000D02*
X214853000Y-56353000D01*
X196400000Y-75750000D02*
X197150000Y-75000000D01*
X192750000Y-73250000D02*
X192750000Y-73750000D01*
X214853000Y-56353000D02*
X214250000Y-55750000D01*
X214250000Y-55750000D02*
X209000000Y-55750000D01*
X196000000Y-75750000D02*
X196650000Y-75750000D01*
X197250000Y-52000000D02*
X195717660Y-53532340D01*
D25*
%TO.N,-BATT*%
X207200000Y-66380000D02*
X207200000Y-66300000D01*
D24*
X195000000Y-78750000D02*
X197150000Y-78750000D01*
X204430000Y-61230000D02*
X203600000Y-60400000D01*
D25*
X212250000Y-66250000D02*
X212120000Y-66380000D01*
D26*
X211000000Y-63250000D02*
X211000000Y-66180000D01*
D25*
X208670000Y-58530000D02*
X207900000Y-59300000D01*
X207200000Y-66300000D02*
X208400000Y-65100000D01*
X210370000Y-58530000D02*
X212250000Y-58530000D01*
D26*
X211000000Y-66180000D02*
X211200000Y-66380000D01*
D24*
X194750000Y-72500000D02*
X193773000Y-73477000D01*
X193773000Y-77523000D02*
X193727000Y-77523000D01*
D25*
X212250000Y-64500000D02*
X212250000Y-66250000D01*
X208400000Y-60500000D02*
X210370000Y-58530000D01*
X212120000Y-66380000D02*
X211200000Y-66380000D01*
D26*
X200000000Y-62230000D02*
X200230000Y-62230000D01*
X203250000Y-63270000D02*
X203250000Y-66330000D01*
D25*
X210370000Y-58530000D02*
X208670000Y-58530000D01*
D26*
X204500000Y-61230000D02*
X204430000Y-61230000D01*
D25*
X212250000Y-64500000D02*
X212250000Y-58530000D01*
D24*
X200230000Y-62230000D02*
X200800000Y-62800000D01*
D25*
X212250000Y-58530000D02*
X213740000Y-57040000D01*
D24*
X193727000Y-77523000D02*
X193250000Y-78000000D01*
D26*
X203250000Y-66330000D02*
X203200000Y-66380000D01*
D24*
X197150000Y-77500000D02*
X198300000Y-77500000D01*
X193773000Y-77523000D02*
X195000000Y-78750000D01*
D26*
X207250000Y-66330000D02*
X207200000Y-66380000D01*
D25*
X208400000Y-65100000D02*
X208400000Y-60500000D01*
D24*
X198300000Y-77500000D02*
X199250000Y-76550000D01*
X197150000Y-77500000D02*
X197150000Y-78750000D01*
D25*
X203200000Y-67500000D02*
X203200000Y-66380000D01*
D24*
X193773000Y-73477000D02*
X193773000Y-77523000D01*
D26*
X207250000Y-63250000D02*
X207250000Y-66330000D01*
D24*
%TO.N,/APPO*%
X204960000Y-79367500D02*
X204960000Y-78960000D01*
X204960000Y-78960000D02*
X202250000Y-76250000D01*
D26*
X202250000Y-63750000D02*
X202250000Y-69000000D01*
D24*
X202250000Y-76250000D02*
X202250000Y-69000000D01*
D26*
X201750000Y-63250000D02*
X202250000Y-63750000D01*
%TO.N,/MAIN*%
X209500000Y-63250000D02*
X210250000Y-64000000D01*
X210250000Y-64000000D02*
X210250000Y-69000000D01*
D24*
X210250000Y-79157500D02*
X210040000Y-79367500D01*
X210250000Y-69000000D02*
X210250000Y-79157500D01*
D25*
%TO.N,/MOTOR*%
X207540000Y-74500000D02*
X207540000Y-70290000D01*
D26*
X206250000Y-63750000D02*
X206250000Y-69000000D01*
X205750000Y-63250000D02*
X206250000Y-63750000D01*
D25*
X207540000Y-70290000D02*
X206250000Y-69000000D01*
D26*
%TO.N,/IGNIT 1*%
X198870000Y-62120000D02*
X200000000Y-63250000D01*
X200000000Y-63250000D02*
X201300000Y-64550000D01*
X201300000Y-64550000D02*
X201300000Y-66380000D01*
X198500000Y-62120000D02*
X198870000Y-62120000D01*
%TO.N,/IGNIT 2*%
X211250000Y-74000000D02*
X215000000Y-70250000D01*
X215000000Y-65250000D02*
X214410000Y-64660000D01*
X209500000Y-66180000D02*
X209300000Y-66380000D01*
X209600000Y-67500000D02*
X209300000Y-67200000D01*
X215000000Y-70250000D02*
X215000000Y-65250000D01*
X209500000Y-64500000D02*
X209500000Y-66180000D01*
X209300000Y-67200000D02*
X209300000Y-66380000D01*
X214410000Y-64660000D02*
X213740000Y-64660000D01*
X209650000Y-67500000D02*
X209600000Y-67500000D01*
%TO.N,/IGNIT 3*%
X204975000Y-66055000D02*
X205300000Y-66380000D01*
X198500000Y-57040000D02*
X199238340Y-57040000D01*
X199238340Y-57040000D02*
X204975000Y-62776660D01*
X204975000Y-62776660D02*
X204975000Y-66055000D01*
%TO.N,/SCL*%
X197250000Y-68450000D02*
X198500000Y-67200000D01*
X197250000Y-72750000D02*
X197250000Y-68450000D01*
X197998345Y-53250000D02*
X197250000Y-53998345D01*
X197250000Y-53998345D02*
X197250000Y-62787310D01*
X205480000Y-53250000D02*
X197998345Y-53250000D01*
X200000000Y-64500000D02*
X200000000Y-65700000D01*
X207980000Y-55750000D02*
X205480000Y-53250000D01*
X195000000Y-75000000D02*
X197250000Y-72750000D01*
X197962690Y-63500000D02*
X199000000Y-63500000D01*
X197250000Y-62787310D02*
X197962690Y-63500000D01*
X199000000Y-63500000D02*
X200000000Y-64500000D01*
X200000000Y-65700000D02*
X198500000Y-67200000D01*
%TO.N,/SDA*%
X207980000Y-54250000D02*
X206330000Y-52600000D01*
X194224000Y-75474000D02*
X194224000Y-74476340D01*
X196500000Y-63250000D02*
X197910000Y-64660000D01*
X197650000Y-52600000D02*
X196500000Y-53750000D01*
X206330000Y-52600000D02*
X197650000Y-52600000D01*
X197910000Y-64660000D02*
X198500000Y-64660000D01*
X195000000Y-76250000D02*
X194224000Y-75474000D01*
X196500000Y-66660000D02*
X198500000Y-64660000D01*
X196500000Y-72200340D02*
X196500000Y-66660000D01*
X196500000Y-53750000D02*
X196500000Y-63250000D01*
X194224000Y-74476340D02*
X196500000Y-72200340D01*
%TO.N,/CONT 1*%
X201750000Y-62230000D02*
X201150000Y-62230000D01*
X201750000Y-62230000D02*
X203240000Y-62230000D01*
X201150000Y-62230000D02*
X198500000Y-59580000D01*
%TO.N,/CONT 2*%
X210250000Y-62000000D02*
X210230000Y-62000000D01*
X210500000Y-62230000D02*
X211000000Y-62230000D01*
X209500000Y-62230000D02*
X210000000Y-62230000D01*
X211250000Y-75000000D02*
X215750000Y-70500000D01*
X210250000Y-62230000D02*
X210500000Y-62230000D01*
X210270000Y-62000000D02*
X210500000Y-62230000D01*
X210250000Y-62230000D02*
X210250000Y-62000000D01*
X215750000Y-64130000D02*
X213740000Y-62120000D01*
X210230000Y-62000000D02*
X210000000Y-62230000D01*
X210000000Y-62230000D02*
X210250000Y-62230000D01*
X210250000Y-62000000D02*
X210250000Y-60000000D01*
X215750000Y-70500000D02*
X215750000Y-64130000D01*
X210250000Y-62000000D02*
X210270000Y-62000000D01*
%TO.N,/CONT 3*%
X198750000Y-54500000D02*
X198500000Y-54500000D01*
X205750000Y-62230000D02*
X207250000Y-62230000D01*
X205750000Y-61500000D02*
X198750000Y-54500000D01*
X205750000Y-62230000D02*
X205750000Y-61500000D01*
%TD*%
%TA.AperFunction,Conductor*%
%TO.N,-BATT*%
G36*
X206808121Y-49538407D02*
G01*
X206813704Y-49538658D01*
X207624486Y-49593772D01*
X207630021Y-49594276D01*
X208437423Y-49686217D01*
X208442991Y-49686980D01*
X209116443Y-49794898D01*
X209245318Y-49815550D01*
X209250868Y-49816569D01*
X209263232Y-49819132D01*
X210046556Y-49981516D01*
X210052001Y-49982774D01*
X210839376Y-50183755D01*
X210844760Y-50185261D01*
X211622171Y-50421854D01*
X211627475Y-50423601D01*
X212367370Y-50686111D01*
X212393312Y-50695315D01*
X212398580Y-50697320D01*
X213151239Y-51003586D01*
X213156364Y-51005809D01*
X213894320Y-51346004D01*
X213899387Y-51348481D01*
X213949669Y-51374497D01*
X214621085Y-51721889D01*
X214626037Y-51724596D01*
X215329988Y-52130446D01*
X215334808Y-52133373D01*
X215701525Y-52367649D01*
X216019563Y-52570826D01*
X216024248Y-52573971D01*
X216435795Y-52864070D01*
X216479248Y-52918784D01*
X216488353Y-52965209D01*
X216499291Y-59378210D01*
X216499500Y-59500487D01*
X216499500Y-59651252D01*
X216535963Y-59951551D01*
X216578200Y-60122915D01*
X216608358Y-60245272D01*
X216715628Y-60528117D01*
X216856206Y-60795964D01*
X216856212Y-60795973D01*
X217028047Y-61044921D01*
X217028052Y-61044927D01*
X217228646Y-61271351D01*
X217228648Y-61271353D01*
X217455072Y-61471947D01*
X217455078Y-61471952D01*
X217585113Y-61561708D01*
X217683327Y-61629500D01*
X217704026Y-61643787D01*
X217704035Y-61643793D01*
X217971882Y-61784371D01*
X218254727Y-61891641D01*
X218254731Y-61891642D01*
X218254734Y-61891643D01*
X218548449Y-61964037D01*
X218799661Y-61994539D01*
X218848746Y-62000500D01*
X218848748Y-62000500D01*
X218934108Y-62000500D01*
X223044789Y-62000500D01*
X223111828Y-62020185D01*
X223157583Y-62072989D01*
X223162843Y-62086565D01*
X223239988Y-62326697D01*
X223241373Y-62331318D01*
X223428159Y-63001170D01*
X223429364Y-63005841D01*
X223589950Y-63682433D01*
X223590973Y-63687147D01*
X223647057Y-63972407D01*
X223704927Y-64266757D01*
X223721604Y-64351579D01*
X223715222Y-64421156D01*
X223672236Y-64476238D01*
X223606295Y-64499337D01*
X223599933Y-64499500D01*
X220951491Y-64499500D01*
X220616618Y-64537231D01*
X220616602Y-64537233D01*
X220288046Y-64612223D01*
X220288034Y-64612227D01*
X219969945Y-64723532D01*
X219666316Y-64869752D01*
X219380962Y-65049053D01*
X219117477Y-65259174D01*
X218879174Y-65497477D01*
X218669053Y-65760962D01*
X218489752Y-66046316D01*
X218343532Y-66349945D01*
X218232227Y-66668034D01*
X218232223Y-66668046D01*
X218157233Y-66996602D01*
X218157231Y-66996618D01*
X218119500Y-67331491D01*
X218119500Y-67668508D01*
X218157231Y-68003381D01*
X218157233Y-68003397D01*
X218232223Y-68331953D01*
X218232227Y-68331965D01*
X218343532Y-68650054D01*
X218489752Y-68953683D01*
X218489754Y-68953686D01*
X218669054Y-69239039D01*
X218682076Y-69255368D01*
X218878038Y-69501098D01*
X218879175Y-69502523D01*
X219117477Y-69740825D01*
X219380961Y-69950946D01*
X219666314Y-70130246D01*
X219969949Y-70276469D01*
X220208848Y-70360063D01*
X220288034Y-70387772D01*
X220288046Y-70387776D01*
X220616606Y-70462767D01*
X220951492Y-70500499D01*
X220951493Y-70500500D01*
X220951496Y-70500500D01*
X221054108Y-70500500D01*
X223567577Y-70500500D01*
X223585622Y-70505798D01*
X223604426Y-70506102D01*
X223618451Y-70515438D01*
X223634616Y-70520185D01*
X223646930Y-70534396D01*
X223662587Y-70544819D01*
X223669338Y-70560256D01*
X223680371Y-70572989D01*
X223683047Y-70591603D01*
X223690583Y-70608834D01*
X223690073Y-70640464D01*
X223690315Y-70642147D01*
X223690014Y-70644123D01*
X223690014Y-70644124D01*
X223672931Y-70750709D01*
X223671892Y-70756353D01*
X223503579Y-71565015D01*
X223502280Y-71570605D01*
X223296720Y-72370639D01*
X223295163Y-72376164D01*
X223052808Y-73165808D01*
X223050998Y-73171254D01*
X222772352Y-73948863D01*
X222770291Y-73954220D01*
X222455972Y-74718075D01*
X222453666Y-74723331D01*
X222104325Y-75471846D01*
X222101778Y-75476989D01*
X221718176Y-76208536D01*
X221715393Y-76213556D01*
X221298367Y-76926537D01*
X221295356Y-76931423D01*
X220845762Y-77624375D01*
X220842527Y-77629117D01*
X220361357Y-78300511D01*
X220357907Y-78305097D01*
X219846173Y-78953520D01*
X219842514Y-78957942D01*
X219574410Y-79267093D01*
X219350748Y-79524999D01*
X219301354Y-79581955D01*
X219297494Y-79586203D01*
X218728002Y-80184542D01*
X218723949Y-80188607D01*
X218127411Y-80759921D01*
X218123176Y-80763794D01*
X217500811Y-81306918D01*
X217496400Y-81310591D01*
X216849584Y-81824320D01*
X216845008Y-81827785D01*
X216175105Y-82311038D01*
X216170374Y-82314287D01*
X215478831Y-82766021D01*
X215473954Y-82769048D01*
X214762254Y-83188293D01*
X214757243Y-83191091D01*
X214026889Y-83576961D01*
X214021753Y-83579524D01*
X213274325Y-83931185D01*
X213269077Y-83933507D01*
X212506220Y-84250186D01*
X212500869Y-84252264D01*
X211724113Y-84533325D01*
X211718672Y-84535152D01*
X210929790Y-84779953D01*
X210924271Y-84781527D01*
X210124863Y-84989572D01*
X210119276Y-84990888D01*
X209311144Y-85161708D01*
X209305503Y-85162765D01*
X208490309Y-85296010D01*
X208484624Y-85296805D01*
X207664116Y-85392188D01*
X207658401Y-85392718D01*
X206834402Y-85450025D01*
X206828669Y-85450291D01*
X206002870Y-85469408D01*
X205997130Y-85469408D01*
X205171330Y-85450291D01*
X205165597Y-85450025D01*
X204341598Y-85392718D01*
X204335883Y-85392188D01*
X203515375Y-85296805D01*
X203509690Y-85296010D01*
X202694496Y-85162765D01*
X202688855Y-85161708D01*
X201880723Y-84990888D01*
X201875136Y-84989572D01*
X201075728Y-84781527D01*
X201070209Y-84779953D01*
X200281327Y-84535152D01*
X200275886Y-84533325D01*
X199499130Y-84252264D01*
X199493792Y-84250191D01*
X199069505Y-84074060D01*
X198730922Y-83933507D01*
X198725674Y-83931185D01*
X197978246Y-83579524D01*
X197973110Y-83576961D01*
X197242756Y-83191091D01*
X197237755Y-83188298D01*
X196526043Y-82769047D01*
X196521168Y-82766021D01*
X195829625Y-82314287D01*
X195824894Y-82311038D01*
X195154991Y-81827785D01*
X195150415Y-81824320D01*
X194759027Y-81513463D01*
X194503584Y-81310579D01*
X194499202Y-81306930D01*
X193876823Y-80763794D01*
X193872588Y-80759921D01*
X193276050Y-80188607D01*
X193271997Y-80184542D01*
X192851062Y-79742285D01*
X192702499Y-79586197D01*
X192698673Y-79581986D01*
X192257132Y-79072844D01*
X194025000Y-79072844D01*
X194031401Y-79132372D01*
X194031403Y-79132379D01*
X194081645Y-79267086D01*
X194081649Y-79267093D01*
X194167809Y-79382187D01*
X194167812Y-79382190D01*
X194282906Y-79468350D01*
X194282913Y-79468354D01*
X194417620Y-79518596D01*
X194417627Y-79518598D01*
X194477155Y-79524999D01*
X194477172Y-79525000D01*
X194750000Y-79525000D01*
X195250000Y-79525000D01*
X195522828Y-79525000D01*
X195522844Y-79524999D01*
X195582372Y-79518598D01*
X195582379Y-79518596D01*
X195717086Y-79468354D01*
X195717093Y-79468350D01*
X195832187Y-79382190D01*
X195832190Y-79382187D01*
X195918350Y-79267093D01*
X195918354Y-79267086D01*
X195958818Y-79158598D01*
X196000689Y-79102664D01*
X196066153Y-79078247D01*
X196134426Y-79093099D01*
X196183832Y-79142504D01*
X196191182Y-79158598D01*
X196231645Y-79267086D01*
X196231649Y-79267093D01*
X196317809Y-79382187D01*
X196317812Y-79382190D01*
X196432906Y-79468350D01*
X196432913Y-79468354D01*
X196567620Y-79518596D01*
X196567627Y-79518598D01*
X196627155Y-79524999D01*
X196627172Y-79525000D01*
X196900000Y-79525000D01*
X197400000Y-79525000D01*
X197672828Y-79525000D01*
X197672844Y-79524999D01*
X197732372Y-79518598D01*
X197732379Y-79518596D01*
X197867086Y-79468354D01*
X197867093Y-79468350D01*
X197982187Y-79382190D01*
X197982190Y-79382187D01*
X198068350Y-79267093D01*
X198068354Y-79267086D01*
X198118596Y-79132379D01*
X198118598Y-79132372D01*
X198124999Y-79072844D01*
X198125000Y-79072827D01*
X198125000Y-79000000D01*
X197400000Y-79000000D01*
X197400000Y-79525000D01*
X196900000Y-79525000D01*
X196900000Y-79000000D01*
X196175000Y-79000000D01*
X196162681Y-79012319D01*
X196101358Y-79045804D01*
X196031666Y-79040820D01*
X195987319Y-79012319D01*
X195975000Y-79000000D01*
X195250000Y-79000000D01*
X195250000Y-79525000D01*
X194750000Y-79525000D01*
X194750000Y-79000000D01*
X194025000Y-79000000D01*
X194025000Y-79072844D01*
X192257132Y-79072844D01*
X192219871Y-79029878D01*
X192157486Y-78957943D01*
X192157485Y-78957942D01*
X192157477Y-78957932D01*
X192153826Y-78953520D01*
X191823383Y-78534812D01*
X191642086Y-78305089D01*
X191638642Y-78300511D01*
X191620717Y-78275500D01*
X191157472Y-77629117D01*
X191154237Y-77624375D01*
X191066959Y-77489855D01*
X190704632Y-76931406D01*
X190701643Y-76926555D01*
X190284601Y-76213547D01*
X190281823Y-76208536D01*
X190240238Y-76129232D01*
X189898220Y-75476988D01*
X189895674Y-75471846D01*
X189833601Y-75338845D01*
X189546330Y-74723324D01*
X189544027Y-74718075D01*
X189229699Y-73954198D01*
X189227655Y-73948884D01*
X188948996Y-73171240D01*
X188947191Y-73165808D01*
X188704827Y-72376135D01*
X188703287Y-72370668D01*
X188497716Y-71570594D01*
X188496420Y-71565015D01*
X188429916Y-71245497D01*
X188328105Y-70756344D01*
X188327067Y-70750708D01*
X188324034Y-70731786D01*
X188309985Y-70644122D01*
X188318813Y-70574813D01*
X188363711Y-70521278D01*
X188430425Y-70500516D01*
X188432423Y-70500500D01*
X191048507Y-70500500D01*
X191048507Y-70500499D01*
X191383394Y-70462767D01*
X191711954Y-70387776D01*
X192030051Y-70276469D01*
X192333686Y-70130246D01*
X192619039Y-69950946D01*
X192882523Y-69740825D01*
X193120825Y-69502523D01*
X193330946Y-69239039D01*
X193510246Y-68953686D01*
X193656469Y-68650051D01*
X193767776Y-68331954D01*
X193842767Y-68003394D01*
X193880500Y-67668504D01*
X193880500Y-67331496D01*
X193842767Y-66996606D01*
X193767776Y-66668046D01*
X193656469Y-66349949D01*
X193510246Y-66046314D01*
X193330946Y-65760961D01*
X193120825Y-65497477D01*
X192882523Y-65259175D01*
X192850771Y-65233854D01*
X192797682Y-65191517D01*
X192619039Y-65049054D01*
X192333686Y-64869754D01*
X192333683Y-64869752D01*
X192030054Y-64723532D01*
X191711965Y-64612227D01*
X191711953Y-64612223D01*
X191383397Y-64537233D01*
X191383381Y-64537231D01*
X191048508Y-64499500D01*
X191048504Y-64499500D01*
X190945892Y-64499500D01*
X188400062Y-64499500D01*
X188333023Y-64479815D01*
X188287268Y-64427011D01*
X188277324Y-64357853D01*
X188278391Y-64351579D01*
X188409027Y-63687117D01*
X188410044Y-63682433D01*
X188570635Y-63005816D01*
X188571835Y-63001169D01*
X188572813Y-62997665D01*
X188758624Y-62331305D01*
X188760007Y-62326696D01*
X188794489Y-62219361D01*
X188837148Y-62086571D01*
X188876393Y-62028767D01*
X188940661Y-62001356D01*
X188955205Y-62000500D01*
X193151254Y-62000500D01*
X193198220Y-61994797D01*
X193451551Y-61964037D01*
X193745266Y-61891643D01*
X193745269Y-61891641D01*
X193745272Y-61891641D01*
X193879826Y-61840611D01*
X194028113Y-61784373D01*
X194295967Y-61643792D01*
X194544924Y-61471950D01*
X194771352Y-61271352D01*
X194850345Y-61182187D01*
X194909534Y-61145061D01*
X194979399Y-61145829D01*
X195037759Y-61184246D01*
X195066084Y-61248117D01*
X195067160Y-61264415D01*
X195067160Y-69961531D01*
X195047475Y-70028570D01*
X195030841Y-70049212D01*
X192244727Y-72835325D01*
X192244724Y-72835328D01*
X192194830Y-72910000D01*
X192194831Y-72910001D01*
X192173534Y-72941874D01*
X192124499Y-73060255D01*
X192124497Y-73060261D01*
X192099500Y-73185928D01*
X192099500Y-73245064D01*
X192079815Y-73312103D01*
X192078603Y-73313954D01*
X192040608Y-73370817D01*
X192040602Y-73370828D01*
X191980264Y-73516498D01*
X191980261Y-73516510D01*
X191949500Y-73671153D01*
X191949500Y-73828846D01*
X191980261Y-73983489D01*
X191980264Y-73983501D01*
X192040602Y-74129172D01*
X192040609Y-74129185D01*
X192128210Y-74260288D01*
X192128213Y-74260292D01*
X192239707Y-74371786D01*
X192239711Y-74371789D01*
X192370814Y-74459390D01*
X192370827Y-74459397D01*
X192421995Y-74480591D01*
X192516503Y-74519737D01*
X192671153Y-74550499D01*
X192671156Y-74550500D01*
X192671158Y-74550500D01*
X192828844Y-74550500D01*
X192828845Y-74550499D01*
X192983497Y-74519737D01*
X193129179Y-74459394D01*
X193260289Y-74371789D01*
X193371789Y-74260289D01*
X193459394Y-74129179D01*
X193519737Y-73983497D01*
X193550500Y-73828842D01*
X193550500Y-73671158D01*
X193550500Y-73671155D01*
X193550499Y-73671153D01*
X193519738Y-73516510D01*
X193519737Y-73516505D01*
X193519737Y-73516503D01*
X193517382Y-73510819D01*
X193509911Y-73441353D01*
X193541183Y-73378872D01*
X193544232Y-73375712D01*
X195687821Y-71232124D01*
X195749142Y-71198641D01*
X195818834Y-71203625D01*
X195874767Y-71245497D01*
X195899184Y-71310961D01*
X195899500Y-71319807D01*
X195899500Y-71900242D01*
X195879815Y-71967281D01*
X195863181Y-71987923D01*
X193743482Y-74107621D01*
X193743478Y-74107627D01*
X193717559Y-74152518D01*
X193717550Y-74152535D01*
X193696068Y-74189744D01*
X193664423Y-74244555D01*
X193623499Y-74397283D01*
X193623499Y-74397285D01*
X193623499Y-74565386D01*
X193623500Y-74565399D01*
X193623500Y-75387330D01*
X193623499Y-75387348D01*
X193623499Y-75553056D01*
X193664422Y-75705783D01*
X193666508Y-75709396D01*
X193666507Y-75709396D01*
X193666511Y-75709401D01*
X193743477Y-75842712D01*
X193743481Y-75842717D01*
X193862349Y-75961585D01*
X193862355Y-75961590D01*
X193988181Y-76087416D01*
X194021666Y-76148739D01*
X194024500Y-76175097D01*
X194024500Y-76572870D01*
X194024501Y-76572876D01*
X194030908Y-76632483D01*
X194081202Y-76767328D01*
X194081203Y-76767330D01*
X194106176Y-76800690D01*
X194130592Y-76866155D01*
X194115740Y-76934428D01*
X194106176Y-76949310D01*
X194081203Y-76982669D01*
X194081202Y-76982671D01*
X194030910Y-77117513D01*
X194030909Y-77117517D01*
X194024500Y-77177127D01*
X194024500Y-77177134D01*
X194024500Y-77177135D01*
X194024500Y-77822870D01*
X194024501Y-77822876D01*
X194030908Y-77882483D01*
X194081202Y-78017328D01*
X194081204Y-78017331D01*
X194106487Y-78051105D01*
X194130905Y-78116568D01*
X194116054Y-78184841D01*
X194106488Y-78199726D01*
X194081649Y-78232906D01*
X194081645Y-78232913D01*
X194031403Y-78367620D01*
X194031401Y-78367627D01*
X194025000Y-78427155D01*
X194025000Y-78500000D01*
X195975000Y-78500000D01*
X195987319Y-78487681D01*
X196048642Y-78454196D01*
X196118334Y-78459180D01*
X196162681Y-78487681D01*
X196175000Y-78500000D01*
X196900000Y-78500000D01*
X197400000Y-78500000D01*
X198125000Y-78500000D01*
X198125000Y-78427172D01*
X198124999Y-78427155D01*
X198118598Y-78367627D01*
X198118597Y-78367623D01*
X198068351Y-78232909D01*
X198043200Y-78199312D01*
X198018782Y-78133848D01*
X198033633Y-78065575D01*
X198043200Y-78050688D01*
X198068351Y-78017090D01*
X198118597Y-77882376D01*
X198118598Y-77882372D01*
X198124999Y-77822844D01*
X198125000Y-77822827D01*
X198125000Y-77750000D01*
X197400000Y-77750000D01*
X197400000Y-78500000D01*
X196900000Y-78500000D01*
X196900000Y-77624000D01*
X196919685Y-77556961D01*
X196972489Y-77511206D01*
X197024000Y-77500000D01*
X197150000Y-77500000D01*
X197150000Y-77374000D01*
X197169685Y-77306961D01*
X197222489Y-77261206D01*
X197274000Y-77250000D01*
X198125000Y-77250000D01*
X198125000Y-77174659D01*
X198144685Y-77107620D01*
X198197489Y-77061865D01*
X198266647Y-77051921D01*
X198330203Y-77080946D01*
X198354538Y-77109562D01*
X198427424Y-77227728D01*
X198427427Y-77227732D01*
X198547267Y-77347572D01*
X198547271Y-77347575D01*
X198691507Y-77436542D01*
X198691518Y-77436547D01*
X198852393Y-77489855D01*
X198951683Y-77499999D01*
X199500000Y-77499999D01*
X199548308Y-77499999D01*
X199548322Y-77499998D01*
X199647607Y-77489855D01*
X199808481Y-77436547D01*
X199808492Y-77436542D01*
X199952728Y-77347575D01*
X199952732Y-77347572D01*
X200072572Y-77227732D01*
X200072575Y-77227728D01*
X200161542Y-77083492D01*
X200161547Y-77083481D01*
X200214855Y-76922606D01*
X200224999Y-76823322D01*
X200225000Y-76823309D01*
X200225000Y-76800000D01*
X199500000Y-76800000D01*
X199500000Y-77499999D01*
X198951683Y-77499999D01*
X198999999Y-77499998D01*
X199000000Y-77499998D01*
X199000000Y-76674000D01*
X199019685Y-76606961D01*
X199072489Y-76561206D01*
X199124000Y-76550000D01*
X199250000Y-76550000D01*
X199250000Y-76424000D01*
X199269685Y-76356961D01*
X199322489Y-76311206D01*
X199374000Y-76300000D01*
X200224999Y-76300000D01*
X200224999Y-76276692D01*
X200224998Y-76276677D01*
X200214855Y-76177392D01*
X200161547Y-76016518D01*
X200161542Y-76016507D01*
X200072575Y-75872271D01*
X200072572Y-75872267D01*
X200063339Y-75863034D01*
X200029854Y-75801711D01*
X200034838Y-75732019D01*
X200063343Y-75687668D01*
X200072968Y-75678044D01*
X200162003Y-75533697D01*
X200215349Y-75372708D01*
X200225500Y-75273345D01*
X200225499Y-74726656D01*
X200225159Y-74723331D01*
X200215349Y-74627292D01*
X200215348Y-74627289D01*
X200194840Y-74565399D01*
X200162003Y-74466303D01*
X200161999Y-74466297D01*
X200161998Y-74466294D01*
X200072970Y-74321959D01*
X200072967Y-74321955D01*
X199953044Y-74202032D01*
X199953040Y-74202029D01*
X199808705Y-74113001D01*
X199808699Y-74112998D01*
X199808697Y-74112997D01*
X199717728Y-74082853D01*
X199647709Y-74059651D01*
X199548346Y-74049500D01*
X198951662Y-74049500D01*
X198951644Y-74049501D01*
X198852292Y-74059650D01*
X198852289Y-74059651D01*
X198691305Y-74112996D01*
X198691294Y-74113001D01*
X198546959Y-74202029D01*
X198546955Y-74202032D01*
X198435807Y-74313181D01*
X198374484Y-74346666D01*
X198348126Y-74349500D01*
X197999835Y-74349500D01*
X197932796Y-74329815D01*
X197925524Y-74324767D01*
X197867331Y-74281204D01*
X197867328Y-74281202D01*
X197732482Y-74230908D01*
X197732483Y-74230908D01*
X197672883Y-74224501D01*
X197672881Y-74224500D01*
X197672873Y-74224500D01*
X197672865Y-74224500D01*
X196924096Y-74224500D01*
X196857057Y-74204815D01*
X196811302Y-74152011D01*
X196801358Y-74082853D01*
X196830383Y-74019297D01*
X196836398Y-74012836D01*
X197730520Y-73118716D01*
X197809577Y-72981784D01*
X197850501Y-72829057D01*
X197850501Y-72670942D01*
X197850501Y-72663347D01*
X197850500Y-72663329D01*
X197850500Y-71027107D01*
X197870185Y-70960068D01*
X197922989Y-70914313D01*
X197992147Y-70904369D01*
X198012818Y-70909176D01*
X198015365Y-70910003D01*
X198015368Y-70910005D01*
X198204364Y-70971413D01*
X198400639Y-71002500D01*
X198400640Y-71002500D01*
X198599360Y-71002500D01*
X198599361Y-71002500D01*
X198795636Y-70971413D01*
X198984632Y-70910005D01*
X199161694Y-70819787D01*
X199322464Y-70702981D01*
X199462981Y-70562464D01*
X199579787Y-70401694D01*
X199670005Y-70224632D01*
X199731413Y-70035636D01*
X199762500Y-69839361D01*
X199762500Y-69640639D01*
X199731413Y-69444364D01*
X199670005Y-69255368D01*
X199670005Y-69255367D01*
X199579786Y-69078305D01*
X199489243Y-68953683D01*
X199462981Y-68917536D01*
X199322464Y-68777019D01*
X199161694Y-68660213D01*
X199005218Y-68580484D01*
X198954423Y-68532510D01*
X198937628Y-68464689D01*
X198960165Y-68398554D01*
X199005218Y-68359515D01*
X199161694Y-68279787D01*
X199322464Y-68162981D01*
X199462981Y-68022464D01*
X199579787Y-67861694D01*
X199670005Y-67684632D01*
X199731413Y-67495636D01*
X199762500Y-67299361D01*
X199762500Y-67100639D01*
X199731413Y-66904364D01*
X199731409Y-66904352D01*
X199730869Y-66902099D01*
X199730913Y-66901209D01*
X199730651Y-66899552D01*
X199730999Y-66899496D01*
X199734360Y-66832316D01*
X199763760Y-66785473D01*
X200262821Y-66286412D01*
X200324142Y-66252929D01*
X200393834Y-66257913D01*
X200449767Y-66299785D01*
X200474184Y-66365249D01*
X200474500Y-66374095D01*
X200474500Y-66881098D01*
X200480568Y-66947882D01*
X200480571Y-66947893D01*
X200528467Y-67101598D01*
X200611766Y-67239391D01*
X200725608Y-67353233D01*
X200725610Y-67353234D01*
X200725612Y-67353236D01*
X200863398Y-67436531D01*
X201017113Y-67484430D01*
X201083909Y-67490500D01*
X201516090Y-67490499D01*
X201516098Y-67490499D01*
X201518905Y-67490372D01*
X201518960Y-67491594D01*
X201582800Y-67504188D01*
X201633156Y-67552624D01*
X201649500Y-67614155D01*
X201649500Y-68001513D01*
X201629815Y-68068552D01*
X201613181Y-68089194D01*
X201561767Y-68140607D01*
X201561766Y-68140608D01*
X201478469Y-68278397D01*
X201430569Y-68432116D01*
X201424500Y-68498911D01*
X201424500Y-69501098D01*
X201430568Y-69567882D01*
X201430571Y-69567893D01*
X201478467Y-69721598D01*
X201478468Y-69721600D01*
X201478469Y-69721602D01*
X201561764Y-69859388D01*
X201563176Y-69860800D01*
X201563880Y-69862089D01*
X201566393Y-69865297D01*
X201565860Y-69865714D01*
X201596664Y-69922119D01*
X201599500Y-69948486D01*
X201599500Y-76314069D01*
X201616693Y-76400500D01*
X201624499Y-76439744D01*
X201656673Y-76517420D01*
X201673535Y-76558127D01*
X201744723Y-76664669D01*
X201744726Y-76664673D01*
X201744727Y-76664674D01*
X202635373Y-77555319D01*
X202668858Y-77616642D01*
X202663874Y-77686333D01*
X202622002Y-77742267D01*
X202556538Y-77766684D01*
X202547692Y-77767000D01*
X201519982Y-77767000D01*
X201417203Y-77777500D01*
X201417202Y-77777501D01*
X201335091Y-77804710D01*
X201250667Y-77832685D01*
X201250662Y-77832687D01*
X201101342Y-77924789D01*
X200977289Y-78048842D01*
X200885187Y-78198162D01*
X200885185Y-78198167D01*
X200861683Y-78269091D01*
X200830001Y-78364702D01*
X200830001Y-78364703D01*
X200830000Y-78364703D01*
X200819500Y-78467482D01*
X200819500Y-80267517D01*
X200830000Y-80370296D01*
X200844862Y-80415145D01*
X200885186Y-80536835D01*
X200977288Y-80686156D01*
X201101344Y-80810212D01*
X201250665Y-80902314D01*
X201417202Y-80957499D01*
X201519990Y-80968000D01*
X201519995Y-80968000D01*
X203320005Y-80968000D01*
X203320010Y-80968000D01*
X203422798Y-80957499D01*
X203589335Y-80902314D01*
X203738656Y-80810212D01*
X203862712Y-80686156D01*
X203862715Y-80686150D01*
X203867495Y-80681371D01*
X203928818Y-80647886D01*
X203998510Y-80652870D01*
X204028058Y-80668731D01*
X204121155Y-80736370D01*
X204171294Y-80761917D01*
X204345616Y-80850739D01*
X204345618Y-80850739D01*
X204345621Y-80850741D01*
X204585215Y-80928590D01*
X204834038Y-80968000D01*
X204834039Y-80968000D01*
X205085961Y-80968000D01*
X205085962Y-80968000D01*
X205334785Y-80928590D01*
X205574379Y-80850741D01*
X205798845Y-80736370D01*
X206002656Y-80588293D01*
X206142319Y-80448630D01*
X206203642Y-80415145D01*
X206273334Y-80420129D01*
X206317681Y-80448630D01*
X206457345Y-80588294D01*
X206457350Y-80588298D01*
X206635117Y-80717452D01*
X206661155Y-80736370D01*
X206804184Y-80809247D01*
X206885616Y-80850739D01*
X206885618Y-80850739D01*
X206885621Y-80850741D01*
X207125215Y-80928590D01*
X207374038Y-80968000D01*
X207374039Y-80968000D01*
X207625961Y-80968000D01*
X207625962Y-80968000D01*
X207874785Y-80928590D01*
X208114379Y-80850741D01*
X208338845Y-80736370D01*
X208542656Y-80588293D01*
X208682319Y-80448630D01*
X208743642Y-80415145D01*
X208813334Y-80420129D01*
X208857681Y-80448630D01*
X208997345Y-80588294D01*
X208997350Y-80588298D01*
X209175117Y-80717452D01*
X209201155Y-80736370D01*
X209344184Y-80809247D01*
X209425616Y-80850739D01*
X209425618Y-80850739D01*
X209425621Y-80850741D01*
X209665215Y-80928590D01*
X209914038Y-80968000D01*
X209914039Y-80968000D01*
X210165961Y-80968000D01*
X210165962Y-80968000D01*
X210414785Y-80928590D01*
X210654379Y-80850741D01*
X210878845Y-80736370D01*
X211082656Y-80588293D01*
X211260793Y-80410156D01*
X211408870Y-80206345D01*
X211523241Y-79981879D01*
X211601090Y-79742285D01*
X211640500Y-79493462D01*
X211640500Y-79241538D01*
X211601090Y-78992715D01*
X211523241Y-78753121D01*
X211523239Y-78753118D01*
X211523239Y-78753116D01*
X211481747Y-78671684D01*
X211408870Y-78528655D01*
X211346429Y-78442712D01*
X211260798Y-78324850D01*
X211260794Y-78324845D01*
X211082658Y-78146709D01*
X211082652Y-78146704D01*
X210951615Y-78051500D01*
X210908949Y-77996170D01*
X210900500Y-77951182D01*
X210900500Y-77099983D01*
X214624500Y-77099983D01*
X214624500Y-77900001D01*
X214624501Y-77900019D01*
X214635000Y-78002796D01*
X214635001Y-78002799D01*
X214689378Y-78166895D01*
X214690186Y-78169334D01*
X214782288Y-78318656D01*
X214906344Y-78442712D01*
X215055666Y-78534814D01*
X215222203Y-78589999D01*
X215324991Y-78600500D01*
X216675008Y-78600499D01*
X216777797Y-78589999D01*
X216944334Y-78534814D01*
X217093656Y-78442712D01*
X217217712Y-78318656D01*
X217309814Y-78169334D01*
X217364999Y-78002797D01*
X217375500Y-77900009D01*
X217375499Y-77099992D01*
X217374548Y-77090687D01*
X217364999Y-76997203D01*
X217364998Y-76997200D01*
X217360261Y-76982906D01*
X217309814Y-76830666D01*
X217217712Y-76681344D01*
X217093656Y-76557288D01*
X217093655Y-76557287D01*
X217029019Y-76517420D01*
X216982294Y-76465472D01*
X216971071Y-76396510D01*
X216998914Y-76332428D01*
X217006434Y-76324199D01*
X217114035Y-76216598D01*
X217215804Y-76076524D01*
X217294408Y-75922255D01*
X217347914Y-75757584D01*
X217349115Y-75750000D01*
X216280330Y-75750000D01*
X216300075Y-75730255D01*
X216349444Y-75644745D01*
X216375000Y-75549370D01*
X216375000Y-75450630D01*
X216349444Y-75355255D01*
X216300075Y-75269745D01*
X216280330Y-75250000D01*
X217349115Y-75250000D01*
X217349115Y-75249999D01*
X217347914Y-75242415D01*
X217294408Y-75077744D01*
X217215804Y-74923475D01*
X217114032Y-74783397D01*
X216991602Y-74660967D01*
X216851524Y-74559195D01*
X216697257Y-74480591D01*
X216532584Y-74427085D01*
X216361571Y-74400000D01*
X216250000Y-74400000D01*
X216250000Y-75219670D01*
X216230255Y-75199925D01*
X216144745Y-75150556D01*
X216049370Y-75125000D01*
X215950630Y-75125000D01*
X215855255Y-75150556D01*
X215769745Y-75199925D01*
X215750000Y-75219670D01*
X215750000Y-74400000D01*
X215638429Y-74400000D01*
X215467415Y-74427085D01*
X215302742Y-74480591D01*
X215148475Y-74559195D01*
X215008397Y-74660967D01*
X214885967Y-74783397D01*
X214784195Y-74923475D01*
X214705591Y-75077744D01*
X214652085Y-75242415D01*
X214650884Y-75249999D01*
X214650885Y-75250000D01*
X215719670Y-75250000D01*
X215699925Y-75269745D01*
X215650556Y-75355255D01*
X215625000Y-75450630D01*
X215625000Y-75549370D01*
X215650556Y-75644745D01*
X215699925Y-75730255D01*
X215719670Y-75750000D01*
X214650885Y-75750000D01*
X214652085Y-75757584D01*
X214705591Y-75922255D01*
X214784195Y-76076524D01*
X214885967Y-76216602D01*
X214993565Y-76324200D01*
X215027050Y-76385523D01*
X215022066Y-76455215D01*
X214980194Y-76511148D01*
X214970981Y-76517420D01*
X214906342Y-76557289D01*
X214782289Y-76681342D01*
X214690187Y-76830663D01*
X214690186Y-76830666D01*
X214635001Y-76997203D01*
X214635001Y-76997204D01*
X214635000Y-76997204D01*
X214624500Y-77099983D01*
X210900500Y-77099983D01*
X210900500Y-75897757D01*
X210920185Y-75830718D01*
X210972989Y-75784963D01*
X211042147Y-75775019D01*
X211048692Y-75776140D01*
X211171155Y-75800500D01*
X211171158Y-75800500D01*
X211328844Y-75800500D01*
X211328845Y-75800499D01*
X211483497Y-75769737D01*
X211629179Y-75709394D01*
X211760289Y-75621789D01*
X211871789Y-75510289D01*
X211959394Y-75379179D01*
X212019737Y-75233497D01*
X212050500Y-75078842D01*
X212050500Y-75078670D01*
X212051131Y-75075792D01*
X212067374Y-75046154D01*
X212083023Y-75016239D01*
X212084519Y-75014715D01*
X216108506Y-70990727D01*
X216108511Y-70990724D01*
X216118714Y-70980520D01*
X216118716Y-70980520D01*
X216230520Y-70868716D01*
X216297024Y-70753527D01*
X216309577Y-70731785D01*
X216350501Y-70579057D01*
X216350501Y-70420943D01*
X216350501Y-70413348D01*
X216350500Y-70413330D01*
X216350500Y-64050946D01*
X216350499Y-64050939D01*
X216331631Y-63980520D01*
X216309577Y-63898215D01*
X216269649Y-63829058D01*
X216230520Y-63761284D01*
X216118716Y-63649480D01*
X216118715Y-63649479D01*
X216114385Y-63645149D01*
X216114374Y-63645139D01*
X215003762Y-62534527D01*
X214970277Y-62473204D01*
X214970843Y-62420478D01*
X214970651Y-62420448D01*
X214970857Y-62419143D01*
X214970871Y-62417891D01*
X214971409Y-62415646D01*
X214971413Y-62415636D01*
X215002500Y-62219361D01*
X215002500Y-62020639D01*
X214971413Y-61824364D01*
X214931786Y-61702404D01*
X214910006Y-61635370D01*
X214910005Y-61635367D01*
X214852456Y-61522423D01*
X214819787Y-61458306D01*
X214702981Y-61297536D01*
X214562464Y-61157019D01*
X214401694Y-61040213D01*
X214245218Y-60960484D01*
X214194423Y-60912510D01*
X214177628Y-60844689D01*
X214200165Y-60778554D01*
X214245218Y-60739515D01*
X214401694Y-60659787D01*
X214562464Y-60542981D01*
X214702981Y-60402464D01*
X214819787Y-60241694D01*
X214910005Y-60064632D01*
X214971413Y-59875636D01*
X215002500Y-59679361D01*
X215002500Y-59480639D01*
X214979132Y-59333099D01*
X214988087Y-59263805D01*
X215013919Y-59226025D01*
X215358277Y-58881669D01*
X215429465Y-58775127D01*
X215478501Y-58656743D01*
X215503500Y-58531069D01*
X215503500Y-58402931D01*
X215503500Y-56288931D01*
X215503500Y-56288928D01*
X215478502Y-56163261D01*
X215478501Y-56163260D01*
X215478501Y-56163256D01*
X215429465Y-56044873D01*
X215398934Y-55999180D01*
X215358277Y-55938331D01*
X214794459Y-55374513D01*
X214760974Y-55313190D01*
X214765958Y-55243498D01*
X214781818Y-55213952D01*
X214819787Y-55161694D01*
X214910005Y-54984632D01*
X214971413Y-54795636D01*
X215002500Y-54599361D01*
X215002500Y-54400639D01*
X214971413Y-54204364D01*
X214910005Y-54015368D01*
X214910005Y-54015367D01*
X214819786Y-53838305D01*
X214799665Y-53810611D01*
X214702981Y-53677536D01*
X214562464Y-53537019D01*
X214401694Y-53420213D01*
X214381287Y-53409815D01*
X214224632Y-53329994D01*
X214224629Y-53329993D01*
X214035637Y-53268587D01*
X213937498Y-53253043D01*
X213839361Y-53237500D01*
X213640639Y-53237500D01*
X213575214Y-53247862D01*
X213444362Y-53268587D01*
X213255370Y-53329993D01*
X213255367Y-53329994D01*
X213078305Y-53420213D01*
X212917533Y-53537021D01*
X212777021Y-53677533D01*
X212660213Y-53838305D01*
X212569994Y-54015367D01*
X212569993Y-54015370D01*
X212508587Y-54204362D01*
X212508587Y-54204364D01*
X212477500Y-54400639D01*
X212477500Y-54599361D01*
X212491759Y-54689388D01*
X212508587Y-54795637D01*
X212554577Y-54937182D01*
X212556572Y-55007024D01*
X212520491Y-55066856D01*
X212457790Y-55097684D01*
X212436646Y-55099500D01*
X209774500Y-55099500D01*
X209765814Y-55096949D01*
X209756853Y-55098238D01*
X209732812Y-55087259D01*
X209707461Y-55079815D01*
X209701533Y-55072974D01*
X209693297Y-55069213D01*
X209679007Y-55046978D01*
X209661706Y-55027011D01*
X209659418Y-55016496D01*
X209655523Y-55010435D01*
X209650500Y-54975500D01*
X209650500Y-54845684D01*
X209667768Y-54782563D01*
X209722869Y-54689393D01*
X209767665Y-54535204D01*
X209770500Y-54499181D01*
X209770499Y-54000820D01*
X209767665Y-53964796D01*
X209722869Y-53810607D01*
X209641135Y-53672402D01*
X209641133Y-53672400D01*
X209641130Y-53672396D01*
X209527603Y-53558869D01*
X209527595Y-53558863D01*
X209389393Y-53477131D01*
X209389388Y-53477129D01*
X209235208Y-53432335D01*
X209235202Y-53432334D01*
X209199188Y-53429500D01*
X209199181Y-53429500D01*
X209150808Y-53429500D01*
X209083769Y-53409815D01*
X209063127Y-53393181D01*
X207164674Y-51494727D01*
X207164673Y-51494726D01*
X207164669Y-51494723D01*
X207058127Y-51423535D01*
X206939744Y-51374499D01*
X206939738Y-51374497D01*
X206814071Y-51349500D01*
X206814069Y-51349500D01*
X198662970Y-51349500D01*
X198654545Y-51347026D01*
X198645857Y-51348314D01*
X198621531Y-51337332D01*
X198595931Y-51329815D01*
X198590180Y-51323178D01*
X198582176Y-51319565D01*
X198567649Y-51297176D01*
X198550176Y-51277011D01*
X198548926Y-51268319D01*
X198544146Y-51260952D01*
X198544029Y-51234266D01*
X198540232Y-51207853D01*
X198543880Y-51199864D01*
X198543842Y-51191083D01*
X198558171Y-51168570D01*
X198569257Y-51144297D01*
X198577630Y-51138000D01*
X198581360Y-51132141D01*
X198610968Y-51112931D01*
X198830663Y-51011442D01*
X198835736Y-51009236D01*
X199588242Y-50702342D01*
X199593436Y-50700361D01*
X200359064Y-50428042D01*
X200364370Y-50426289D01*
X201141607Y-50189080D01*
X201146989Y-50187571D01*
X201934191Y-49985974D01*
X201939677Y-49984702D01*
X202735252Y-49819124D01*
X202740732Y-49818114D01*
X203542972Y-49688911D01*
X203548532Y-49688144D01*
X204355850Y-49595568D01*
X204361463Y-49595054D01*
X205172144Y-49539305D01*
X205177719Y-49539049D01*
X205990113Y-49520238D01*
X205995737Y-49520237D01*
X206808121Y-49538407D01*
G37*
%TD.AperFunction*%
%TA.AperFunction,Conductor*%
G36*
X205246942Y-53870185D02*
G01*
X205267584Y-53886819D01*
X207173181Y-55792416D01*
X207206666Y-55853739D01*
X207209500Y-55880096D01*
X207209500Y-55999168D01*
X207209501Y-55999179D01*
X207212335Y-56035205D01*
X207257129Y-56189388D01*
X207257131Y-56189393D01*
X207338863Y-56327595D01*
X207338869Y-56327603D01*
X207452396Y-56441130D01*
X207452400Y-56441133D01*
X207452402Y-56441135D01*
X207590607Y-56522869D01*
X207590614Y-56522871D01*
X207744791Y-56567664D01*
X207744794Y-56567664D01*
X207744796Y-56567665D01*
X207780819Y-56570500D01*
X208179180Y-56570499D01*
X208215204Y-56567665D01*
X208369393Y-56522869D01*
X208426882Y-56488869D01*
X208494602Y-56471688D01*
X208553117Y-56488869D01*
X208610607Y-56522869D01*
X208610610Y-56522869D01*
X208610612Y-56522871D01*
X208764791Y-56567664D01*
X208764794Y-56567664D01*
X208764796Y-56567665D01*
X208800819Y-56570500D01*
X209199180Y-56570499D01*
X209235204Y-56567665D01*
X209389393Y-56522869D01*
X209527598Y-56441135D01*
X209527603Y-56441130D01*
X209531915Y-56436819D01*
X209593238Y-56403334D01*
X209619596Y-56400500D01*
X212450169Y-56400500D01*
X212517208Y-56420185D01*
X212562963Y-56472989D01*
X212572907Y-56542147D01*
X212568100Y-56562818D01*
X212509075Y-56744476D01*
X212509075Y-56744479D01*
X212478000Y-56940678D01*
X212478000Y-57139321D01*
X212509075Y-57335520D01*
X212509075Y-57335523D01*
X212570457Y-57524437D01*
X212660641Y-57701432D01*
X212687730Y-57738715D01*
X213302352Y-57124093D01*
X213325792Y-57211571D01*
X213384311Y-57312930D01*
X213467070Y-57395689D01*
X213568429Y-57454208D01*
X213655904Y-57477647D01*
X213041283Y-58092268D01*
X213041283Y-58092269D01*
X213078567Y-58119358D01*
X213235331Y-58199234D01*
X213286127Y-58247209D01*
X213302922Y-58315030D01*
X213280384Y-58381165D01*
X213235331Y-58420204D01*
X213078305Y-58500213D01*
X212917533Y-58617021D01*
X212777021Y-58757533D01*
X212660213Y-58918305D01*
X212569994Y-59095367D01*
X212569993Y-59095370D01*
X212508587Y-59284362D01*
X212508587Y-59284364D01*
X212477500Y-59480639D01*
X212477500Y-59679361D01*
X212491301Y-59766498D01*
X212508587Y-59875637D01*
X212569993Y-60064629D01*
X212569994Y-60064632D01*
X212656032Y-60233489D01*
X212660213Y-60241694D01*
X212777019Y-60402464D01*
X212917536Y-60542981D01*
X213078306Y-60659787D01*
X213114057Y-60678003D01*
X213234780Y-60739515D01*
X213285576Y-60787490D01*
X213302371Y-60855311D01*
X213279833Y-60921446D01*
X213234780Y-60960485D01*
X213078305Y-61040213D01*
X212917533Y-61157021D01*
X212777021Y-61297533D01*
X212660213Y-61458305D01*
X212569994Y-61635367D01*
X212569993Y-61635370D01*
X212508587Y-61824362D01*
X212477500Y-62020639D01*
X212477500Y-62219360D01*
X212508587Y-62415637D01*
X212569993Y-62604629D01*
X212569994Y-62604632D01*
X212638969Y-62740000D01*
X212660213Y-62781694D01*
X212777019Y-62942464D01*
X212917536Y-63082981D01*
X213078306Y-63199787D01*
X213120455Y-63221263D01*
X213234780Y-63279515D01*
X213285576Y-63327490D01*
X213302371Y-63395311D01*
X213279833Y-63461446D01*
X213234780Y-63500485D01*
X213078305Y-63580213D01*
X212917533Y-63697021D01*
X212777021Y-63837533D01*
X212660213Y-63998305D01*
X212569994Y-64175367D01*
X212569993Y-64175370D01*
X212508587Y-64364362D01*
X212490868Y-64476238D01*
X212477500Y-64560639D01*
X212477500Y-64759361D01*
X212481580Y-64785122D01*
X212508587Y-64955637D01*
X212569993Y-65144629D01*
X212569994Y-65144632D01*
X212636964Y-65276066D01*
X212660213Y-65321694D01*
X212777019Y-65482464D01*
X212917536Y-65622981D01*
X213078306Y-65739787D01*
X213179971Y-65791588D01*
X213234780Y-65819515D01*
X213285576Y-65867490D01*
X213302371Y-65935311D01*
X213279833Y-66001446D01*
X213234780Y-66040485D01*
X213078305Y-66120213D01*
X212917533Y-66237021D01*
X212777021Y-66377533D01*
X212660213Y-66538305D01*
X212569994Y-66715367D01*
X212569993Y-66715370D01*
X212508587Y-66904362D01*
X212477500Y-67100639D01*
X212477500Y-67299360D01*
X212508587Y-67495637D01*
X212569993Y-67684629D01*
X212569994Y-67684632D01*
X212660213Y-67861694D01*
X212777019Y-68022464D01*
X212917536Y-68162981D01*
X213078306Y-68279787D01*
X213180687Y-68331953D01*
X213234780Y-68359515D01*
X213285576Y-68407490D01*
X213302371Y-68475311D01*
X213279833Y-68541446D01*
X213234780Y-68580485D01*
X213078305Y-68660213D01*
X212917533Y-68777021D01*
X212777021Y-68917533D01*
X212660213Y-69078305D01*
X212569994Y-69255367D01*
X212569993Y-69255370D01*
X212508587Y-69444362D01*
X212489023Y-69567883D01*
X212477500Y-69640639D01*
X212477500Y-69839361D01*
X212492568Y-69934498D01*
X212508587Y-70035637D01*
X212569993Y-70224629D01*
X212569994Y-70224632D01*
X212596406Y-70276467D01*
X212660213Y-70401694D01*
X212777019Y-70562464D01*
X212917536Y-70702981D01*
X213078306Y-70819787D01*
X213174332Y-70868715D01*
X213259236Y-70911976D01*
X213310032Y-70959951D01*
X213326827Y-71027772D01*
X213304289Y-71093907D01*
X213290622Y-71110142D01*
X211235339Y-73165425D01*
X211218741Y-73174487D01*
X211205133Y-73187619D01*
X211175636Y-73198025D01*
X211174016Y-73198910D01*
X211171850Y-73199361D01*
X211048692Y-73223859D01*
X210979100Y-73217632D01*
X210923923Y-73174769D01*
X210900678Y-73108879D01*
X210900500Y-73102242D01*
X210900500Y-69948486D01*
X210920185Y-69881447D01*
X210936820Y-69860803D01*
X210938236Y-69859388D01*
X211021531Y-69721602D01*
X211069430Y-69567887D01*
X211075500Y-69501091D01*
X211075499Y-68498910D01*
X211075499Y-68498909D01*
X211075499Y-68498901D01*
X211069431Y-68432117D01*
X211069428Y-68432106D01*
X211021532Y-68278401D01*
X211021531Y-68278400D01*
X211021531Y-68278398D01*
X210938236Y-68140612D01*
X210938234Y-68140610D01*
X210938233Y-68140608D01*
X210886819Y-68089194D01*
X210853334Y-68027871D01*
X210850500Y-68001513D01*
X210850500Y-67613651D01*
X210870185Y-67546612D01*
X210922989Y-67500857D01*
X210937429Y-67498394D01*
X210950000Y-67486914D01*
X211450000Y-67486914D01*
X211482792Y-67483935D01*
X211482802Y-67483932D01*
X211636392Y-67436072D01*
X211774080Y-67352836D01*
X211887836Y-67239080D01*
X211971070Y-67101396D01*
X212018934Y-66947792D01*
X212025000Y-66881043D01*
X212025000Y-66630000D01*
X211450000Y-66630000D01*
X211450000Y-67486914D01*
X210950000Y-67486914D01*
X210950000Y-66130000D01*
X211450000Y-66130000D01*
X212025000Y-66130000D01*
X212025000Y-65878956D01*
X212018934Y-65812207D01*
X211971070Y-65658603D01*
X211887836Y-65520919D01*
X211774080Y-65407163D01*
X211636396Y-65323929D01*
X211482794Y-65276066D01*
X211450000Y-65273085D01*
X211450000Y-66130000D01*
X210950000Y-66130000D01*
X210950000Y-65281703D01*
X210901773Y-65246780D01*
X210885728Y-65226040D01*
X210866831Y-65207857D01*
X210864307Y-65198351D01*
X210859020Y-65191517D01*
X210857313Y-65172009D01*
X210850500Y-65146347D01*
X210850500Y-64019930D01*
X211250000Y-64019930D01*
X211285122Y-64017167D01*
X211285128Y-64017166D01*
X211439188Y-63972407D01*
X211439191Y-63972406D01*
X211577285Y-63890738D01*
X211577294Y-63890731D01*
X211690731Y-63777294D01*
X211690738Y-63777285D01*
X211772404Y-63639194D01*
X211812844Y-63500000D01*
X211250000Y-63500000D01*
X211250000Y-64019930D01*
X210850500Y-64019930D01*
X210850500Y-63920945D01*
X210850500Y-63920943D01*
X210828151Y-63837536D01*
X210809577Y-63768215D01*
X210766612Y-63693799D01*
X210762462Y-63678310D01*
X210755023Y-63666734D01*
X210750000Y-63631799D01*
X210750000Y-63374000D01*
X210769685Y-63306961D01*
X210822489Y-63261206D01*
X210874000Y-63250000D01*
X211000000Y-63250000D01*
X211000000Y-63124499D01*
X211002486Y-63116032D01*
X211001198Y-63107301D01*
X211012179Y-63083021D01*
X211019685Y-63057460D01*
X211026354Y-63051681D01*
X211029991Y-63043640D01*
X211052355Y-63029151D01*
X211072489Y-63011705D01*
X211082764Y-63009449D01*
X211088630Y-63005650D01*
X211122664Y-63000693D01*
X211123546Y-63000500D01*
X211123750Y-63000499D01*
X211249180Y-63000499D01*
X211255294Y-63000017D01*
X211259939Y-63000001D01*
X211259990Y-63000015D01*
X211260393Y-63000000D01*
X211812844Y-63000000D01*
X211772404Y-62860805D01*
X211738581Y-62803612D01*
X211721398Y-62735888D01*
X211738582Y-62677369D01*
X211772867Y-62619396D01*
X211772869Y-62619393D01*
X211817665Y-62465204D01*
X211820500Y-62429181D01*
X211820499Y-62030820D01*
X211817665Y-61994796D01*
X211772869Y-61840607D01*
X211691135Y-61702402D01*
X211691133Y-61702400D01*
X211691130Y-61702396D01*
X211577603Y-61588869D01*
X211577595Y-61588863D01*
X211439393Y-61507131D01*
X211439388Y-61507129D01*
X211285208Y-61462335D01*
X211285202Y-61462334D01*
X211249188Y-61459500D01*
X211249181Y-61459500D01*
X210974500Y-61459500D01*
X210907461Y-61439815D01*
X210861706Y-61387011D01*
X210850500Y-61335500D01*
X210850500Y-60579765D01*
X210870185Y-60512726D01*
X210871398Y-60510874D01*
X210959390Y-60379185D01*
X210959390Y-60379184D01*
X210959394Y-60379179D01*
X211019737Y-60233497D01*
X211050500Y-60078842D01*
X211050500Y-59921158D01*
X211050500Y-59921155D01*
X211050499Y-59921153D01*
X211042143Y-59879143D01*
X211019737Y-59766503D01*
X210983642Y-59679361D01*
X210959397Y-59620827D01*
X210959390Y-59620814D01*
X210871789Y-59489711D01*
X210871786Y-59489707D01*
X210760292Y-59378213D01*
X210760288Y-59378210D01*
X210629185Y-59290609D01*
X210629172Y-59290602D01*
X210483501Y-59230264D01*
X210483489Y-59230261D01*
X210328845Y-59199500D01*
X210328842Y-59199500D01*
X210171158Y-59199500D01*
X210171155Y-59199500D01*
X210016510Y-59230261D01*
X210016498Y-59230264D01*
X209870827Y-59290602D01*
X209870814Y-59290609D01*
X209739711Y-59378210D01*
X209739707Y-59378213D01*
X209628213Y-59489707D01*
X209628210Y-59489711D01*
X209540609Y-59620814D01*
X209540602Y-59620827D01*
X209480264Y-59766498D01*
X209480261Y-59766510D01*
X209449500Y-59921153D01*
X209449500Y-60078846D01*
X209480261Y-60233489D01*
X209480264Y-60233501D01*
X209540602Y-60379172D01*
X209540609Y-60379185D01*
X209628602Y-60510874D01*
X209649480Y-60577551D01*
X209649500Y-60579765D01*
X209649500Y-61335500D01*
X209629815Y-61402539D01*
X209577011Y-61448294D01*
X209525500Y-61459500D01*
X209250830Y-61459500D01*
X209250808Y-61459501D01*
X209214794Y-61462335D01*
X209060611Y-61507129D01*
X209060606Y-61507131D01*
X208922404Y-61588863D01*
X208922396Y-61588869D01*
X208808869Y-61702396D01*
X208808863Y-61702404D01*
X208727131Y-61840606D01*
X208727129Y-61840611D01*
X208682335Y-61994791D01*
X208682334Y-61994797D01*
X208679500Y-62030811D01*
X208679500Y-62429169D01*
X208679501Y-62429191D01*
X208682335Y-62465205D01*
X208727129Y-62619388D01*
X208727132Y-62619395D01*
X208761128Y-62676881D01*
X208778309Y-62744605D01*
X208761128Y-62803119D01*
X208727132Y-62860604D01*
X208727129Y-62860611D01*
X208682335Y-63014791D01*
X208682334Y-63014797D01*
X208679500Y-63050811D01*
X208679500Y-63449169D01*
X208679501Y-63449191D01*
X208682335Y-63485205D01*
X208725076Y-63632320D01*
X208730000Y-63666915D01*
X208730000Y-64239591D01*
X208729618Y-64249316D01*
X208729500Y-64250804D01*
X208729500Y-64250819D01*
X208729500Y-64499500D01*
X208729501Y-64500000D01*
X208729501Y-64749181D01*
X208729618Y-64750663D01*
X208730000Y-64760393D01*
X208730000Y-65351013D01*
X208710315Y-65418052D01*
X208693681Y-65438694D01*
X208611767Y-65520607D01*
X208611766Y-65520608D01*
X208528469Y-65658397D01*
X208480569Y-65812116D01*
X208474500Y-65878911D01*
X208474500Y-66881098D01*
X208480568Y-66947882D01*
X208480571Y-66947893D01*
X208528467Y-67101598D01*
X208528468Y-67101600D01*
X208528469Y-67101602D01*
X208611764Y-67239388D01*
X208693600Y-67321224D01*
X208698200Y-67328102D01*
X208702401Y-67331014D01*
X208709555Y-67345080D01*
X208720437Y-67361351D01*
X208723573Y-67368905D01*
X208740423Y-67431785D01*
X208769360Y-67481904D01*
X208814999Y-67560954D01*
X208819479Y-67568714D01*
X208819481Y-67568717D01*
X208827841Y-67577077D01*
X208861326Y-67638400D01*
X208861777Y-67640566D01*
X208880261Y-67733491D01*
X208880264Y-67733501D01*
X208940602Y-67879172D01*
X208940609Y-67879185D01*
X209028210Y-68010288D01*
X209028213Y-68010292D01*
X209139707Y-68121786D01*
X209139711Y-68121789D01*
X209270814Y-68209390D01*
X209270818Y-68209392D01*
X209270821Y-68209394D01*
X209369154Y-68250124D01*
X209423554Y-68293963D01*
X209445620Y-68360257D01*
X209440086Y-68401571D01*
X209430570Y-68432110D01*
X209424500Y-68498911D01*
X209424500Y-69501098D01*
X209430568Y-69567882D01*
X209430571Y-69567893D01*
X209478467Y-69721598D01*
X209478468Y-69721600D01*
X209478469Y-69721602D01*
X209561764Y-69859388D01*
X209563176Y-69860800D01*
X209563880Y-69862089D01*
X209566393Y-69865297D01*
X209565860Y-69865714D01*
X209596664Y-69922119D01*
X209599500Y-69948486D01*
X209599500Y-77737671D01*
X209579815Y-77804710D01*
X209527011Y-77850465D01*
X209513825Y-77855599D01*
X209478684Y-77867017D01*
X209425616Y-77884260D01*
X209201151Y-77998632D01*
X208997350Y-78146701D01*
X208997345Y-78146705D01*
X208857681Y-78286370D01*
X208796358Y-78319855D01*
X208726666Y-78314871D01*
X208682319Y-78286370D01*
X208542654Y-78146705D01*
X208542649Y-78146701D01*
X208338848Y-77998632D01*
X208338847Y-77998631D01*
X208338845Y-77998630D01*
X208245723Y-77951182D01*
X208114383Y-77884260D01*
X207874785Y-77806410D01*
X207864052Y-77804710D01*
X207625962Y-77767000D01*
X207374038Y-77767000D01*
X207307738Y-77777501D01*
X207125214Y-77806410D01*
X206885616Y-77884260D01*
X206661151Y-77998632D01*
X206457350Y-78146701D01*
X206457345Y-78146705D01*
X206317681Y-78286370D01*
X206256358Y-78319855D01*
X206186666Y-78314871D01*
X206142319Y-78286370D01*
X206002654Y-78146705D01*
X206002649Y-78146701D01*
X205798848Y-77998632D01*
X205798847Y-77998631D01*
X205798845Y-77998630D01*
X205705723Y-77951182D01*
X205574383Y-77884260D01*
X205334785Y-77806410D01*
X205324052Y-77804710D01*
X205085962Y-77767000D01*
X204834038Y-77767000D01*
X204834032Y-77767000D01*
X204769459Y-77777227D01*
X204700166Y-77768272D01*
X204662381Y-77742435D01*
X202936819Y-76016873D01*
X202903334Y-75955550D01*
X202900500Y-75929192D01*
X202900500Y-69948486D01*
X202920185Y-69881447D01*
X202936820Y-69860803D01*
X202938236Y-69859388D01*
X203021531Y-69721602D01*
X203069430Y-69567887D01*
X203075500Y-69501091D01*
X203075499Y-68498910D01*
X203075499Y-68498909D01*
X203075499Y-68498901D01*
X203069431Y-68432117D01*
X203069428Y-68432106D01*
X203021532Y-68278401D01*
X203021531Y-68278400D01*
X203021531Y-68278398D01*
X202938236Y-68140612D01*
X202938234Y-68140610D01*
X202938233Y-68140608D01*
X202886819Y-68089194D01*
X202853334Y-68027871D01*
X202850500Y-68001513D01*
X202850500Y-67613651D01*
X202870185Y-67546612D01*
X202922989Y-67500857D01*
X202937429Y-67498394D01*
X202950000Y-67486914D01*
X203450000Y-67486914D01*
X203482792Y-67483935D01*
X203482802Y-67483932D01*
X203636392Y-67436072D01*
X203774080Y-67352836D01*
X203887836Y-67239080D01*
X203971070Y-67101396D01*
X204018934Y-66947792D01*
X204025000Y-66881043D01*
X204025000Y-66630000D01*
X203450000Y-66630000D01*
X203450000Y-67486914D01*
X202950000Y-67486914D01*
X202950000Y-66130000D01*
X203450000Y-66130000D01*
X204025000Y-66130000D01*
X204025000Y-65878956D01*
X204018934Y-65812207D01*
X203971070Y-65658603D01*
X203887836Y-65520919D01*
X203774080Y-65407163D01*
X203636396Y-65323929D01*
X203482794Y-65276066D01*
X203450000Y-65273085D01*
X203450000Y-66130000D01*
X202950000Y-66130000D01*
X202950000Y-65281703D01*
X202901773Y-65246780D01*
X202885728Y-65226040D01*
X202866831Y-65207857D01*
X202864307Y-65198351D01*
X202859020Y-65191517D01*
X202857313Y-65172009D01*
X202850500Y-65146347D01*
X202850500Y-64143094D01*
X202870185Y-64076055D01*
X202922989Y-64030300D01*
X202984229Y-64019476D01*
X202990000Y-64019930D01*
X203490000Y-64019930D01*
X203525122Y-64017167D01*
X203525128Y-64017166D01*
X203679188Y-63972407D01*
X203679191Y-63972406D01*
X203817285Y-63890738D01*
X203817294Y-63890731D01*
X203930731Y-63777294D01*
X203930738Y-63777285D01*
X204012404Y-63639194D01*
X204052844Y-63500000D01*
X203490000Y-63500000D01*
X203490000Y-64019930D01*
X202990000Y-64019930D01*
X202990000Y-63374000D01*
X203009685Y-63306961D01*
X203062489Y-63261206D01*
X203114000Y-63250000D01*
X203240000Y-63250000D01*
X203240000Y-63124499D01*
X203242486Y-63116032D01*
X203241198Y-63107301D01*
X203252179Y-63083021D01*
X203259685Y-63057460D01*
X203266354Y-63051681D01*
X203269991Y-63043640D01*
X203292355Y-63029151D01*
X203312489Y-63011705D01*
X203322764Y-63009449D01*
X203328630Y-63005650D01*
X203362664Y-63000693D01*
X203363546Y-63000500D01*
X203363750Y-63000499D01*
X203489180Y-63000499D01*
X203495294Y-63000017D01*
X203499939Y-63000001D01*
X203499990Y-63000015D01*
X203500393Y-63000000D01*
X204112847Y-63000000D01*
X204145181Y-62997731D01*
X204153249Y-62999783D01*
X204214796Y-63017665D01*
X204250819Y-63020500D01*
X204250836Y-63020499D01*
X204253247Y-63020595D01*
X204253243Y-63020690D01*
X204253246Y-63020691D01*
X204253240Y-63020761D01*
X204253218Y-63021313D01*
X204317490Y-63040152D01*
X204363270Y-63092934D01*
X204374500Y-63144499D01*
X204374500Y-65968330D01*
X204374499Y-65968348D01*
X204374499Y-66134054D01*
X204374498Y-66134054D01*
X204406351Y-66252929D01*
X204415423Y-66286785D01*
X204444360Y-66336904D01*
X204444361Y-66336905D01*
X204457888Y-66360336D01*
X204474500Y-66422334D01*
X204474500Y-66881098D01*
X204480568Y-66947882D01*
X204480571Y-66947893D01*
X204528467Y-67101598D01*
X204611766Y-67239391D01*
X204725608Y-67353233D01*
X204725610Y-67353234D01*
X204725612Y-67353236D01*
X204863398Y-67436531D01*
X205017113Y-67484430D01*
X205083909Y-67490500D01*
X205516090Y-67490499D01*
X205516098Y-67490499D01*
X205518905Y-67490372D01*
X205518960Y-67491594D01*
X205582800Y-67504188D01*
X205633156Y-67552624D01*
X205649500Y-67614155D01*
X205649500Y-68001513D01*
X205629815Y-68068552D01*
X205613181Y-68089194D01*
X205561767Y-68140607D01*
X205561766Y-68140608D01*
X205478469Y-68278397D01*
X205430569Y-68432116D01*
X205424500Y-68498911D01*
X205424500Y-69501098D01*
X205430568Y-69567882D01*
X205430571Y-69567893D01*
X205478467Y-69721598D01*
X205478468Y-69721600D01*
X205478469Y-69721602D01*
X205561764Y-69859388D01*
X205561766Y-69859391D01*
X205675608Y-69973233D01*
X205675610Y-69973234D01*
X205675612Y-69973236D01*
X205813398Y-70056531D01*
X205967113Y-70104430D01*
X206033909Y-70110500D01*
X206247768Y-70110499D01*
X206314808Y-70130183D01*
X206335450Y-70146818D01*
X206753181Y-70564548D01*
X206786666Y-70625871D01*
X206789500Y-70652229D01*
X206789500Y-73010128D01*
X206787379Y-73017351D01*
X206788632Y-73024775D01*
X206777670Y-73050415D01*
X206769815Y-73077167D01*
X206763441Y-73083698D01*
X206761166Y-73089020D01*
X206747712Y-73099816D01*
X206735064Y-73112777D01*
X206728668Y-73117111D01*
X206701155Y-73131130D01*
X206606423Y-73199955D01*
X206604741Y-73201096D01*
X206573335Y-73211155D01*
X206542255Y-73222245D01*
X206540205Y-73221768D01*
X206538202Y-73222410D01*
X206506333Y-73213891D01*
X206474201Y-73206419D01*
X206471933Y-73204696D01*
X206470702Y-73204367D01*
X206468912Y-73202400D01*
X206447496Y-73186128D01*
X206318657Y-73057289D01*
X206318656Y-73057288D01*
X206225890Y-73000070D01*
X206169337Y-72965187D01*
X206169332Y-72965185D01*
X206167863Y-72964698D01*
X206002798Y-72910001D01*
X206002796Y-72910000D01*
X205900017Y-72899500D01*
X205900010Y-72899500D01*
X204099990Y-72899500D01*
X204099982Y-72899500D01*
X203997203Y-72910000D01*
X203997202Y-72910001D01*
X203914669Y-72937349D01*
X203830667Y-72965185D01*
X203830662Y-72965187D01*
X203681342Y-73057289D01*
X203557289Y-73181342D01*
X203465187Y-73330662D01*
X203465185Y-73330667D01*
X203451877Y-73370828D01*
X203410001Y-73497202D01*
X203410001Y-73497203D01*
X203410000Y-73497203D01*
X203399500Y-73599982D01*
X203399500Y-75400017D01*
X203410000Y-75502796D01*
X203465185Y-75669332D01*
X203465187Y-75669337D01*
X203489892Y-75709390D01*
X203557288Y-75818656D01*
X203681344Y-75942712D01*
X203830665Y-76034814D01*
X203997202Y-76089999D01*
X204099990Y-76100500D01*
X204099995Y-76100500D01*
X205900005Y-76100500D01*
X205900010Y-76100500D01*
X206002798Y-76089999D01*
X206169335Y-76034814D01*
X206318656Y-75942712D01*
X206442712Y-75818656D01*
X206442715Y-75818650D01*
X206447495Y-75813871D01*
X206508818Y-75780386D01*
X206578510Y-75785370D01*
X206608058Y-75801231D01*
X206701155Y-75868870D01*
X206757849Y-75897757D01*
X206925616Y-75983239D01*
X206925618Y-75983239D01*
X206925621Y-75983241D01*
X207165215Y-76061090D01*
X207414038Y-76100500D01*
X207414039Y-76100500D01*
X207665961Y-76100500D01*
X207665962Y-76100500D01*
X207914785Y-76061090D01*
X208154379Y-75983241D01*
X208378845Y-75868870D01*
X208582656Y-75720793D01*
X208760793Y-75542656D01*
X208908870Y-75338845D01*
X209023241Y-75114379D01*
X209101090Y-74874785D01*
X209140500Y-74625962D01*
X209140500Y-74374038D01*
X209101090Y-74125215D01*
X209023241Y-73885621D01*
X209023239Y-73885618D01*
X209023239Y-73885616D01*
X208971741Y-73784547D01*
X208908870Y-73661155D01*
X208803776Y-73516505D01*
X208760798Y-73457350D01*
X208760794Y-73457345D01*
X208582654Y-73279205D01*
X208582649Y-73279201D01*
X208378848Y-73131131D01*
X208358203Y-73120612D01*
X208307408Y-73072637D01*
X208290500Y-73010128D01*
X208290500Y-70216079D01*
X208261659Y-70071092D01*
X208261658Y-70071091D01*
X208261658Y-70071087D01*
X208237554Y-70012894D01*
X208205087Y-69934511D01*
X208205080Y-69934498D01*
X208122952Y-69811585D01*
X208090588Y-69779221D01*
X208018416Y-69707049D01*
X207566734Y-69255367D01*
X207111818Y-68800450D01*
X207078333Y-68739127D01*
X207075499Y-68712769D01*
X207075499Y-68498901D01*
X207069431Y-68432117D01*
X207069428Y-68432106D01*
X207021532Y-68278401D01*
X207021531Y-68278400D01*
X207021531Y-68278398D01*
X206938236Y-68140612D01*
X206938234Y-68140610D01*
X206938233Y-68140608D01*
X206886819Y-68089194D01*
X206853334Y-68027871D01*
X206850500Y-68001513D01*
X206850500Y-67613651D01*
X206870185Y-67546612D01*
X206922989Y-67500857D01*
X206937429Y-67498394D01*
X206950000Y-67486914D01*
X207450000Y-67486914D01*
X207482792Y-67483935D01*
X207482802Y-67483932D01*
X207636392Y-67436072D01*
X207774080Y-67352836D01*
X207887836Y-67239080D01*
X207971070Y-67101396D01*
X208018934Y-66947792D01*
X208025000Y-66881043D01*
X208025000Y-66630000D01*
X207450000Y-66630000D01*
X207450000Y-67486914D01*
X206950000Y-67486914D01*
X206950000Y-66130000D01*
X207450000Y-66130000D01*
X208025000Y-66130000D01*
X208025000Y-65878956D01*
X208018934Y-65812207D01*
X207971070Y-65658603D01*
X207887836Y-65520919D01*
X207774080Y-65407163D01*
X207636396Y-65323929D01*
X207482794Y-65276066D01*
X207450000Y-65273085D01*
X207450000Y-66130000D01*
X206950000Y-66130000D01*
X206950000Y-65281703D01*
X206901773Y-65246780D01*
X206885728Y-65226040D01*
X206866831Y-65207857D01*
X206864307Y-65198351D01*
X206859020Y-65191517D01*
X206857313Y-65172009D01*
X206850500Y-65146347D01*
X206850500Y-64750000D01*
X207710069Y-64750000D01*
X207712832Y-64785122D01*
X207712833Y-64785128D01*
X207757592Y-64939188D01*
X207757593Y-64939191D01*
X207839261Y-65077285D01*
X207839268Y-65077294D01*
X207952705Y-65190731D01*
X207952714Y-65190738D01*
X208090805Y-65272404D01*
X208230000Y-65312844D01*
X208230000Y-64750000D01*
X207710069Y-64750000D01*
X206850500Y-64750000D01*
X206850500Y-64142307D01*
X206870185Y-64075268D01*
X206922989Y-64029513D01*
X206984229Y-64018689D01*
X207000000Y-64019930D01*
X207500000Y-64019930D01*
X207535122Y-64017167D01*
X207575348Y-64005480D01*
X207645218Y-64005679D01*
X207703888Y-64043620D01*
X207732733Y-64107258D01*
X207729022Y-64159149D01*
X207712833Y-64214874D01*
X207712832Y-64214877D01*
X207710069Y-64250000D01*
X208230000Y-64250000D01*
X208230000Y-63687154D01*
X208229998Y-63687153D01*
X208204647Y-63694519D01*
X208134778Y-63694319D01*
X208076108Y-63656376D01*
X208047265Y-63592738D01*
X208050977Y-63540846D01*
X208062844Y-63500000D01*
X207500000Y-63500000D01*
X207500000Y-64019930D01*
X207000000Y-64019930D01*
X207000000Y-63374000D01*
X207019685Y-63306961D01*
X207072489Y-63261206D01*
X207124000Y-63250000D01*
X207250000Y-63250000D01*
X207250000Y-63124499D01*
X207252486Y-63116032D01*
X207251198Y-63107301D01*
X207262179Y-63083021D01*
X207269685Y-63057460D01*
X207276354Y-63051681D01*
X207279991Y-63043640D01*
X207302355Y-63029151D01*
X207322489Y-63011705D01*
X207332764Y-63009449D01*
X207338630Y-63005650D01*
X207372664Y-63000693D01*
X207373546Y-63000500D01*
X207373750Y-63000499D01*
X207499180Y-63000499D01*
X207505294Y-63000017D01*
X207509939Y-63000001D01*
X207509990Y-63000015D01*
X207510393Y-63000000D01*
X208062844Y-63000000D01*
X208022404Y-62860805D01*
X207988581Y-62803612D01*
X207971398Y-62735888D01*
X207988582Y-62677369D01*
X208022867Y-62619396D01*
X208022869Y-62619393D01*
X208067665Y-62465204D01*
X208070500Y-62429181D01*
X208070499Y-62030820D01*
X208067665Y-61994796D01*
X208022869Y-61840607D01*
X207941135Y-61702402D01*
X207941133Y-61702400D01*
X207941130Y-61702396D01*
X207827603Y-61588869D01*
X207827595Y-61588863D01*
X207689393Y-61507131D01*
X207689388Y-61507129D01*
X207535208Y-61462335D01*
X207535202Y-61462334D01*
X207499181Y-61459500D01*
X207000830Y-61459500D01*
X207000808Y-61459501D01*
X206964794Y-61462335D01*
X206810611Y-61507129D01*
X206810606Y-61507131D01*
X206672404Y-61588863D01*
X206672396Y-61588869D01*
X206668085Y-61593181D01*
X206641157Y-61607884D01*
X206615339Y-61624477D01*
X206609138Y-61625368D01*
X206606762Y-61626666D01*
X206580404Y-61629500D01*
X206474501Y-61629500D01*
X206407462Y-61609815D01*
X206361707Y-61557011D01*
X206350501Y-61505500D01*
X206350501Y-61420945D01*
X206350501Y-61420943D01*
X206309577Y-61268215D01*
X206250560Y-61165995D01*
X206230520Y-61131284D01*
X206118716Y-61019480D01*
X206118713Y-61019478D01*
X199798259Y-54699024D01*
X199764774Y-54637701D01*
X199762501Y-54604233D01*
X199762500Y-54604233D01*
X199762500Y-54604212D01*
X199762323Y-54601607D01*
X199762500Y-54599359D01*
X199762500Y-54400639D01*
X199731413Y-54204364D01*
X199670006Y-54015370D01*
X199669177Y-54012818D01*
X199667182Y-53942977D01*
X199703263Y-53883144D01*
X199765964Y-53852316D01*
X199787108Y-53850500D01*
X205179903Y-53850500D01*
X205246942Y-53870185D01*
G37*
%TD.AperFunction*%
%TA.AperFunction,Conductor*%
G36*
X199858084Y-56470199D02*
G01*
X199897507Y-56496742D01*
X203868688Y-60467923D01*
X203873026Y-60475868D01*
X203880274Y-60481294D01*
X203889508Y-60506053D01*
X203902173Y-60529246D01*
X203901527Y-60538275D01*
X203904691Y-60546758D01*
X203899074Y-60572578D01*
X203897189Y-60598938D01*
X203891370Y-60607991D01*
X203889839Y-60615031D01*
X203868688Y-60643285D01*
X203867455Y-60644518D01*
X203806132Y-60678003D01*
X203736440Y-60673019D01*
X203692093Y-60644518D01*
X199725930Y-56678355D01*
X199725928Y-56678352D01*
X199723332Y-56675756D01*
X199721948Y-56673498D01*
X199710437Y-56659457D01*
X199710435Y-56659454D01*
X199712497Y-56658078D01*
X199693086Y-56626405D01*
X199691899Y-56622753D01*
X199689897Y-56552912D01*
X199725971Y-56493075D01*
X199788669Y-56462241D01*
X199858084Y-56470199D01*
G37*
%TD.AperFunction*%
%TD*%
M02*
