%TF.GenerationSoftware,KiCad,Pcbnew,9.0.7*%
%TF.CreationDate,2026-03-06T18:27:08-05:00*%
%TF.ProjectId,Untitled,556e7469-746c-4656-942e-6b696361645f,rev?*%
%TF.SameCoordinates,Original*%
%TF.FileFunction,Copper,L1,Top*%
%TF.FilePolarity,Positive*%
%FSLAX46Y46*%
G04 Gerber Fmt 4.6, Leading zero omitted, Abs format (unit mm)*
G04 Created by KiCad (PCBNEW 9.0.7) date 2026-03-06 18:27:08*
%MOMM*%
%LPD*%
G01*
G04 APERTURE LIST*
G04 Aperture macros list*
%AMRoundRect*
0 Rectangle with rounded corners*
0 $1 Rounding radius*
0 $2 $3 $4 $5 $6 $7 $8 $9 X,Y pos of 4 corners*
0 Add a 4 corners polygon primitive as box body*
4,1,4,$2,$3,$4,$5,$6,$7,$8,$9,$2,$3,0*
0 Add four circle primitives for the rounded corners*
1,1,$1+$1,$2,$3*
1,1,$1+$1,$4,$5*
1,1,$1+$1,$6,$7*
1,1,$1+$1,$8,$9*
0 Add four rect primitives between the rounded corners*
20,1,$1+$1,$2,$3,$4,$5,0*
20,1,$1+$1,$4,$5,$6,$7,0*
20,1,$1+$1,$6,$7,$8,$9,0*
20,1,$1+$1,$8,$9,$2,$3,0*%
G04 Aperture macros list end*
%TA.AperFunction,SMDPad,CuDef*%
%ADD10RoundRect,0.225000X0.250000X-0.225000X0.250000X0.225000X-0.250000X0.225000X-0.250000X-0.225000X0*%
%TD*%
%TA.AperFunction,SMDPad,CuDef*%
%ADD11RoundRect,0.087500X-0.225000X-0.087500X0.225000X-0.087500X0.225000X0.087500X-0.225000X0.087500X0*%
%TD*%
%TA.AperFunction,SMDPad,CuDef*%
%ADD12RoundRect,0.087500X-0.087500X-0.225000X0.087500X-0.225000X0.087500X0.225000X-0.087500X0.225000X0*%
%TD*%
%TA.AperFunction,ComponentPad*%
%ADD13RoundRect,0.249999X-0.850001X-0.850001X0.850001X-0.850001X0.850001X0.850001X-0.850001X0.850001X0*%
%TD*%
%TA.AperFunction,ComponentPad*%
%ADD14C,2.200000*%
%TD*%
%TA.AperFunction,SMDPad,CuDef*%
%ADD15RoundRect,0.152400X1.063600X0.609600X-1.063600X0.609600X-1.063600X-0.609600X1.063600X-0.609600X0*%
%TD*%
%TA.AperFunction,ComponentPad*%
%ADD16C,1.524000*%
%TD*%
%TA.AperFunction,SMDPad,CuDef*%
%ADD17RoundRect,0.152400X-1.063600X-0.609600X1.063600X-0.609600X1.063600X0.609600X-1.063600X0.609600X0*%
%TD*%
%TA.AperFunction,ComponentPad*%
%ADD18RoundRect,0.250000X0.625000X-0.350000X0.625000X0.350000X-0.625000X0.350000X-0.625000X-0.350000X0*%
%TD*%
%TA.AperFunction,ComponentPad*%
%ADD19O,1.750000X1.200000*%
%TD*%
%TA.AperFunction,ViaPad*%
%ADD20C,0.600000*%
%TD*%
%TA.AperFunction,ViaPad*%
%ADD21C,0.750000*%
%TD*%
%TA.AperFunction,Conductor*%
%ADD22C,0.300000*%
%TD*%
%TA.AperFunction,Conductor*%
%ADD23C,0.200000*%
%TD*%
%TA.AperFunction,Conductor*%
%ADD24C,0.500000*%
%TD*%
G04 APERTURE END LIST*
D10*
%TO.P,C1,1*%
%TO.N,-BATT*%
X199250000Y-79050000D03*
%TO.P,C1,2*%
%TO.N,+3.3V*%
X199250000Y-77500000D03*
%TD*%
D11*
%TO.P,U3,1,SDO/SA0*%
%TO.N,-BATT*%
X197175000Y-74000000D03*
%TO.P,U3,2,SDX*%
X197175000Y-74500000D03*
%TO.P,U3,3,SCX*%
X197175000Y-75000000D03*
%TO.P,U3,4,INT1*%
%TO.N,unconnected-(U3-INT1-Pad4)*%
X197175000Y-75500000D03*
D12*
%TO.P,U3,5,VDDIO*%
%TO.N,+3.3V*%
X197837500Y-75662500D03*
%TO.P,U3,6,GND*%
%TO.N,-BATT*%
X198337500Y-75662500D03*
%TO.P,U3,7,GND*%
X198837500Y-75662500D03*
D11*
%TO.P,U3,8,VDD*%
%TO.N,+3.3V*%
X199500000Y-75500000D03*
%TO.P,U3,9,INT2*%
%TO.N,unconnected-(U3-INT2-Pad9)*%
X199500000Y-75000000D03*
%TO.P,U3,10,NC*%
%TO.N,unconnected-(U3-NC-Pad10)*%
X199500000Y-74500000D03*
%TO.P,U3,11,NC*%
%TO.N,unconnected-(U3-NC-Pad11)*%
X199500000Y-74000000D03*
D12*
%TO.P,U3,12,CS*%
%TO.N,+3.3V*%
X198837500Y-73837500D03*
%TO.P,U3,13,SCL*%
%TO.N,/SCL*%
X198337500Y-73837500D03*
%TO.P,U3,14,SDA*%
%TO.N,/SDA*%
X197837500Y-73837500D03*
%TD*%
D13*
%TO.P,J2,1,Pin_1*%
%TO.N,+BATT*%
X202420000Y-79367500D03*
D14*
%TO.P,J2,2,Pin_2*%
%TO.N,/APPO*%
X204960000Y-79367500D03*
%TO.P,J2,3,Pin_3*%
%TO.N,+BATT*%
X207500000Y-79367500D03*
%TO.P,J2,4,Pin_4*%
%TO.N,/MAIN*%
X210040000Y-79367500D03*
%TD*%
D10*
%TO.P,C2,1*%
%TO.N,-BATT*%
X197250000Y-79050000D03*
%TO.P,C2,2*%
%TO.N,+3.3V*%
X197250000Y-77500000D03*
%TD*%
D15*
%TO.P,U1,1,GPIO1_A0_D0*%
%TO.N,/CONT 3*%
X197665000Y-54500000D03*
D16*
X198500000Y-54500000D03*
D15*
%TO.P,U1,2,GPIO2_A1_D1*%
%TO.N,/IGNIT 3*%
X197665000Y-57040000D03*
D16*
X198500000Y-57040000D03*
D15*
%TO.P,U1,3,GPIO3_A2_D2*%
%TO.N,/CONT 1*%
X197665000Y-59580000D03*
D16*
X198500000Y-59580000D03*
D15*
%TO.P,U1,4,GPIO4_A3_D3*%
%TO.N,/IGNIT 1*%
X197665000Y-62120000D03*
D16*
X198500000Y-62120000D03*
D15*
%TO.P,U1,5,GPIO5_A4_D4_SDA*%
%TO.N,/SDA*%
X197665000Y-64660000D03*
D16*
X198500000Y-64660000D03*
D15*
%TO.P,U1,6,GPIO6_A5_D5_SCL*%
%TO.N,/SCL*%
X197665000Y-67200000D03*
D16*
X198500000Y-67200000D03*
D15*
%TO.P,U1,7,GPIO43_A6_D6_TX*%
%TO.N,unconnected-(U1-GPIO43_A6_D6_TX-Pad7)*%
X197665000Y-69740000D03*
D16*
%TO.N,unconnected-(U1-GPIO43_A6_D6_TX-Pad7)_1*%
X198500000Y-69740000D03*
%TO.P,U1,8,GPIO44_D7_RX*%
%TO.N,unconnected-(U1-GPIO44_D7_RX-Pad8)_1*%
X213740000Y-69740000D03*
D17*
%TO.N,unconnected-(U1-GPIO44_D7_RX-Pad8)*%
X214575000Y-69740000D03*
D16*
%TO.P,U1,9,GPIO7_A8_D8_SCK*%
%TO.N,unconnected-(U1-GPIO7_A8_D8_SCK-Pad9)_1*%
X213740000Y-67200000D03*
D17*
%TO.N,unconnected-(U1-GPIO7_A8_D8_SCK-Pad9)*%
X214575000Y-67200000D03*
D16*
%TO.P,U1,10,GPIO8_A9_D9_MISO*%
%TO.N,/IGNIT 2*%
X213740000Y-64660000D03*
D17*
X214575000Y-64660000D03*
D16*
%TO.P,U1,11,GPIO9_A10_D10_MOSI*%
%TO.N,/CONT 2*%
X213740000Y-62120000D03*
D17*
X214575000Y-62120000D03*
D16*
%TO.P,U1,12,3V3*%
%TO.N,+3.3V*%
X213740000Y-59580000D03*
D17*
X214575000Y-59580000D03*
D16*
%TO.P,U1,13,GND*%
%TO.N,-BATT*%
X213740000Y-57040000D03*
D17*
X214575000Y-57040000D03*
D16*
%TO.P,U1,14,5V*%
%TO.N,+BATT*%
X213740000Y-54500000D03*
D17*
X214575000Y-54500000D03*
%TD*%
D13*
%TO.P,J3,1,Pin_1*%
%TO.N,+BATT*%
X205000000Y-74500000D03*
D14*
%TO.P,J3,2,Pin_2*%
%TO.N,/MOTOR*%
X207540000Y-74500000D03*
%TD*%
D18*
%TO.P,J1,1,Pin_1*%
%TO.N,+BATT*%
X216000000Y-77500000D03*
D19*
%TO.P,J1,2,Pin_2*%
%TO.N,-BATT*%
X216000000Y-75500000D03*
%TD*%
D20*
%TO.N,+3.3V*%
X192750000Y-73750000D03*
X196000000Y-75750000D03*
%TO.N,-BATT*%
X203600000Y-60400000D03*
D21*
X203200000Y-67500000D03*
X207900000Y-59300000D03*
D20*
X200800000Y-62800000D03*
X194750000Y-72500000D03*
X193250000Y-78000000D03*
%TO.N,/IGNIT 2*%
X209650000Y-67500000D03*
X211250000Y-74000000D03*
%TO.N,/CONT 2*%
X210250000Y-60000000D03*
X211250000Y-75000000D03*
%TD*%
D22*
%TO.N,+3.3V*%
X197250000Y-76500000D02*
X199000000Y-76500000D01*
D23*
X200113500Y-75250848D02*
X200113500Y-73749152D01*
D22*
X197250000Y-77500000D02*
X197250000Y-76500000D01*
X195500000Y-76500000D02*
X196000000Y-76000000D01*
D23*
X200113500Y-73749152D02*
X199888348Y-73524000D01*
D22*
X192750000Y-73750000D02*
X195500000Y-76500000D01*
X199000000Y-76500000D02*
X199500000Y-76000000D01*
X199500000Y-76000000D02*
X199500000Y-75526000D01*
X195500000Y-76500000D02*
X197250000Y-76500000D01*
D23*
X198838501Y-73524000D02*
X198837500Y-73525001D01*
X199864348Y-75500000D02*
X200113500Y-75250848D01*
X199500000Y-75500000D02*
X199864348Y-75500000D01*
D22*
X199250000Y-77500000D02*
X199250000Y-76750000D01*
X197250000Y-76500000D02*
X197811500Y-75938500D01*
X196000000Y-76000000D02*
X196000000Y-75750000D01*
D23*
X199888348Y-73524000D02*
X198838501Y-73524000D01*
X198837500Y-73525001D02*
X198837500Y-73837500D01*
D22*
X199250000Y-76750000D02*
X199000000Y-76500000D01*
D24*
%TO.N,-BATT*%
X212250000Y-58530000D02*
X213740000Y-57040000D01*
D22*
X209121020Y-53387000D02*
X202854010Y-59654010D01*
D24*
X203200000Y-64000000D02*
X203200000Y-67500000D01*
D23*
X198337500Y-75662500D02*
X198337500Y-75298152D01*
D22*
X203600000Y-60400000D02*
X202854010Y-59654010D01*
D24*
X207900000Y-59300000D02*
X203200000Y-64000000D01*
D22*
X215887000Y-53387000D02*
X209121020Y-53387000D01*
X195175000Y-72075000D02*
X194750000Y-72500000D01*
X198961020Y-63547000D02*
X196388662Y-63547000D01*
D24*
X216000000Y-75500000D02*
X212250000Y-71750000D01*
D22*
X216142000Y-55322338D02*
X216142000Y-53642000D01*
X195250000Y-72075000D02*
X197175000Y-74000000D01*
X196388662Y-63547000D02*
X195250000Y-64685662D01*
D23*
X198337500Y-75298152D02*
X198039348Y-75000000D01*
D22*
X195250000Y-64685662D02*
X195250000Y-72075000D01*
X199250000Y-79050000D02*
X197250000Y-79050000D01*
D23*
X197175000Y-75000000D02*
X197175000Y-74500000D01*
D22*
X213740000Y-57040000D02*
X214424338Y-57040000D01*
D23*
X198039348Y-75000000D02*
X197175000Y-75000000D01*
D22*
X194300000Y-79050000D02*
X197250000Y-79050000D01*
X200254010Y-62254010D02*
X198961020Y-63547000D01*
D23*
X198837500Y-75662500D02*
X198337500Y-75662500D01*
X197175000Y-74500000D02*
X197175000Y-74000000D01*
D22*
X214424338Y-57040000D02*
X216142000Y-55322338D01*
X195250000Y-72075000D02*
X195175000Y-72075000D01*
D24*
X212250000Y-71750000D02*
X212250000Y-58530000D01*
D22*
X216142000Y-53642000D02*
X215887000Y-53387000D01*
X202854010Y-59654010D02*
X200254010Y-62254010D01*
X200800000Y-62800000D02*
X200254010Y-62254010D01*
X193250000Y-78000000D02*
X194300000Y-79050000D01*
D24*
%TO.N,+BATT*%
X204287500Y-77500000D02*
X202420000Y-79367500D01*
X208000000Y-77500000D02*
X205000000Y-74500000D01*
X211000000Y-57240000D02*
X213740000Y-54500000D01*
X211000000Y-72500000D02*
X211000000Y-57240000D01*
X216000000Y-77500000D02*
X211000000Y-72500000D01*
X216000000Y-77500000D02*
X209500000Y-77500000D01*
X209367500Y-77500000D02*
X207500000Y-79367500D01*
X208000000Y-77500000D02*
X204287500Y-77500000D01*
X209500000Y-77500000D02*
X209367500Y-77500000D01*
X209500000Y-77500000D02*
X208000000Y-77500000D01*
D23*
%TO.N,/IGNIT 2*%
X209650000Y-72400000D02*
X211250000Y-74000000D01*
X209650000Y-67500000D02*
X209650000Y-72400000D01*
%TO.N,/SCL*%
X196148000Y-68717000D02*
X197665000Y-67200000D01*
X198337500Y-73337500D02*
X196148000Y-71148000D01*
X196148000Y-71148000D02*
X196148000Y-68717000D01*
X198337500Y-73837500D02*
X198337500Y-73337500D01*
%TO.N,/SDA*%
X197837500Y-73837500D02*
X197837500Y-73525001D01*
X197837500Y-73525001D02*
X195747000Y-71434501D01*
X195747000Y-66578000D02*
X197665000Y-64660000D01*
X195747000Y-71434501D02*
X195747000Y-66578000D01*
%TO.N,/CONT 2*%
X210250000Y-60000000D02*
X209049000Y-61201000D01*
X209049000Y-61201000D02*
X209049000Y-72799000D01*
X209049000Y-72799000D02*
X211250000Y-75000000D01*
%TD*%
%TA.AperFunction,Conductor*%
%TO.N,-BATT*%
G36*
X206808121Y-49538407D02*
G01*
X206813704Y-49538658D01*
X207624486Y-49593772D01*
X207630021Y-49594276D01*
X208437423Y-49686217D01*
X208442991Y-49686980D01*
X209116443Y-49794898D01*
X209245318Y-49815550D01*
X209250868Y-49816569D01*
X209263232Y-49819132D01*
X210046556Y-49981516D01*
X210052001Y-49982774D01*
X210839376Y-50183755D01*
X210844760Y-50185261D01*
X211622171Y-50421854D01*
X211627475Y-50423601D01*
X212367370Y-50686111D01*
X212393312Y-50695315D01*
X212398580Y-50697320D01*
X213151239Y-51003586D01*
X213156364Y-51005809D01*
X213894320Y-51346004D01*
X213899387Y-51348481D01*
X213911420Y-51354707D01*
X214621085Y-51721889D01*
X214626037Y-51724596D01*
X215329988Y-52130446D01*
X215334808Y-52133373D01*
X215701525Y-52367649D01*
X216019563Y-52570826D01*
X216024248Y-52573971D01*
X216435795Y-52864070D01*
X216479248Y-52918784D01*
X216488353Y-52965210D01*
X216489448Y-53607342D01*
X216469878Y-53674414D01*
X216417152Y-53720259D01*
X216348010Y-53730321D01*
X216284405Y-53701404D01*
X216246531Y-53642691D01*
X216246371Y-53642145D01*
X216242565Y-53629045D01*
X216242564Y-53629041D01*
X216158592Y-53487053D01*
X216158590Y-53487051D01*
X216158587Y-53487047D01*
X216041952Y-53370412D01*
X216041943Y-53370405D01*
X215899957Y-53286435D01*
X215899954Y-53286434D01*
X215741552Y-53240413D01*
X215741546Y-53240412D01*
X215704541Y-53237500D01*
X215704534Y-53237500D01*
X213445466Y-53237500D01*
X213445458Y-53237500D01*
X213408453Y-53240412D01*
X213408447Y-53240413D01*
X213250045Y-53286434D01*
X213250042Y-53286435D01*
X213108056Y-53370405D01*
X213108046Y-53370413D01*
X213011854Y-53466604D01*
X212997061Y-53479239D01*
X212917536Y-53537018D01*
X212777021Y-53677533D01*
X212660213Y-53838305D01*
X212569994Y-54015367D01*
X212569993Y-54015370D01*
X212508587Y-54204362D01*
X212477500Y-54400639D01*
X212477500Y-54599362D01*
X212481531Y-54624816D01*
X212472575Y-54694109D01*
X212446738Y-54731893D01*
X210417050Y-56761580D01*
X210417044Y-56761588D01*
X210367812Y-56835268D01*
X210367813Y-56835269D01*
X210334921Y-56884496D01*
X210334914Y-56884508D01*
X210278342Y-57021086D01*
X210278340Y-57021092D01*
X210249500Y-57166079D01*
X210249500Y-59082152D01*
X210229815Y-59149191D01*
X210177011Y-59194946D01*
X210149692Y-59203769D01*
X210016508Y-59230261D01*
X210016498Y-59230264D01*
X209870827Y-59290602D01*
X209870814Y-59290609D01*
X209739711Y-59378210D01*
X209739707Y-59378213D01*
X209628213Y-59489707D01*
X209628210Y-59489711D01*
X209540609Y-59620814D01*
X209540602Y-59620827D01*
X209480264Y-59766498D01*
X209480261Y-59766508D01*
X209449361Y-59921850D01*
X209416976Y-59983761D01*
X209415425Y-59985339D01*
X208568481Y-60832282D01*
X208568479Y-60832284D01*
X208552240Y-60860413D01*
X208535974Y-60888587D01*
X208489423Y-60969215D01*
X208448499Y-61121943D01*
X208448499Y-61121945D01*
X208448499Y-61290046D01*
X208448500Y-61290059D01*
X208448500Y-72712330D01*
X208448499Y-72712348D01*
X208448499Y-72878054D01*
X208448498Y-72878054D01*
X208453629Y-72897205D01*
X208460675Y-72923499D01*
X208465962Y-72943227D01*
X208464299Y-73013077D01*
X208425137Y-73070940D01*
X208360908Y-73098444D01*
X208292006Y-73086858D01*
X208289892Y-73085806D01*
X208154383Y-73016760D01*
X207914785Y-72938910D01*
X207665962Y-72899500D01*
X207414038Y-72899500D01*
X207347738Y-72910001D01*
X207165214Y-72938910D01*
X206925616Y-73016760D01*
X206701158Y-73131128D01*
X206701155Y-73131129D01*
X206701155Y-73131130D01*
X206608060Y-73198766D01*
X206542255Y-73222245D01*
X206474201Y-73206419D01*
X206447496Y-73186128D01*
X206318657Y-73057289D01*
X206318656Y-73057288D01*
X206225890Y-73000070D01*
X206169337Y-72965187D01*
X206169332Y-72965185D01*
X206167032Y-72964423D01*
X206002798Y-72910001D01*
X206002796Y-72910000D01*
X205900017Y-72899500D01*
X205900010Y-72899500D01*
X204099990Y-72899500D01*
X204099982Y-72899500D01*
X203997203Y-72910000D01*
X203997202Y-72910001D01*
X203956468Y-72923499D01*
X203830667Y-72965185D01*
X203830662Y-72965187D01*
X203681342Y-73057289D01*
X203557289Y-73181342D01*
X203465187Y-73330662D01*
X203465185Y-73330667D01*
X203443964Y-73394708D01*
X203410001Y-73497202D01*
X203410001Y-73497203D01*
X203410000Y-73497203D01*
X203399500Y-73599982D01*
X203399500Y-75400017D01*
X203410000Y-75502796D01*
X203425433Y-75549370D01*
X203465186Y-75669335D01*
X203557288Y-75818656D01*
X203681344Y-75942712D01*
X203830665Y-76034814D01*
X203997202Y-76089999D01*
X204099990Y-76100500D01*
X205487770Y-76100500D01*
X205554809Y-76120185D01*
X205575451Y-76136819D01*
X205853305Y-76414673D01*
X205976452Y-76537819D01*
X206009937Y-76599142D01*
X206004953Y-76668833D01*
X205963082Y-76724767D01*
X205897617Y-76749184D01*
X205888771Y-76749500D01*
X204213580Y-76749500D01*
X204068592Y-76778340D01*
X204068586Y-76778342D01*
X203932008Y-76834914D01*
X203931996Y-76834921D01*
X203882769Y-76867813D01*
X203809088Y-76917044D01*
X203809080Y-76917050D01*
X202995451Y-77730681D01*
X202934128Y-77764166D01*
X202907770Y-77767000D01*
X201519982Y-77767000D01*
X201417203Y-77777500D01*
X201417202Y-77777501D01*
X201334669Y-77804849D01*
X201250667Y-77832685D01*
X201250662Y-77832687D01*
X201101342Y-77924789D01*
X200977289Y-78048842D01*
X200885187Y-78198162D01*
X200885185Y-78198167D01*
X200867844Y-78250500D01*
X200830001Y-78364702D01*
X200830001Y-78364703D01*
X200830000Y-78364703D01*
X200819500Y-78467482D01*
X200819500Y-80267517D01*
X200830000Y-80370296D01*
X200844862Y-80415145D01*
X200885186Y-80536835D01*
X200977288Y-80686156D01*
X201101344Y-80810212D01*
X201250665Y-80902314D01*
X201417202Y-80957499D01*
X201519990Y-80968000D01*
X201519995Y-80968000D01*
X203320005Y-80968000D01*
X203320010Y-80968000D01*
X203422798Y-80957499D01*
X203589335Y-80902314D01*
X203738656Y-80810212D01*
X203862712Y-80686156D01*
X203862715Y-80686150D01*
X203867495Y-80681371D01*
X203928818Y-80647886D01*
X203998510Y-80652870D01*
X204028058Y-80668731D01*
X204121155Y-80736370D01*
X204171294Y-80761917D01*
X204345616Y-80850739D01*
X204345618Y-80850739D01*
X204345621Y-80850741D01*
X204585215Y-80928590D01*
X204834038Y-80968000D01*
X204834039Y-80968000D01*
X205085961Y-80968000D01*
X205085962Y-80968000D01*
X205334785Y-80928590D01*
X205574379Y-80850741D01*
X205798845Y-80736370D01*
X206002656Y-80588293D01*
X206142319Y-80448630D01*
X206203642Y-80415145D01*
X206273334Y-80420129D01*
X206317681Y-80448630D01*
X206457345Y-80588294D01*
X206457350Y-80588298D01*
X206635117Y-80717452D01*
X206661155Y-80736370D01*
X206804184Y-80809247D01*
X206885616Y-80850739D01*
X206885618Y-80850739D01*
X206885621Y-80850741D01*
X207125215Y-80928590D01*
X207374038Y-80968000D01*
X207374039Y-80968000D01*
X207625961Y-80968000D01*
X207625962Y-80968000D01*
X207874785Y-80928590D01*
X208114379Y-80850741D01*
X208338845Y-80736370D01*
X208542656Y-80588293D01*
X208682319Y-80448630D01*
X208743642Y-80415145D01*
X208813334Y-80420129D01*
X208857681Y-80448630D01*
X208997345Y-80588294D01*
X208997350Y-80588298D01*
X209175117Y-80717452D01*
X209201155Y-80736370D01*
X209344184Y-80809247D01*
X209425616Y-80850739D01*
X209425618Y-80850739D01*
X209425621Y-80850741D01*
X209665215Y-80928590D01*
X209914038Y-80968000D01*
X209914039Y-80968000D01*
X210165961Y-80968000D01*
X210165962Y-80968000D01*
X210414785Y-80928590D01*
X210654379Y-80850741D01*
X210878845Y-80736370D01*
X211082656Y-80588293D01*
X211260793Y-80410156D01*
X211408870Y-80206345D01*
X211523241Y-79981879D01*
X211601090Y-79742285D01*
X211640500Y-79493462D01*
X211640500Y-79241538D01*
X211601090Y-78992715D01*
X211523241Y-78753121D01*
X211523239Y-78753118D01*
X211523239Y-78753116D01*
X211481747Y-78671684D01*
X211408870Y-78528655D01*
X211400044Y-78516507D01*
X211349825Y-78447385D01*
X211326345Y-78381579D01*
X211342171Y-78313525D01*
X211392277Y-78264830D01*
X211450143Y-78250500D01*
X214671042Y-78250500D01*
X214738081Y-78270185D01*
X214776580Y-78309402D01*
X214782288Y-78318656D01*
X214906344Y-78442712D01*
X215055666Y-78534814D01*
X215222203Y-78589999D01*
X215324991Y-78600500D01*
X216675008Y-78600499D01*
X216777797Y-78589999D01*
X216944334Y-78534814D01*
X217093656Y-78442712D01*
X217217712Y-78318656D01*
X217309814Y-78169334D01*
X217364999Y-78002797D01*
X217375500Y-77900009D01*
X217375499Y-77099992D01*
X217364999Y-76997203D01*
X217309814Y-76830666D01*
X217217712Y-76681344D01*
X217093656Y-76557288D01*
X217093655Y-76557287D01*
X217029019Y-76517420D01*
X216982294Y-76465472D01*
X216971071Y-76396510D01*
X216998914Y-76332428D01*
X217006434Y-76324199D01*
X217114035Y-76216598D01*
X217215804Y-76076524D01*
X217294408Y-75922255D01*
X217347914Y-75757584D01*
X217349115Y-75750000D01*
X216280330Y-75750000D01*
X216300075Y-75730255D01*
X216349444Y-75644745D01*
X216375000Y-75549370D01*
X216375000Y-75450630D01*
X216349444Y-75355255D01*
X216300075Y-75269745D01*
X216280330Y-75250000D01*
X217349115Y-75250000D01*
X217349115Y-75249999D01*
X217347914Y-75242415D01*
X217294408Y-75077744D01*
X217215804Y-74923475D01*
X217114032Y-74783397D01*
X216991602Y-74660967D01*
X216851524Y-74559195D01*
X216697257Y-74480591D01*
X216532584Y-74427085D01*
X216361571Y-74400000D01*
X216250000Y-74400000D01*
X216250000Y-75219670D01*
X216230255Y-75199925D01*
X216144745Y-75150556D01*
X216049370Y-75125000D01*
X215950630Y-75125000D01*
X215855255Y-75150556D01*
X215769745Y-75199925D01*
X215750000Y-75219670D01*
X215750000Y-74400000D01*
X215638429Y-74400000D01*
X215467415Y-74427085D01*
X215302742Y-74480591D01*
X215148475Y-74559195D01*
X215008397Y-74660967D01*
X214885967Y-74783397D01*
X214784194Y-74923478D01*
X214760634Y-74969716D01*
X214712659Y-75020511D01*
X214644838Y-75037306D01*
X214578703Y-75014768D01*
X214562469Y-75001101D01*
X211786819Y-72225451D01*
X211753334Y-72164128D01*
X211750500Y-72137770D01*
X211750500Y-57602228D01*
X211770185Y-57535189D01*
X211786814Y-57514552D01*
X212266321Y-57035045D01*
X212327642Y-57001562D01*
X212397334Y-57006546D01*
X212453267Y-57048418D01*
X212477684Y-57113882D01*
X212478000Y-57122728D01*
X212478000Y-57139321D01*
X212509075Y-57335520D01*
X212509075Y-57335523D01*
X212570457Y-57524437D01*
X212660641Y-57701432D01*
X212687730Y-57738715D01*
X213302352Y-57124093D01*
X213325792Y-57211571D01*
X213384311Y-57312930D01*
X213467070Y-57395689D01*
X213568429Y-57454208D01*
X213655904Y-57477647D01*
X213036360Y-58097191D01*
X213108360Y-58169192D01*
X213108364Y-58169195D01*
X213165486Y-58202977D01*
X213213169Y-58254046D01*
X213225673Y-58322788D01*
X213199028Y-58387377D01*
X213181975Y-58404779D01*
X213174204Y-58411285D01*
X213108053Y-58450408D01*
X213007990Y-58550469D01*
X213003784Y-58553992D01*
X213002598Y-58554509D01*
X212997061Y-58559239D01*
X212917536Y-58617018D01*
X212777021Y-58757533D01*
X212660213Y-58918305D01*
X212569994Y-59095367D01*
X212569993Y-59095370D01*
X212508587Y-59284362D01*
X212508587Y-59284364D01*
X212477500Y-59480639D01*
X212477500Y-59679361D01*
X212491301Y-59766498D01*
X212508587Y-59875637D01*
X212569993Y-60064629D01*
X212569994Y-60064632D01*
X212660213Y-60241694D01*
X212777019Y-60402464D01*
X212777021Y-60402466D01*
X212917539Y-60542984D01*
X212997060Y-60600758D01*
X213003824Y-60606039D01*
X213007998Y-60609537D01*
X213108053Y-60709592D01*
X213173737Y-60748437D01*
X213181522Y-60754962D01*
X213195488Y-60775926D01*
X213212679Y-60794338D01*
X213214528Y-60804506D01*
X213220260Y-60813110D01*
X213220674Y-60838297D01*
X213225182Y-60863079D01*
X213221239Y-60872634D01*
X213221410Y-60882970D01*
X213208143Y-60904381D01*
X213198536Y-60927669D01*
X213188122Y-60936692D01*
X213184609Y-60942363D01*
X213177871Y-60945575D01*
X213164996Y-60956732D01*
X213108053Y-60990408D01*
X213108046Y-60990413D01*
X213011854Y-61086604D01*
X212997061Y-61099239D01*
X212917536Y-61157018D01*
X212777021Y-61297533D01*
X212660213Y-61458305D01*
X212569994Y-61635367D01*
X212569993Y-61635370D01*
X212508587Y-61824362D01*
X212477500Y-62020639D01*
X212477500Y-62219360D01*
X212508587Y-62415637D01*
X212569993Y-62604629D01*
X212569994Y-62604632D01*
X212660213Y-62781694D01*
X212777019Y-62942464D01*
X212777021Y-62942466D01*
X212917539Y-63082984D01*
X212997060Y-63140758D01*
X213003824Y-63146039D01*
X213007998Y-63149537D01*
X213108053Y-63249592D01*
X213173737Y-63288437D01*
X213181522Y-63294962D01*
X213195488Y-63315926D01*
X213212679Y-63334338D01*
X213214528Y-63344506D01*
X213220260Y-63353110D01*
X213220674Y-63378297D01*
X213225182Y-63403079D01*
X213221239Y-63412634D01*
X213221410Y-63422970D01*
X213208143Y-63444381D01*
X213198536Y-63467669D01*
X213188122Y-63476692D01*
X213184609Y-63482363D01*
X213177871Y-63485575D01*
X213164996Y-63496732D01*
X213108053Y-63530408D01*
X213108046Y-63530413D01*
X213011854Y-63626604D01*
X212997061Y-63639239D01*
X212917536Y-63697018D01*
X212777021Y-63837533D01*
X212660213Y-63998305D01*
X212569994Y-64175367D01*
X212569993Y-64175370D01*
X212508587Y-64364362D01*
X212477500Y-64560639D01*
X212477500Y-64759360D01*
X212508587Y-64955637D01*
X212569993Y-65144629D01*
X212569994Y-65144632D01*
X212652850Y-65307243D01*
X212660213Y-65321694D01*
X212777019Y-65482464D01*
X212777021Y-65482466D01*
X212917539Y-65622984D01*
X212997060Y-65680758D01*
X213003824Y-65686039D01*
X213007998Y-65689537D01*
X213108053Y-65789592D01*
X213173737Y-65828437D01*
X213181522Y-65834962D01*
X213195488Y-65855926D01*
X213212679Y-65874338D01*
X213214528Y-65884506D01*
X213220260Y-65893110D01*
X213220674Y-65918297D01*
X213225182Y-65943079D01*
X213221239Y-65952634D01*
X213221410Y-65962970D01*
X213208143Y-65984381D01*
X213198536Y-66007669D01*
X213188122Y-66016692D01*
X213184609Y-66022363D01*
X213177871Y-66025575D01*
X213164996Y-66036731D01*
X213148790Y-66046316D01*
X213108053Y-66070408D01*
X213108046Y-66070413D01*
X213011854Y-66166604D01*
X212997061Y-66179239D01*
X212917536Y-66237018D01*
X212777021Y-66377533D01*
X212660213Y-66538305D01*
X212569994Y-66715367D01*
X212569993Y-66715370D01*
X212508587Y-66904362D01*
X212477500Y-67100639D01*
X212477500Y-67299360D01*
X212508587Y-67495637D01*
X212569993Y-67684629D01*
X212569994Y-67684632D01*
X212660213Y-67861694D01*
X212777019Y-68022464D01*
X212777021Y-68022466D01*
X212917539Y-68162984D01*
X212997060Y-68220758D01*
X213003824Y-68226039D01*
X213007998Y-68229537D01*
X213108053Y-68329592D01*
X213173737Y-68368437D01*
X213181522Y-68374962D01*
X213195488Y-68395926D01*
X213212679Y-68414338D01*
X213214528Y-68424506D01*
X213220260Y-68433110D01*
X213220674Y-68458297D01*
X213225182Y-68483079D01*
X213221239Y-68492634D01*
X213221410Y-68502970D01*
X213208143Y-68524381D01*
X213198536Y-68547669D01*
X213188122Y-68556692D01*
X213184609Y-68562363D01*
X213177871Y-68565575D01*
X213164996Y-68576732D01*
X213108053Y-68610408D01*
X213108046Y-68610413D01*
X213011854Y-68706604D01*
X212997061Y-68719239D01*
X212917536Y-68777018D01*
X212777021Y-68917533D01*
X212660213Y-69078305D01*
X212569994Y-69255367D01*
X212569993Y-69255370D01*
X212508587Y-69444362D01*
X212499375Y-69502523D01*
X212477500Y-69640639D01*
X212477500Y-69839361D01*
X212493043Y-69937498D01*
X212508587Y-70035637D01*
X212569993Y-70224629D01*
X212569994Y-70224632D01*
X212596406Y-70276467D01*
X212660213Y-70401694D01*
X212777019Y-70562464D01*
X212777021Y-70562466D01*
X212917539Y-70702984D01*
X212997060Y-70760758D01*
X213011851Y-70773390D01*
X213108053Y-70869592D01*
X213250041Y-70953564D01*
X213291816Y-70965701D01*
X213408447Y-70999586D01*
X213408450Y-70999586D01*
X213408452Y-70999587D01*
X213445466Y-71002500D01*
X213445474Y-71002500D01*
X215704526Y-71002500D01*
X215704534Y-71002500D01*
X215741548Y-70999587D01*
X215741550Y-70999586D01*
X215741552Y-70999586D01*
X215783323Y-70987449D01*
X215899959Y-70953564D01*
X216041947Y-70869592D01*
X216158592Y-70752947D01*
X216242564Y-70610959D01*
X216288587Y-70452548D01*
X216291500Y-70415534D01*
X216291500Y-69064466D01*
X216288587Y-69027452D01*
X216242564Y-68869041D01*
X216158592Y-68727053D01*
X216158590Y-68727051D01*
X216158587Y-68727047D01*
X216041952Y-68610412D01*
X216041944Y-68610406D01*
X215985004Y-68576732D01*
X215937321Y-68525663D01*
X215924817Y-68456921D01*
X215951462Y-68392332D01*
X215985004Y-68363268D01*
X216041947Y-68329592D01*
X216158592Y-68212947D01*
X216242564Y-68070959D01*
X216288587Y-67912548D01*
X216291500Y-67875534D01*
X216291500Y-66524466D01*
X216288587Y-66487452D01*
X216242564Y-66329041D01*
X216171743Y-66209290D01*
X216158594Y-66187056D01*
X216158587Y-66187047D01*
X216041952Y-66070412D01*
X216041944Y-66070406D01*
X216001210Y-66046316D01*
X215985003Y-66036731D01*
X215937321Y-65985663D01*
X215924817Y-65916921D01*
X215951462Y-65852332D01*
X215985004Y-65823268D01*
X216041947Y-65789592D01*
X216158592Y-65672947D01*
X216242564Y-65530959D01*
X216288587Y-65372548D01*
X216291500Y-65335534D01*
X216291500Y-63984466D01*
X216288587Y-63947452D01*
X216242564Y-63789041D01*
X216158592Y-63647053D01*
X216158590Y-63647051D01*
X216158587Y-63647047D01*
X216041952Y-63530412D01*
X216041944Y-63530406D01*
X215985004Y-63496732D01*
X215937321Y-63445663D01*
X215924817Y-63376921D01*
X215951462Y-63312332D01*
X215985004Y-63283268D01*
X216041947Y-63249592D01*
X216158592Y-63132947D01*
X216242564Y-62990959D01*
X216288587Y-62832548D01*
X216291500Y-62795534D01*
X216291500Y-61444466D01*
X216288587Y-61407452D01*
X216273034Y-61353920D01*
X216242565Y-61249045D01*
X216242564Y-61249042D01*
X216242564Y-61249041D01*
X216158592Y-61107053D01*
X216158590Y-61107051D01*
X216158587Y-61107047D01*
X216041952Y-60990412D01*
X216041944Y-60990406D01*
X215985004Y-60956732D01*
X215937321Y-60905663D01*
X215924817Y-60836921D01*
X215951462Y-60772332D01*
X215985004Y-60743268D01*
X216041947Y-60709592D01*
X216158592Y-60592947D01*
X216242564Y-60450959D01*
X216288587Y-60292548D01*
X216291500Y-60255534D01*
X216291500Y-59980955D01*
X216311185Y-59913916D01*
X216363989Y-59868161D01*
X216433147Y-59858217D01*
X216496703Y-59887242D01*
X216534477Y-59946020D01*
X216535897Y-59951280D01*
X216535962Y-59951544D01*
X216535963Y-59951551D01*
X216563834Y-60064629D01*
X216608358Y-60245272D01*
X216715628Y-60528117D01*
X216856206Y-60795964D01*
X216856212Y-60795973D01*
X217028047Y-61044921D01*
X217028052Y-61044927D01*
X217228646Y-61271351D01*
X217228648Y-61271353D01*
X217455072Y-61471947D01*
X217455078Y-61471952D01*
X217704026Y-61643787D01*
X217704035Y-61643793D01*
X217971882Y-61784371D01*
X218254727Y-61891641D01*
X218254731Y-61891642D01*
X218254734Y-61891643D01*
X218548449Y-61964037D01*
X218799661Y-61994539D01*
X218848746Y-62000500D01*
X218848748Y-62000500D01*
X218934108Y-62000500D01*
X223044789Y-62000500D01*
X223111828Y-62020185D01*
X223157583Y-62072989D01*
X223162843Y-62086565D01*
X223239988Y-62326697D01*
X223241373Y-62331318D01*
X223428159Y-63001170D01*
X223429364Y-63005841D01*
X223589950Y-63682433D01*
X223590973Y-63687147D01*
X223642149Y-63947447D01*
X223686959Y-64175367D01*
X223721604Y-64351579D01*
X223715222Y-64421156D01*
X223672236Y-64476238D01*
X223606295Y-64499337D01*
X223599933Y-64499500D01*
X220951491Y-64499500D01*
X220616618Y-64537231D01*
X220616602Y-64537233D01*
X220288046Y-64612223D01*
X220288034Y-64612227D01*
X219969945Y-64723532D01*
X219666316Y-64869752D01*
X219380962Y-65049053D01*
X219117477Y-65259174D01*
X218879174Y-65497477D01*
X218669053Y-65760962D01*
X218489752Y-66046316D01*
X218343532Y-66349945D01*
X218232227Y-66668034D01*
X218232223Y-66668046D01*
X218157233Y-66996602D01*
X218157231Y-66996618D01*
X218119500Y-67331491D01*
X218119500Y-67668508D01*
X218157231Y-68003381D01*
X218157233Y-68003397D01*
X218232223Y-68331953D01*
X218232227Y-68331965D01*
X218343532Y-68650054D01*
X218489752Y-68953683D01*
X218489754Y-68953686D01*
X218669054Y-69239039D01*
X218879175Y-69502523D01*
X219117477Y-69740825D01*
X219380961Y-69950946D01*
X219666314Y-70130246D01*
X219969949Y-70276469D01*
X220208848Y-70360063D01*
X220288034Y-70387772D01*
X220288046Y-70387776D01*
X220616606Y-70462767D01*
X220951492Y-70500499D01*
X220951493Y-70500500D01*
X220951496Y-70500500D01*
X221054108Y-70500500D01*
X223567577Y-70500500D01*
X223585622Y-70505798D01*
X223604426Y-70506102D01*
X223618451Y-70515438D01*
X223634616Y-70520185D01*
X223646930Y-70534396D01*
X223662587Y-70544819D01*
X223669338Y-70560256D01*
X223680371Y-70572989D01*
X223683047Y-70591603D01*
X223690583Y-70608834D01*
X223690073Y-70640464D01*
X223690315Y-70642147D01*
X223690014Y-70644123D01*
X223690014Y-70644124D01*
X223672931Y-70750709D01*
X223671892Y-70756353D01*
X223503579Y-71565015D01*
X223502280Y-71570605D01*
X223296720Y-72370639D01*
X223295163Y-72376164D01*
X223052808Y-73165808D01*
X223050998Y-73171254D01*
X222772352Y-73948863D01*
X222770291Y-73954220D01*
X222455972Y-74718075D01*
X222453666Y-74723331D01*
X222104325Y-75471846D01*
X222101778Y-75476989D01*
X221718176Y-76208536D01*
X221715393Y-76213556D01*
X221298367Y-76926537D01*
X221295356Y-76931423D01*
X220845762Y-77624375D01*
X220842527Y-77629117D01*
X220361357Y-78300511D01*
X220357907Y-78305097D01*
X219846173Y-78953520D01*
X219842514Y-78957942D01*
X219439546Y-79422606D01*
X219301354Y-79581955D01*
X219297494Y-79586203D01*
X218728002Y-80184542D01*
X218723949Y-80188607D01*
X218127411Y-80759921D01*
X218123176Y-80763794D01*
X217500811Y-81306918D01*
X217496400Y-81310591D01*
X216849584Y-81824320D01*
X216845008Y-81827785D01*
X216175105Y-82311038D01*
X216170374Y-82314287D01*
X215478831Y-82766021D01*
X215473954Y-82769048D01*
X214762254Y-83188293D01*
X214757243Y-83191091D01*
X214026889Y-83576961D01*
X214021753Y-83579524D01*
X213274325Y-83931185D01*
X213269077Y-83933507D01*
X212506220Y-84250186D01*
X212500869Y-84252264D01*
X211724113Y-84533325D01*
X211718672Y-84535152D01*
X210929790Y-84779953D01*
X210924271Y-84781527D01*
X210124863Y-84989572D01*
X210119276Y-84990888D01*
X209311144Y-85161708D01*
X209305503Y-85162765D01*
X208490309Y-85296010D01*
X208484624Y-85296805D01*
X207664116Y-85392188D01*
X207658401Y-85392718D01*
X206834402Y-85450025D01*
X206828669Y-85450291D01*
X206002870Y-85469408D01*
X205997130Y-85469408D01*
X205171330Y-85450291D01*
X205165597Y-85450025D01*
X204341598Y-85392718D01*
X204335883Y-85392188D01*
X203515375Y-85296805D01*
X203509690Y-85296010D01*
X202694496Y-85162765D01*
X202688855Y-85161708D01*
X201880723Y-84990888D01*
X201875136Y-84989572D01*
X201075728Y-84781527D01*
X201070209Y-84779953D01*
X200281327Y-84535152D01*
X200275886Y-84533325D01*
X199499130Y-84252264D01*
X199493792Y-84250191D01*
X199069505Y-84074060D01*
X198730922Y-83933507D01*
X198725674Y-83931185D01*
X197978246Y-83579524D01*
X197973110Y-83576961D01*
X197242756Y-83191091D01*
X197237755Y-83188298D01*
X196526043Y-82769047D01*
X196521168Y-82766021D01*
X195829625Y-82314287D01*
X195824894Y-82311038D01*
X195154991Y-81827785D01*
X195150415Y-81824320D01*
X194759027Y-81513463D01*
X194503584Y-81310579D01*
X194499202Y-81306930D01*
X193876823Y-80763794D01*
X193872588Y-80759921D01*
X193276050Y-80188607D01*
X193271997Y-80184542D01*
X192837207Y-79727728D01*
X192702499Y-79586197D01*
X192698646Y-79581955D01*
X192480042Y-79329882D01*
X192480041Y-79329881D01*
X192474353Y-79323322D01*
X196275001Y-79323322D01*
X196285144Y-79422607D01*
X196338452Y-79583481D01*
X196338457Y-79583492D01*
X196427424Y-79727728D01*
X196427427Y-79727732D01*
X196547267Y-79847572D01*
X196547271Y-79847575D01*
X196691507Y-79936542D01*
X196691518Y-79936547D01*
X196852393Y-79989855D01*
X196951683Y-79999999D01*
X197500000Y-79999999D01*
X197548308Y-79999999D01*
X197548322Y-79999998D01*
X197647607Y-79989855D01*
X197808481Y-79936547D01*
X197808492Y-79936542D01*
X197952728Y-79847575D01*
X197952732Y-79847572D01*
X198072572Y-79727732D01*
X198072575Y-79727728D01*
X198144462Y-79611183D01*
X198196410Y-79564458D01*
X198265372Y-79553237D01*
X198329454Y-79581080D01*
X198355538Y-79611183D01*
X198427424Y-79727728D01*
X198427427Y-79727732D01*
X198547267Y-79847572D01*
X198547271Y-79847575D01*
X198691507Y-79936542D01*
X198691518Y-79936547D01*
X198852393Y-79989855D01*
X198951683Y-79999999D01*
X199500000Y-79999999D01*
X199548308Y-79999999D01*
X199548322Y-79999998D01*
X199647607Y-79989855D01*
X199808481Y-79936547D01*
X199808492Y-79936542D01*
X199952728Y-79847575D01*
X199952732Y-79847572D01*
X200072572Y-79727732D01*
X200072575Y-79727728D01*
X200161542Y-79583492D01*
X200161547Y-79583481D01*
X200214855Y-79422606D01*
X200224999Y-79323322D01*
X200225000Y-79323309D01*
X200225000Y-79300000D01*
X199500000Y-79300000D01*
X199500000Y-79999999D01*
X198951683Y-79999999D01*
X198999999Y-79999998D01*
X199000000Y-79999998D01*
X199000000Y-79300000D01*
X197500000Y-79300000D01*
X197500000Y-79999999D01*
X196951683Y-79999999D01*
X196999999Y-79999998D01*
X197000000Y-79999998D01*
X197000000Y-79300000D01*
X196275001Y-79300000D01*
X196275001Y-79323322D01*
X192474353Y-79323322D01*
X192157473Y-78957928D01*
X192153826Y-78953520D01*
X191855457Y-78575454D01*
X191642086Y-78305089D01*
X191638642Y-78300511D01*
X191619022Y-78273135D01*
X191157472Y-77629117D01*
X191154237Y-77624375D01*
X190896193Y-77226656D01*
X190704632Y-76931406D01*
X190701643Y-76926555D01*
X190284601Y-76213547D01*
X190281823Y-76208536D01*
X190240238Y-76129232D01*
X189898220Y-75476988D01*
X189895674Y-75471846D01*
X189829428Y-75329904D01*
X189546330Y-74723324D01*
X189544027Y-74718075D01*
X189536795Y-74700500D01*
X189229699Y-73954198D01*
X189227655Y-73948884D01*
X189128134Y-73671153D01*
X191949500Y-73671153D01*
X191949500Y-73828846D01*
X191980261Y-73983489D01*
X191980264Y-73983501D01*
X192040602Y-74129172D01*
X192040609Y-74129185D01*
X192128210Y-74260288D01*
X192128213Y-74260292D01*
X192239707Y-74371786D01*
X192239711Y-74371789D01*
X192370814Y-74459390D01*
X192370827Y-74459397D01*
X192421995Y-74480591D01*
X192516503Y-74519737D01*
X192583580Y-74533079D01*
X192645488Y-74565461D01*
X192647068Y-74567014D01*
X195085324Y-77005271D01*
X195085331Y-77005277D01*
X195191871Y-77076464D01*
X195191870Y-77076464D01*
X195226544Y-77090826D01*
X195310256Y-77125501D01*
X195310260Y-77125501D01*
X195310261Y-77125502D01*
X195435928Y-77150500D01*
X195435931Y-77150500D01*
X196150500Y-77150500D01*
X196217539Y-77170185D01*
X196263294Y-77222989D01*
X196274500Y-77274500D01*
X196274500Y-77773337D01*
X196274501Y-77773355D01*
X196284650Y-77872707D01*
X196284651Y-77872710D01*
X196337996Y-78033694D01*
X196338001Y-78033705D01*
X196427029Y-78178040D01*
X196427032Y-78178044D01*
X196436660Y-78187672D01*
X196470145Y-78248995D01*
X196465161Y-78318687D01*
X196436663Y-78363031D01*
X196427428Y-78372265D01*
X196427424Y-78372271D01*
X196338457Y-78516507D01*
X196338452Y-78516518D01*
X196285144Y-78677393D01*
X196275000Y-78776677D01*
X196275000Y-78800000D01*
X200224999Y-78800000D01*
X200224999Y-78776692D01*
X200224998Y-78776677D01*
X200214855Y-78677392D01*
X200161547Y-78516518D01*
X200161542Y-78516507D01*
X200072575Y-78372271D01*
X200072572Y-78372267D01*
X200063339Y-78363034D01*
X200029854Y-78301711D01*
X200034838Y-78232019D01*
X200063343Y-78187668D01*
X200072968Y-78178044D01*
X200162003Y-78033697D01*
X200215349Y-77872708D01*
X200225500Y-77773345D01*
X200225499Y-77226656D01*
X200225124Y-77222989D01*
X200215349Y-77127292D01*
X200215348Y-77127289D01*
X200198506Y-77076464D01*
X200162003Y-76966303D01*
X200161999Y-76966297D01*
X200161998Y-76966294D01*
X200072970Y-76821959D01*
X200072969Y-76821958D01*
X200072968Y-76821956D01*
X199953044Y-76702032D01*
X199950630Y-76700543D01*
X199942778Y-76695699D01*
X199920815Y-76671279D01*
X199898010Y-76647651D01*
X199897006Y-76644806D01*
X199896056Y-76643750D01*
X199886266Y-76614376D01*
X199885810Y-76612083D01*
X199892030Y-76542495D01*
X199919745Y-76500200D01*
X200005277Y-76414669D01*
X200076465Y-76308127D01*
X200096280Y-76260289D01*
X200125501Y-76189744D01*
X200148586Y-76073687D01*
X200149964Y-76068853D01*
X200166038Y-76043392D01*
X200179987Y-76016726D01*
X200185685Y-76012272D01*
X200187263Y-76009773D01*
X200191279Y-76007899D01*
X200207215Y-75995442D01*
X200233064Y-75980520D01*
X200344868Y-75868716D01*
X200344868Y-75868714D01*
X200355071Y-75858512D01*
X200355075Y-75858506D01*
X200472006Y-75741576D01*
X200472011Y-75741572D01*
X200482214Y-75731368D01*
X200482216Y-75731368D01*
X200594020Y-75619564D01*
X200598007Y-75612656D01*
X200653522Y-75516504D01*
X200653523Y-75516502D01*
X200673074Y-75482638D01*
X200673073Y-75482638D01*
X200673077Y-75482633D01*
X200714000Y-75329905D01*
X200714000Y-75171791D01*
X200714000Y-73838211D01*
X200714001Y-73838198D01*
X200714001Y-73670097D01*
X200714001Y-73670095D01*
X200673077Y-73517367D01*
X200633894Y-73449500D01*
X200633894Y-73449499D01*
X200594024Y-73380442D01*
X200594021Y-73380438D01*
X200594020Y-73380436D01*
X200482216Y-73268632D01*
X200482215Y-73268631D01*
X200477885Y-73264301D01*
X200477874Y-73264291D01*
X200375938Y-73162355D01*
X200375936Y-73162352D01*
X200257065Y-73043481D01*
X200257060Y-73043477D01*
X200127686Y-72968784D01*
X200120133Y-72964423D01*
X199967405Y-72923499D01*
X199809291Y-72923499D01*
X199801695Y-72923499D01*
X199801679Y-72923500D01*
X198925170Y-72923500D01*
X198917562Y-72923499D01*
X198917559Y-72923499D01*
X198824096Y-72923499D01*
X198757057Y-72903814D01*
X198757054Y-72903811D01*
X198736416Y-72887180D01*
X197063416Y-71214181D01*
X197029931Y-71152858D01*
X197034915Y-71083166D01*
X197076787Y-71027233D01*
X197142251Y-71002816D01*
X197151097Y-71002500D01*
X198794526Y-71002500D01*
X198794534Y-71002500D01*
X198831548Y-70999587D01*
X198831550Y-70999586D01*
X198831552Y-70999586D01*
X198873323Y-70987449D01*
X198989959Y-70953564D01*
X199131947Y-70869592D01*
X199228148Y-70773389D01*
X199242939Y-70760758D01*
X199322464Y-70702981D01*
X199462981Y-70562464D01*
X199579787Y-70401694D01*
X199670005Y-70224632D01*
X199731413Y-70035636D01*
X199762500Y-69839361D01*
X199762500Y-69640639D01*
X199731413Y-69444364D01*
X199670005Y-69255368D01*
X199670005Y-69255367D01*
X199579786Y-69078305D01*
X199462981Y-68917536D01*
X199322464Y-68777019D01*
X199242937Y-68719239D01*
X199236175Y-68713960D01*
X199232000Y-68710461D01*
X199131947Y-68610408D01*
X199066259Y-68571560D01*
X199058477Y-68565038D01*
X199044510Y-68544073D01*
X199027321Y-68525663D01*
X199025471Y-68515492D01*
X199019740Y-68506890D01*
X199019324Y-68481702D01*
X199014817Y-68456921D01*
X199018758Y-68447366D01*
X199018588Y-68437030D01*
X199031856Y-68415616D01*
X199041462Y-68392332D01*
X199051874Y-68383309D01*
X199055389Y-68377638D01*
X199062127Y-68374425D01*
X199075004Y-68363268D01*
X199131947Y-68329592D01*
X199228148Y-68233389D01*
X199242939Y-68220758D01*
X199322464Y-68162981D01*
X199462981Y-68022464D01*
X199579787Y-67861694D01*
X199670005Y-67684632D01*
X199731413Y-67495636D01*
X199762500Y-67299361D01*
X199762500Y-67100639D01*
X199731413Y-66904364D01*
X199694450Y-66790602D01*
X199670006Y-66715370D01*
X199670005Y-66715367D01*
X199579786Y-66538305D01*
X199462981Y-66377536D01*
X199322464Y-66237019D01*
X199242937Y-66179239D01*
X199236175Y-66173960D01*
X199232000Y-66170461D01*
X199131947Y-66070408D01*
X199066259Y-66031560D01*
X199058477Y-66025038D01*
X199044510Y-66004073D01*
X199027321Y-65985663D01*
X199025471Y-65975492D01*
X199019740Y-65966890D01*
X199019324Y-65941702D01*
X199014817Y-65916921D01*
X199018758Y-65907366D01*
X199018588Y-65897030D01*
X199031856Y-65875616D01*
X199041462Y-65852332D01*
X199051874Y-65843309D01*
X199055389Y-65837638D01*
X199062127Y-65834425D01*
X199075004Y-65823268D01*
X199131947Y-65789592D01*
X199228148Y-65693389D01*
X199242939Y-65680758D01*
X199322464Y-65622981D01*
X199462981Y-65482464D01*
X199579787Y-65321694D01*
X199670005Y-65144632D01*
X199731413Y-64955636D01*
X199762500Y-64759361D01*
X199762500Y-64560639D01*
X199731413Y-64364364D01*
X199670005Y-64175368D01*
X199670005Y-64175367D01*
X199579786Y-63998305D01*
X199462981Y-63837536D01*
X199322464Y-63697019D01*
X199242937Y-63639239D01*
X199236175Y-63633960D01*
X199232000Y-63630461D01*
X199131947Y-63530408D01*
X199066259Y-63491560D01*
X199058477Y-63485038D01*
X199044510Y-63464073D01*
X199027321Y-63445663D01*
X199025471Y-63435492D01*
X199019740Y-63426890D01*
X199019324Y-63401702D01*
X199014817Y-63376921D01*
X199018758Y-63367366D01*
X199018588Y-63357030D01*
X199031856Y-63335616D01*
X199041462Y-63312332D01*
X199051874Y-63303309D01*
X199055389Y-63297638D01*
X199062127Y-63294425D01*
X199075004Y-63283268D01*
X199131947Y-63249592D01*
X199228148Y-63153389D01*
X199242939Y-63140758D01*
X199322464Y-63082981D01*
X199462981Y-62942464D01*
X199579787Y-62781694D01*
X199670005Y-62604632D01*
X199731413Y-62415636D01*
X199762500Y-62219361D01*
X199762500Y-62020639D01*
X199731413Y-61824364D01*
X199700709Y-61729866D01*
X199670006Y-61635370D01*
X199670005Y-61635367D01*
X199579786Y-61458305D01*
X199573560Y-61449735D01*
X199462981Y-61297536D01*
X199322464Y-61157019D01*
X199242937Y-61099239D01*
X199236175Y-61093960D01*
X199232000Y-61090461D01*
X199131947Y-60990408D01*
X199066259Y-60951560D01*
X199058477Y-60945038D01*
X199044510Y-60924073D01*
X199027321Y-60905663D01*
X199025471Y-60895492D01*
X199019740Y-60886890D01*
X199019324Y-60861702D01*
X199014817Y-60836921D01*
X199018758Y-60827366D01*
X199018588Y-60817030D01*
X199031856Y-60795616D01*
X199041462Y-60772332D01*
X199051874Y-60763309D01*
X199055389Y-60757638D01*
X199062127Y-60754425D01*
X199075004Y-60743268D01*
X199131947Y-60709592D01*
X199228148Y-60613389D01*
X199242939Y-60600758D01*
X199322464Y-60542981D01*
X199462981Y-60402464D01*
X199579787Y-60241694D01*
X199670005Y-60064632D01*
X199731413Y-59875636D01*
X199762500Y-59679361D01*
X199762500Y-59480639D01*
X199731413Y-59284364D01*
X199670005Y-59095368D01*
X199670005Y-59095367D01*
X199579786Y-58918305D01*
X199462981Y-58757536D01*
X199322464Y-58617019D01*
X199242937Y-58559239D01*
X199236175Y-58553960D01*
X199232000Y-58550461D01*
X199131947Y-58450408D01*
X199066259Y-58411560D01*
X199058477Y-58405038D01*
X199044510Y-58384073D01*
X199027321Y-58365663D01*
X199025471Y-58355492D01*
X199019740Y-58346890D01*
X199019324Y-58321702D01*
X199014817Y-58296921D01*
X199018758Y-58287366D01*
X199018588Y-58277030D01*
X199031856Y-58255616D01*
X199041462Y-58232332D01*
X199051874Y-58223309D01*
X199055389Y-58217638D01*
X199062127Y-58214425D01*
X199075004Y-58203268D01*
X199075498Y-58202976D01*
X199131947Y-58169592D01*
X199228148Y-58073389D01*
X199242939Y-58060758D01*
X199322464Y-58002981D01*
X199462981Y-57862464D01*
X199579787Y-57701694D01*
X199670005Y-57524632D01*
X199731413Y-57335636D01*
X199762500Y-57139361D01*
X199762500Y-56940639D01*
X199731413Y-56744364D01*
X199670005Y-56555368D01*
X199670005Y-56555367D01*
X199579786Y-56378305D01*
X199462981Y-56217536D01*
X199322464Y-56077019D01*
X199242938Y-56019240D01*
X199236175Y-56013960D01*
X199232000Y-56010461D01*
X199131947Y-55910408D01*
X199066259Y-55871560D01*
X199058477Y-55865038D01*
X199044510Y-55844073D01*
X199027321Y-55825663D01*
X199025471Y-55815492D01*
X199019740Y-55806890D01*
X199019324Y-55781702D01*
X199014817Y-55756921D01*
X199018758Y-55747366D01*
X199018588Y-55737030D01*
X199031856Y-55715616D01*
X199041462Y-55692332D01*
X199051874Y-55683309D01*
X199055389Y-55677638D01*
X199062127Y-55674425D01*
X199075004Y-55663268D01*
X199131947Y-55629592D01*
X199228148Y-55533389D01*
X199242939Y-55520758D01*
X199322464Y-55462981D01*
X199462981Y-55322464D01*
X199579787Y-55161694D01*
X199670005Y-54984632D01*
X199731413Y-54795636D01*
X199762500Y-54599361D01*
X199762500Y-54400639D01*
X199731413Y-54204364D01*
X199670005Y-54015368D01*
X199670005Y-54015367D01*
X199579786Y-53838305D01*
X199462981Y-53677536D01*
X199322464Y-53537019D01*
X199242937Y-53479239D01*
X199228147Y-53466608D01*
X199131947Y-53370408D01*
X199131946Y-53370407D01*
X199131943Y-53370405D01*
X198989957Y-53286435D01*
X198989954Y-53286434D01*
X198831552Y-53240413D01*
X198831546Y-53240412D01*
X198794541Y-53237500D01*
X198794534Y-53237500D01*
X196535466Y-53237500D01*
X196535458Y-53237500D01*
X196498453Y-53240412D01*
X196498447Y-53240413D01*
X196340045Y-53286434D01*
X196340042Y-53286435D01*
X196198056Y-53370405D01*
X196198047Y-53370412D01*
X196081412Y-53487047D01*
X196081405Y-53487056D01*
X195997435Y-53629042D01*
X195997434Y-53629045D01*
X195951413Y-53787447D01*
X195951412Y-53787453D01*
X195948500Y-53824458D01*
X195948500Y-55175541D01*
X195951412Y-55212546D01*
X195951413Y-55212552D01*
X195997434Y-55370954D01*
X195997435Y-55370957D01*
X196081405Y-55512943D01*
X196081412Y-55512952D01*
X196198047Y-55629587D01*
X196198050Y-55629589D01*
X196198053Y-55629592D01*
X196254996Y-55663268D01*
X196302679Y-55714338D01*
X196315182Y-55783079D01*
X196288536Y-55847669D01*
X196254996Y-55876731D01*
X196198053Y-55910408D01*
X196198047Y-55910412D01*
X196081412Y-56027047D01*
X196081405Y-56027056D01*
X195997435Y-56169042D01*
X195997434Y-56169045D01*
X195951413Y-56327447D01*
X195951412Y-56327453D01*
X195948500Y-56364458D01*
X195948500Y-57715541D01*
X195951412Y-57752546D01*
X195951413Y-57752552D01*
X195997434Y-57910954D01*
X195997435Y-57910957D01*
X196081405Y-58052943D01*
X196081412Y-58052952D01*
X196198047Y-58169587D01*
X196198050Y-58169589D01*
X196198053Y-58169592D01*
X196254502Y-58202976D01*
X196254996Y-58203268D01*
X196302679Y-58254338D01*
X196315182Y-58323079D01*
X196288536Y-58387669D01*
X196254996Y-58416732D01*
X196198053Y-58450408D01*
X196198047Y-58450412D01*
X196081412Y-58567047D01*
X196081405Y-58567056D01*
X195997435Y-58709042D01*
X195997434Y-58709045D01*
X195951413Y-58867447D01*
X195951412Y-58867453D01*
X195948500Y-58904458D01*
X195948500Y-60255541D01*
X195951412Y-60292546D01*
X195951413Y-60292552D01*
X195997434Y-60450954D01*
X195997435Y-60450957D01*
X196081405Y-60592943D01*
X196081412Y-60592952D01*
X196198047Y-60709587D01*
X196198050Y-60709589D01*
X196198053Y-60709592D01*
X196254996Y-60743268D01*
X196302679Y-60794338D01*
X196315182Y-60863079D01*
X196288536Y-60927669D01*
X196254996Y-60956732D01*
X196198053Y-60990408D01*
X196198047Y-60990412D01*
X196081412Y-61107047D01*
X196081405Y-61107056D01*
X195997435Y-61249042D01*
X195997434Y-61249045D01*
X195951413Y-61407447D01*
X195951412Y-61407453D01*
X195948500Y-61444458D01*
X195948500Y-62795541D01*
X195951412Y-62832546D01*
X195951413Y-62832552D01*
X195997434Y-62990954D01*
X195997435Y-62990957D01*
X195997436Y-62990959D01*
X196004848Y-63003492D01*
X196081405Y-63132943D01*
X196081412Y-63132952D01*
X196198047Y-63249587D01*
X196198050Y-63249589D01*
X196198053Y-63249592D01*
X196254996Y-63283268D01*
X196302679Y-63334338D01*
X196315182Y-63403079D01*
X196288536Y-63467669D01*
X196254996Y-63496732D01*
X196198053Y-63530408D01*
X196198047Y-63530412D01*
X196081412Y-63647047D01*
X196081405Y-63647056D01*
X195997435Y-63789042D01*
X195997434Y-63789045D01*
X195951413Y-63947447D01*
X195951412Y-63947453D01*
X195948500Y-63984458D01*
X195948500Y-65335541D01*
X195951412Y-65372541D01*
X195951413Y-65372548D01*
X195959101Y-65399012D01*
X195965128Y-65419757D01*
X195964927Y-65489626D01*
X195933732Y-65542031D01*
X195378286Y-66097478D01*
X195266481Y-66209282D01*
X195266475Y-66209290D01*
X195219119Y-66291315D01*
X195219119Y-66291316D01*
X195187423Y-66346215D01*
X195146499Y-66498943D01*
X195146499Y-66498945D01*
X195146499Y-66667046D01*
X195146500Y-66667059D01*
X195146500Y-71347831D01*
X195146499Y-71347849D01*
X195146499Y-71513555D01*
X195146498Y-71513555D01*
X195187423Y-71666286D01*
X195211261Y-71707573D01*
X195211262Y-71707577D01*
X195266475Y-71803210D01*
X195266481Y-71803218D01*
X195385349Y-71922086D01*
X195385355Y-71922091D01*
X196671916Y-73208652D01*
X196705401Y-73269975D01*
X196700417Y-73339667D01*
X196659723Y-73394708D01*
X196530988Y-73493491D01*
X196436819Y-73616213D01*
X196436816Y-73616219D01*
X196377621Y-73759131D01*
X196368948Y-73824999D01*
X196368949Y-73825000D01*
X197038000Y-73825000D01*
X197046685Y-73827550D01*
X197055647Y-73826262D01*
X197079687Y-73837240D01*
X197105039Y-73844685D01*
X197110966Y-73851525D01*
X197119203Y-73855287D01*
X197133492Y-73877521D01*
X197150794Y-73897489D01*
X197153081Y-73908003D01*
X197156977Y-73914065D01*
X197162000Y-73949000D01*
X197162000Y-74051000D01*
X197142315Y-74118039D01*
X197089511Y-74163794D01*
X197038000Y-74175000D01*
X196368951Y-74175000D01*
X196368949Y-74175001D01*
X196376692Y-74233818D01*
X196376692Y-74266187D01*
X196368948Y-74324999D01*
X196368949Y-74325000D01*
X196999998Y-74325000D01*
X197025953Y-74299045D01*
X197087276Y-74265560D01*
X197156968Y-74270544D01*
X197212902Y-74312415D01*
X197215621Y-74316193D01*
X197223139Y-74327064D01*
X197236383Y-74359037D01*
X197326243Y-74476146D01*
X197327986Y-74478666D01*
X197338034Y-74509043D01*
X197349570Y-74538882D01*
X197349810Y-74544641D01*
X197349929Y-74545001D01*
X197349839Y-74545348D01*
X197350000Y-74549199D01*
X197350000Y-74700500D01*
X197330315Y-74767539D01*
X197277511Y-74813294D01*
X197226000Y-74824500D01*
X197124000Y-74824500D01*
X197056961Y-74804815D01*
X197011206Y-74752011D01*
X197000000Y-74700500D01*
X197000000Y-74675000D01*
X196368951Y-74675000D01*
X196368949Y-74675001D01*
X196376692Y-74733815D01*
X196376692Y-74766184D01*
X196362854Y-74871295D01*
X196334588Y-74935192D01*
X196276263Y-74973663D01*
X196215724Y-74976727D01*
X196078845Y-74949500D01*
X196078842Y-74949500D01*
X195921158Y-74949500D01*
X195921155Y-74949500D01*
X195766510Y-74980261D01*
X195766498Y-74980264D01*
X195620827Y-75040602D01*
X195620814Y-75040609D01*
X195489711Y-75128210D01*
X195489707Y-75128213D01*
X195378213Y-75239707D01*
X195378208Y-75239713D01*
X195374609Y-75245100D01*
X195320994Y-75289902D01*
X195251669Y-75298605D01*
X195188643Y-75268447D01*
X195183830Y-75263884D01*
X193567015Y-73647069D01*
X193533530Y-73585746D01*
X193533093Y-73583652D01*
X193519737Y-73516503D01*
X193491983Y-73449499D01*
X193459397Y-73370827D01*
X193459390Y-73370814D01*
X193371789Y-73239711D01*
X193371786Y-73239707D01*
X193260292Y-73128213D01*
X193260288Y-73128210D01*
X193129185Y-73040609D01*
X193129172Y-73040602D01*
X192983501Y-72980264D01*
X192983489Y-72980261D01*
X192828845Y-72949500D01*
X192828842Y-72949500D01*
X192671158Y-72949500D01*
X192671155Y-72949500D01*
X192516510Y-72980261D01*
X192516498Y-72980264D01*
X192370827Y-73040602D01*
X192370814Y-73040609D01*
X192239711Y-73128210D01*
X192239707Y-73128213D01*
X192128213Y-73239707D01*
X192128210Y-73239711D01*
X192040609Y-73370814D01*
X192040602Y-73370827D01*
X191980264Y-73516498D01*
X191980261Y-73516510D01*
X191949500Y-73671153D01*
X189128134Y-73671153D01*
X188948996Y-73171240D01*
X188947191Y-73165808D01*
X188704827Y-72376135D01*
X188703287Y-72370668D01*
X188497716Y-71570594D01*
X188496420Y-71565015D01*
X188485709Y-71513555D01*
X188328105Y-70756344D01*
X188327067Y-70750708D01*
X188319418Y-70702984D01*
X188309985Y-70644122D01*
X188318813Y-70574813D01*
X188363711Y-70521278D01*
X188430425Y-70500516D01*
X188432423Y-70500500D01*
X191048507Y-70500500D01*
X191048507Y-70500499D01*
X191383394Y-70462767D01*
X191711954Y-70387776D01*
X192030051Y-70276469D01*
X192333686Y-70130246D01*
X192619039Y-69950946D01*
X192882523Y-69740825D01*
X193120825Y-69502523D01*
X193330946Y-69239039D01*
X193510246Y-68953686D01*
X193656469Y-68650051D01*
X193767776Y-68331954D01*
X193842767Y-68003394D01*
X193880500Y-67668504D01*
X193880500Y-67331496D01*
X193842767Y-66996606D01*
X193767776Y-66668046D01*
X193656469Y-66349949D01*
X193534885Y-66097478D01*
X193510247Y-66046316D01*
X193504225Y-66036732D01*
X193330946Y-65760961D01*
X193120825Y-65497477D01*
X192882523Y-65259175D01*
X192850771Y-65233854D01*
X192738890Y-65144632D01*
X192619039Y-65049054D01*
X192333686Y-64869754D01*
X192333683Y-64869752D01*
X192030054Y-64723532D01*
X191711965Y-64612227D01*
X191711953Y-64612223D01*
X191383397Y-64537233D01*
X191383381Y-64537231D01*
X191048508Y-64499500D01*
X191048504Y-64499500D01*
X190945892Y-64499500D01*
X188400062Y-64499500D01*
X188333023Y-64479815D01*
X188287268Y-64427011D01*
X188277324Y-64357853D01*
X188278391Y-64351579D01*
X188409027Y-63687117D01*
X188410044Y-63682433D01*
X188570635Y-63005816D01*
X188571835Y-63001169D01*
X188574683Y-62990959D01*
X188758624Y-62331305D01*
X188760007Y-62326696D01*
X188794489Y-62219361D01*
X188837148Y-62086571D01*
X188876393Y-62028767D01*
X188940661Y-62001356D01*
X188955205Y-62000500D01*
X193151254Y-62000500D01*
X193196630Y-61994990D01*
X193451551Y-61964037D01*
X193745266Y-61891643D01*
X193745269Y-61891641D01*
X193745272Y-61891641D01*
X193848007Y-61852678D01*
X194028113Y-61784373D01*
X194295967Y-61643792D01*
X194544924Y-61471950D01*
X194771352Y-61271352D01*
X194971950Y-61044924D01*
X195143792Y-60795967D01*
X195284373Y-60528113D01*
X195391643Y-60245266D01*
X195464037Y-59951551D01*
X195500500Y-59651252D01*
X195500500Y-59500000D01*
X195500500Y-59434108D01*
X195500500Y-52973378D01*
X195520185Y-52906339D01*
X195552976Y-52872084D01*
X195964021Y-52581855D01*
X195968664Y-52578732D01*
X196653113Y-52140715D01*
X196657911Y-52137798D01*
X197361551Y-51731390D01*
X197366471Y-51728694D01*
X198087913Y-51354697D01*
X198092941Y-51352234D01*
X198830663Y-51011442D01*
X198835736Y-51009236D01*
X199588242Y-50702342D01*
X199593436Y-50700361D01*
X200359064Y-50428042D01*
X200364370Y-50426289D01*
X201141607Y-50189080D01*
X201146989Y-50187571D01*
X201934191Y-49985974D01*
X201939677Y-49984702D01*
X202735252Y-49819124D01*
X202740732Y-49818114D01*
X203542972Y-49688911D01*
X203548532Y-49688144D01*
X204355850Y-49595568D01*
X204361463Y-49595054D01*
X205172144Y-49539305D01*
X205177719Y-49539049D01*
X205990113Y-49520238D01*
X205995737Y-49520237D01*
X206808121Y-49538407D01*
G37*
%TD.AperFunction*%
%TA.AperFunction,Conductor*%
G36*
X216419663Y-55269088D02*
G01*
X216472598Y-55314691D01*
X216492474Y-55381674D01*
X216492475Y-55381818D01*
X216493809Y-56164144D01*
X216474239Y-56231216D01*
X216421513Y-56277061D01*
X216352371Y-56287123D01*
X216288766Y-56258206D01*
X216250892Y-56199493D01*
X216250732Y-56198948D01*
X216242102Y-56169243D01*
X216158196Y-56027365D01*
X216158189Y-56027356D01*
X216041643Y-55910810D01*
X216041634Y-55910803D01*
X215984513Y-55877022D01*
X215936829Y-55825953D01*
X215924326Y-55757211D01*
X215950972Y-55692622D01*
X215984514Y-55663558D01*
X216041941Y-55629596D01*
X216041942Y-55629594D01*
X216041947Y-55629592D01*
X216158592Y-55512947D01*
X216242564Y-55370959D01*
X216249398Y-55347433D01*
X216287004Y-55288549D01*
X216350477Y-55259342D01*
X216419663Y-55269088D01*
G37*
%TD.AperFunction*%
%TD*%
M02*
